/* XPM */
static char * akatsuki_xpm[] = {
"64 64 599 2",
"  	c #000000",
". 	c #010101",
"+ 	c #3E3E3E",
"@ 	c #747474",
"# 	c #949494",
"$ 	c #9C9C9C",
"% 	c #9A9A9A",
"& 	c #8A8A8A",
"* 	c #5C5C5C",
"= 	c #171717",
"- 	c #020202",
"; 	c #454545",
"> 	c #A8A8A8",
", 	c #DEDEDE",
"' 	c #F7F7F7",
") 	c #FCFCFC",
"! 	c #FDFDFD",
"~ 	c #FEFEFE",
"{ 	c #FBFBFB",
"] 	c #ECECEC",
"^ 	c #C1C1C1",
"/ 	c #6C6C6C",
"( 	c #212121",
"_ 	c #ABABAB",
": 	c #F1F1F1",
"< 	c #FAFDFC",
"[ 	c #F4F4F3",
"} 	c #DFD9D8",
"| 	c #CCC1C0",
"1 	c #C4B4B2",
"2 	c #C3B4B1",
"3 	c #CAC1BE",
"4 	c #E3DEDA",
"5 	c #F7F8F7",
"6 	c #F9FBFA",
"7 	c #F8F8F8",
"8 	c #BDBDBD",
"9 	c #282828",
"0 	c #D5D5D5",
"a 	c #FCFBFB",
"b 	c #FAFBFA",
"c 	c #E3DDD9",
"d 	c #AD9A96",
"e 	c #7B3B3A",
"f 	c #701001",
"g 	c #731103",
"h 	c #721202",
"i 	c #731302",
"j 	c #711302",
"k 	c #6E1100",
"l 	c #845753",
"m 	c #CABCB9",
"n 	c #F7F7F4",
"o 	c #FAF9F9",
"p 	c #CCCCCC",
"q 	c #151515",
"r 	c #3C3C3C",
"s 	c #818181",
"t 	c #A6A6A6",
"u 	c #B8B8B8",
"v 	c #AFAFAF",
"w 	c #929292",
"x 	c #525252",
"y 	c #232323",
"z 	c #F2F3F1",
"A 	c #B29F9B",
"B 	c #70211A",
"C 	c #741303",
"D 	c #731202",
"E 	c #741302",
"F 	c #701204",
"G 	c #9C7D76",
"H 	c #F0EDEA",
"I 	c #F9FAFB",
"J 	c #BBBBBB",
"K 	c #F5F5F5",
"L 	c #FFFFFF",
"M 	c #F9F9F9",
"N 	c #D9D9D9",
"O 	c #8F8F8F",
"P 	c #111111",
"Q 	c #F1F0ED",
"R 	c #957875",
"S 	c #741504",
"T 	c #741203",
"U 	c #91706D",
"V 	c #F1F2EE",
"W 	c #F9FBFB",
"X 	c #FAFBF9",
"Y 	c #EDEBEA",
"Z 	c #DBD3D0",
"` 	c #CBBEBD",
" .	c #C4B7B7",
"..	c #D0C7C4",
"+.	c #E7E1E0",
"@.	c #F9F9F8",
"#.	c #FAFCFC",
"$.	c #FBFCFC",
"%.	c #D5D7D6",
"&.	c #585858",
"*.	c #292929",
"=.	c #F8FBFA",
"-.	c #A88E8A",
";.	c #761204",
">.	c #761306",
",.	c #A58F89",
"'.	c #BCAAA8",
").	c #8E6561",
"!.	c #711F15",
"~.	c #701102",
"{.	c #70160A",
"].	c #8E655F",
"^.	c #CCC5C4",
"/.	c #EDEDED",
"(.	c #717171",
"_.	c #030303",
":.	c #808080",
"<.	c #DDD8D4",
"[.	c #72140B",
"}.	c #721101",
"|.	c #721102",
"1.	c #731201",
"2.	c #741000",
"3.	c #741100",
"4.	c #74140A",
"5.	c #A78F89",
"6.	c #EFF2EE",
"7.	c #FAFAFB",
"8.	c #5F5F5F",
"9.	c #A7A6A7",
"0.	c #FCFCFB",
"a.	c #B8A4A2",
"b.	c #761205",
"c.	c #741101",
"d.	c #741201",
"e.	c #721504",
"f.	c #721305",
"g.	c #997573",
"h.	c #F2F1F0",
"i.	c #DDDCDC",
"j.	c #B4B3B4",
"k.	c #FCFCFA",
"l.	c #A08482",
"m.	c #761203",
"n.	c #761101",
"o.	c #781105",
"p.	c #A6928E",
"q.	c #F7F9F9",
"r.	c #FBFBFA",
"s.	c #9E9E9E",
"t.	c #A9A9A9",
"u.	c #FAFCF9",
"v.	c #9D827F",
"w.	c #751202",
"x.	c #741403",
"y.	c #721304",
"z.	c #6F1508",
"A.	c #711407",
"B.	c #D3CDCA",
"C.	c #E4E4E4",
"D.	c #101010",
"E.	c #8E8F8F",
"F.	c #F9FCF9",
"G.	c #B19C98",
"H.	c #731203",
"I.	c #721403",
"J.	c #804E46",
"K.	c #E4E1DC",
"L.	c #875754",
"M.	c #741402",
"N.	c #751302",
"O.	c #95726C",
"P.	c #FAFBFB",
"Q.	c #141414",
"R.	c #878787",
"S.	c #F9FAFA",
"T.	c #CDC4C1",
"U.	c #741103",
"V.	c #731303",
"W.	c #926B67",
"X.	c #F7FBF9",
"Y.	c #895B57",
"Z.	c #761202",
"`.	c #751403",
" +	c #741B10",
".+	c #EEE9E8",
"++	c #FDFEFE",
"@+	c #A2A3A3",
"#+	c #D8D8D8",
"$+	c #FAFAFA",
"%+	c #F7FBFA",
"&+	c #F1EFEF",
"*+	c #7E413E",
"=+	c #741202",
"-+	c #761302",
";+	c #B29E9B",
">+	c #F5F2F0",
",+	c #783732",
"'+	c #DBD4D2",
")+	c #FCFDFC",
"!+	c #3F3F3F",
"~+	c #E6E6E6",
"{+	c #F7FAF7",
"]+	c #DAD2CE",
"^+	c #C4BAB4",
"/+	c #F4F9F7",
"(+	c #C5BDB7",
"_+	c #721106",
":+	c #751101",
"<+	c #711305",
"[+	c #D8D4D3",
"}+	c #E1D9D8",
"|+	c #730E01",
"1+	c #721404",
"2+	c #D8D1CF",
"3+	c #B9B9B9",
"4+	c #B9B7B7",
"5+	c #F6F8F7",
"6+	c #B49F9C",
"7+	c #741006",
"8+	c #751910",
"9+	c #D8D2D0",
"0+	c #F5F8F7",
"a+	c #B2A29F",
"b+	c #781309",
"c+	c #741002",
"d+	c #751104",
"e+	c #9E8381",
"f+	c #F4F7F7",
"g+	c #AC9895",
"h+	c #741102",
"i+	c #771102",
"j+	c #721100",
"k+	c #711004",
"l+	c #E5DFDE",
"m+	c #313131",
"n+	c #EFEFEE",
"o+	c #DBD6D6",
"p+	c #72150B",
"q+	c #711301",
"r+	c #7C413E",
"s+	c #DDD7D5",
"t+	c #F8F7F7",
"u+	c #C9C2BE",
"v+	c #834F49",
"w+	c #751201",
"x+	c #947371",
"y+	c #EAECEA",
"z+	c #DBD5D1",
"A+	c #73211A",
"B+	c #721201",
"C+	c #7F4945",
"D+	c #F8F6F4",
"E+	c #727272",
"F+	c #919191",
"G+	c #AB9392",
"H+	c #732C27",
"I+	c #BCACA7",
"J+	c #F1F1F0",
"K+	c #F4F1EF",
"L+	c #D1CAC3",
"M+	c #AF9B97",
"N+	c #906764",
"O+	c #804941",
"P+	c #763B31",
"Q+	c #834944",
"R+	c #997D79",
"S+	c #C8BFBE",
"T+	c #F2F4F1",
"U+	c #E0DAD6",
"V+	c #814A47",
"W+	c #731100",
"X+	c #B8A4A0",
"Y+	c #F8FBFB",
"Z+	c #4D4D4D",
"`+	c #C9CACA",
" @	c #F5F5F6",
".@	c #731101",
"+@	c #711104",
"@@	c #7E4741",
"#@	c #E6E0DD",
"$@	c #F6F7F4",
"%@	c #F8FBF9",
"&@	c #F7F8F8",
"*@	c #F4F6F5",
"=@	c #F8F7F5",
"-@	c #F6F7F5",
";@	c #E6E1DD",
">@	c #B4A5A1",
",@	c #742C24",
"'@	c #8D5E5D",
")@	c #EEEEE8",
"!@	c #F9FCFA",
"~@	c #D4D4D4",
"{@	c #131313",
"]@	c #EFF0F0",
"^@	c #DFDAD8",
"/@	c #711003",
"(@	c #751203",
"_@	c #824D48",
":@	c #A2837D",
"<@	c #AE9891",
"[@	c #A28780",
"}@	c #84544F",
"|@	c #731204",
"1@	c #751304",
"2@	c #751303",
"3@	c #A98E8D",
"4@	c #939393",
"5@	c #868686",
"6@	c #B9A9A6",
"7@	c #721302",
"8@	c #73170D",
"9@	c #DBD5D3",
"0@	c #FCFDFD",
"a@	c #E1E1E1",
"b@	c #121212",
"c@	c #070707",
"d@	c #CFD0CF",
"e@	c #F6F7F3",
"f@	c #835751",
"g@	c #761102",
"h@	c #A58B87",
"i@	c #FCFDFB",
"j@	c #FBFCFB",
"k@	c #737373",
"l@	c #8B8B8B",
"m@	c #F8F9F8",
"n@	c #D0C4BF",
"o@	c #701304",
"p@	c #762D25",
"q@	c #F2F2EF",
"r@	c #FDFEFC",
"s@	c #B3B3B3",
"t@	c #090909",
"u@	c #8E8E8E",
"v@	c #F1F2F1",
"w@	c #EDEDE8",
"x@	c #82504D",
"y@	c #740E02",
"z@	c #DBD6D4",
"A@	c #FDFDFA",
"B@	c #D3D3D3",
"C@	c #040404",
"D@	c #2A2A2A",
"E@	c #5E5E5E",
"F@	c #636363",
"G@	c #686868",
"H@	c #7C7C7C",
"I@	c #A7A4A5",
"J@	c #DBD9D8",
"K@	c #F8F8F9",
"L@	c #EAE7E7",
"M@	c #927171",
"N@	c #761304",
"O@	c #701206",
"P@	c #75221C",
"Q@	c #7E403B",
"R@	c #7C463F",
"S@	c #742820",
"T@	c #711101",
"U@	c #731301",
"V@	c #751004",
"W@	c #C6BFBD",
"X@	c #E8E8E8",
"Y@	c #666666",
"Z@	c #CFCFCF",
"`@	c #FDFCFC",
" #	c #F7F6F6",
".#	c #E3DEDC",
"+#	c #B9ACA6",
"@#	c #7C3A39",
"##	c #771105",
"$#	c #721508",
"%#	c #97726D",
"&#	c #C6BAB8",
"*#	c #E2DEDC",
"=#	c #F3F2F2",
"-#	c #F7F9F7",
";#	c #D2C8C6",
">#	c #C2B8B7",
",#	c #EFEFEF",
"'#	c #0A0A0A",
")#	c #6F6F6F",
"!#	c #E9E9E9",
"~#	c #E4DFDD",
"{#	c #B8A8A5",
"]#	c #967877",
"^#	c #7D3F3E",
"/#	c #71180A",
"(#	c #731102",
"_#	c #845652",
":#	c #D5D0CE",
"<#	c #F3F2F4",
"[#	c #D3CECB",
"}#	c #B09D9B",
"|#	c #9D7E7E",
"1#	c #9C7576",
"2#	c #A38886",
"3#	c #B7A49C",
"4#	c #792E28",
"5#	c #C5B9BB",
"6#	c #FEFEFC",
"7#	c #1D1D1D",
"8#	c #383838",
"9#	c #7B7B7B",
"0#	c #EAEBEB",
"a#	c #DED5D5",
"b#	c #9D8380",
"c#	c #72170A",
"d#	c #751001",
"e#	c #701302",
"f#	c #8A6360",
"g#	c #EBEAE9",
"h#	c #E0DEDB",
"i#	c #8E6665",
"j#	c #741204",
"k#	c #771103",
"l#	c #CCC6C3",
"m#	c #F8F9F6",
"n#	c #D6CFCB",
"o#	c #885E5A",
"p#	c #742C25",
"q#	c #E4E2DE",
"r#	c #E9E3E0",
"s#	c #7E4642",
"t#	c #741003",
"u#	c #751103",
"v#	c #710E01",
"w#	c #DEDCDB",
"x#	c #535353",
"y#	c #D2D3D3",
"z#	c #FBFAFC",
"A#	c #F3F2EE",
"B#	c #B19E99",
"C#	c #751710",
"D#	c #711502",
"E#	c #721203",
"F#	c #B4A29D",
"G#	c #F7FAF9",
"H#	c #9C817D",
"I#	c #761103",
"J#	c #793732",
"K#	c #F6F5F5",
"L#	c #B4B4B4",
"M#	c #ACADAC",
"N#	c #F8F6F7",
"O#	c #D1C9C7",
"P#	c #7B3D36",
"Q#	c #751102",
"R#	c #73140C",
"S#	c #E0DDDE",
"T#	c #E5E3DE",
"U#	c #731710",
"V#	c #A58C8A",
"W#	c #777777",
"X#	c #7D7D7D",
"Y#	c #E4E2DD",
"Z#	c #8B6663",
"`#	c #793734",
" $	c #F7F7F5",
".$	c #CDC2BE",
"+$	c #741301",
"@$	c #721104",
"#$	c #D8D2CF",
"$$	c #E7E7E7",
"%$	c #4B4B4B",
"&$	c #A8958D",
"*$	c #711608",
"=$	c #741001",
"-$	c #8F6562",
";$	c #F8FBF8",
">$	c #C3B0AF",
",$	c #761405",
"'$	c #997570",
")$	c #A7A7A7",
"!$	c #191919",
"~$	c #ADADAD",
"{$	c #F5F4F4",
"]$	c #FAF9F8",
"^$	c #CEC2C2",
"/$	c #7F4843",
"($	c #997470",
"_$	c #C5B7B8",
":$	c #752C29",
"<$	c #E3DEDE",
"[$	c #E7E8E8",
"}$	c #EDEEEC",
"|$	c #BCABA8",
"1$	c #7B453E",
"2$	c #731001",
"3$	c #760F01",
"4$	c #761303",
"5$	c #926C67",
"6$	c #FBFCF8",
"7$	c #D8D2CE",
"8$	c #741305",
"9$	c #6F1709",
"0$	c #CCBCB9",
"a$	c #F8F9F9",
"b$	c #8C8C8C",
"c$	c #B8B7B7",
"d$	c #F6F5F6",
"e$	c #FAFCFB",
"f$	c #F3F4F2",
"g$	c #D7D1CE",
"h$	c #B9AAA6",
"i$	c #A78A89",
"j$	c #9A7A79",
"k$	c #A38480",
"l$	c #B2A29D",
"m$	c #D6D0CA",
"n$	c #F5F3F2",
"o$	c #77403B",
"p$	c #73170B",
"q$	c #BDAFAC",
"r$	c #FAFAF9",
"s$	c #050505",
"t$	c #656565",
"u$	c #C6C6C6",
"v$	c #F4F4F4",
"w$	c #FBFDFB",
"x$	c #FBFDFC",
"y$	c #FBFDFE",
"z$	c #BFAFAD",
"A$	c #731106",
"B$	c #721003",
"C$	c #75302C",
"D$	c #CBC1BF",
"E$	c #F8F8F7",
"F$	c #CDCDCD",
"G$	c #222222",
"H$	c #383738",
"I$	c #A1A2A1",
"J$	c #B5B5B4",
"K$	c #B6B6B6",
"L$	c #ABABAA",
"M$	c #969696",
"N$	c #CBCBCB",
"O$	c #F1F4F0",
"P$	c #957774",
"Q$	c #761506",
"R$	c #731306",
"S$	c #977775",
"T$	c #E3DFDE",
"U$	c #4A4A4A",
"V$	c #E6E7E6",
"W$	c #FBFAFB",
"X$	c #EFF1F0",
"Y$	c #A18782",
"Z$	c #956F6C",
"`$	c #D4C9C7",
" %	c #F7F8F5",
".%	c #A4A4A4",
"+%	c #616161",
"@%	c #F8FAF7",
"#%	c #D8CFCB",
"$%	c #A28481",
"%%	c #742C26",
"&%	c #731205",
"*%	c #711202",
"=%	c #701105",
"-%	c #772D29",
";%	c #9B7872",
">%	c #BCAFA9",
",%	c #E2DFDB",
"'%	c #FAFAF8",
")%	c #CDCCCD",
"!%	c #F4F2F0",
"~%	c #E3DFDB",
"{%	c #D4CECC",
"]%	c #CFC8C6",
"^%	c #D2CBC8",
"/%	c #DAD3D1",
"(%	c #E9E4E1",
"_%	c #F7F4F3",
":%	c #FCFBFC",
"<%	c #D6D6D6",
"[%	c #848484",
"}%	c #0D0D0D",
"|%	c #0C0C0C",
"1%	c #D1D1D1",
"2%	c #F6F6F6",
"3%	c #FEFCFD",
"4%	c #FEFDFD",
"5%	c #FDFEFD",
"6%	c #FDFFFE",
"7%	c #FEFEFF",
"8%	c #FCFCFD",
"9%	c #E2E2E2",
"0%	c #646464",
"a%	c #898989",
"b%	c #AEAEAE",
"c%	c #C3C3C3",
"d%	c #CACACA",
"e%	c #AAAAAA",
"f%	c #888888",
"g%	c #484848",
"h%	c #0B0B0B",
"                                                                                                                                ",
"                                                                                                                                ",
"                                                                                                                                ",
"                                                                                                                                ",
"                                                                                                                                ",
"                                                                                                                                ",
"                                                                                                                                ",
"                                                                                                                                ",
"                                                                                                                                ",
"                                                      . . . .   . .                                                             ",
"                                              . . .   + @ # $ % & * = - .                                                       ",
"                                              - ; > , ' ) ! ~ ! ) { ] ^ / - .                                                   ",
"                                          - ( _ : < ) [ } | 1 2 3 4 5 6 7 8 9 . -   - - . . . . . .                             ",
"                                          + 0 a b c d e f g h i j k l m n o p q - r s t u 8 v w x .                             ",
"                                      . y 0 { z A B C D E E E E E E C F G H I J 0 K ! L L L ~ ! M N O P .                       ",
"                                      . > { Q R S D C E E E E E E E E C T U V W X Y Z `  . ...+.@.#.$.%.&.- .                   ",
"                                      *.] =.-.;.T E E E E E E E E E E E E >.,.'.).!.~.g D T E {.].^.M { /.(._.                  ",
"                                    . :.{ <.[.E E E E E E E E E E E E E E }.|.C 1.E E E E 2.3.E T 4.5.6.7./.8.-                 ",
"                                    . 9.0.a.b.E E E E E E E E E E E E E E 1.D E 1.E E E E c.d.E i e.f.g.h.{ i.(                 ",
"                                    . j.k.l.m.E E E 1.E E E E E E E E 1.E E E E E E E E E E E E E E n.o.p.q.r.s.                ",
"                                    - t.u.v.w.E E E E E E E E E E 1.E x.y.z.m.c.E E E E E E E E E E E E A.B.{ C.D..             ",
"                                    - E.F.G.H.E E E E E E E E E E 1.E I.J.K.L.M.N.E E E E E E E 1.E E E E O.P.$./ .             ",
"                                  . Q.R.S.T.U.E E E E E 1.1.E E E 1.E V.W.X.Y.Z.E E E E E E `.1.1.1.1.E E  +.+++@+.             ",
"                                . * #+$+%+&+*+=+w.-+E 1.1.1.E E E E E V.;+>+,+Z.=+E E E 1.E E E E 1.E E E V.'+)+u .             ",
"                                !+~+{+]+^+/+(+_+d.:+E 1.E 1.E E E E 1.<+[+}+|+Z.=+E E E E E E E E E E E i 1+2+) 3+.             ",
"                              - 4+5+6+7+8+9+0+a+b+c+Z.w.E E E E E 1.d+e+f+g+h+i+N.E E E E E E 1.E E E 1.j+k+l+! t .             ",
"                              m+n+o+p+w.q+r+s+t+u+v+w+:+i D T =+h+C x+y+z+A+B+E E E E E 1.E E E E E E 1.j+C+D+! E+.             ",
"                              F+I G+i+Z.E E H+I+J+K+L+M+N+O+P+Q+R+S+T+U+V+j+1.E E E E E E E E E E E E 1.W+X+Y+K Z+-             ",
"                            . `+ @r+.@1.E E i +@@@I+#@$@%@&@*@=@-@;@>@,@=+E E E E E E E E E E E E E j+1.E '@)@!@~@{@            ",
"                            9 ]@^@/@D 1.E E E w+(@C ~._@:@<@<@[@}@|@(@1@E E E E E E E E E E E E E E 1.=+N.2@3@%+$+4@.           ",
"                          . 5@$+6@T E E E E E E 7@w.2.:+m.:+:+E E E E E E E E 1.E E E E E E E E E E E (@m.D 8@9@0@a@b@          ",
"                          c@d@e@f@C E E E E E E E E d.=+N.=+E E E E E E E E E 1.E E E E E E E 1.E E E E N.m.g@h@i@j@k@          ",
"                      . - l@m@n@o@C E E E E E E E E E E E E E E E E E E E E E E E E E E E E E E E E E E E m.w.p@q@r@s@.         ",
"                    - t@u@v@w@x@c.E E E E E E E E E E E E E E E E E Z.Z.Z.Z.w+j+1.E E E E 1.1.E E E E E E Z.:+y@z@A@B@          ",
"      - C@D@E@F@G@H@I@J@K@L@M@N@=+E E E E E E E E 1.E E E E E C w.2@(@O@P@Q@R@S@T@U@E E E E E E E E E E E N.w+V@W@r@X@          ",
"    _.Y@Z@K $+{ { `@ #.#+#@###:+d.E E E E E E E 1.E E E E E E C $#%#&#*#=#K@-#;#|.E E E E E E E E E E E E E E |@>#A@,#'#        ",
"  . )#!#{ { ) ~#{#]#^#/#V.c.2.:+-+1.E E E E E E E E E E E g (#_#:#<#[#}#|#1#2#3#4#}.E E E E 1.j+E E E E E E D C 5#6#,#t@        ",
"    b@7#8#9#3+0#-#a#b#c#T d#2.w+=+E E E E E E E E E E E D e#f#g#h#i#j#w.(@T h+k#j#d.E E E E E 1.E E E E E E (@T l#) ~+          ",
"          . _.m+> : m#n#o#.@2.E E E E E E E E E E E E D }.p#q#r#s#t#Z.Z.Z.Z.:+Z.Z.w.E E E E E E E E E E E E u#v#w#! B@          ",
"                - x#y#z#A#B#C#D#M.E E E E 1.j+E E E Z.E E#F#G#H#I#w.d.E E E E E E E E E E E 1.E E E E E E m.h+J#K#! L#.         ",
"                  - Q.M#N#%@O#P#1.=+E E E 1.1.E E E w.Q#R#S#T#U#:+w.1.E E E E E E E E E E `.1.E E E E E E m.Z.V#)+! W#          ",
"                      - X#!#{ Y#Z#T E E E E E E E E j+c.`# $.$t#+$1.1.E E E E E E E E E E E E 1.E E E E E Z.@$#$$.$$= .         ",
"                        - %$B@$+Q &$*$2@w.E E E 1.E D =$-$;$>$Z.w.E E E E E E E E E E 1.1.1.E E E E E N.:+,$'$-#j@)$.           ",
"                          . !$~${$]$^$/$w.E i E .@E D C ($#._$m.N.E E E E E E E E E E E E E E E E E E w.h+:$<$$+[$m+            ",
"                              _.W#C.b }$|$1$7@V.|.2$3$4$5$6$7$8$h+1.E E E E E E E E E E E 1.E E E E Q#m.9$0$a$7 b$-             ",
"                              . . m+c$d$e$f$g$h$i$j$k$l$m$)+n$o$h+1.1.E E E E E E 1.E E E E E N.W+c.u#p$q$@.r$8 s$.             ",
"                                    _.t$u$v$$.< e$w$x$j@6#~ y$z$A$B$1.E E E E E E 1.E 1.1.E N.Z.2.=$C$D$E$) F$G$                ",
"                                      . . H$s I$J$K$L$M$/ N$7.O$P$Q$E E E Z.w+2.=+E E E E :+c.(@R$S$T$P.$+u$9                   ",
"                                          . .   . . . . . U$V$W$X$Y$<+(@E w.g@d#h+i i M.=+c+[.Z$`$ %a v$.%D.C@                  ",
"                                                          - +%X@! @%#%$%%%+@&%h D *%=%-%;%>%,%'%) ) ~@t$_.                      ",
"                                                            . Z+)%{ #.W !%~%{%]%^%/%(%_%`@$.:%S.<%[%}%                          ",
"                                                              . |%[%1%2%) 3%) 4%5%6%7%8%{ 9%L#0%c@-                             ",
"                                                                  . _.r a%b%c%N$d%8 e%f%g%h%-                                   ",
"                                                                    .   . . .   . . . .   .                                     ",
"                                                                                                                                ",
"                                                                                                                                ",
"                                                                                                                                ",
"                                                                                                                                ",
"                                                                                                                                ",
"                                                                                                                                ",
"                                                                                                                                ",
"                                                                                                                                ",
"                                                                                                                                ",
"                                                                                                                                "};
