/* XPM */
static char *_d3f786cffff4ae59b8ecde681b26d96imhzgO2JmsLQ3Shz[] = {
/* columns rows colors chars-per-pixel */
"64 64 255 2 ",
"   c #000000",
".  c #0B0000",
"X  c #0D0B0F",
"o  c #290000",
"O  c #380F07",
"+  c #082E0F",
"@  c #2F2911",
"#  c #0C1B23",
"$  c #281F39",
"%  c #0A292C",
"&  c #302E2C",
"*  c #37393A",
"=  c #4A0000",
"-  c #501306",
";  c #711211",
":  c #473903",
">  c #4D3512",
",  c #6C3011",
"<  c #4A322A",
"1  c #74392B",
"2  c #097002",
"3  c #005720",
"4  c #365632",
"5  c #0A6A33",
"6  c #2E7037",
"7  c #50480F",
"8  c #6A510D",
"9  c #69641D",
"0  c #514D31",
"q  c #784926",
"w  c #6D5032",
"e  c #4F6C34",
"r  c #6F6E38",
"t  c #353B46",
"y  c #3A494C",
"u  c #03774A",
"i  c #36714A",
"p  c #464748",
"a  c #524F4B",
"s  c #4A5456",
"d  c #575957",
"f  c #675745",
"g  c #6E5851",
"h  c #51744D",
"j  c #6F6C52",
"k  c #76685B",
"l  c #525C61",
"z  c #605F61",
"x  c #5A6467",
"c  c #556E72",
"v  c #666767",
"b  c #6B6C6B",
"n  c #6E6F6E",
"m  c #786B64",
"M  c #6D726D",
"N  c #6B7577",
"B  c #767878",
"V  c #972F12",
"C  c #A52B17",
"Z  c #883928",
"A  c #9A3829",
"S  c #CC3218",
"D  c #8E4F0D",
"F  c #AC4E11",
"G  c #AD6516",
"H  c #90562F",
"J  c #984734",
"K  c #B34F33",
"L  c #916D36",
"P  c #A76426",
"I  c #B66A2A",
"U  c #A86A36",
"Y  c #B37133",
"T  c #B77438",
"R  c #E85418",
"E  c #CE7317",
"W  c #D1542F",
"Q  c #CA5635",
"!  c #EF532A",
"~  c #FD5D28",
"^  c #FD5C35",
"/  c #C8732B",
"(  c #D77A25",
")  c #CC6E31",
"_  c #C97A36",
"`  c #FB632B",
"'  c #E86A31",
"]  c #F96439",
"[  c #955747",
"{  c #92724D",
"}  c #876B58",
"|  c #A67346",
" . c #AE7446",
".. c #877666",
"X. c #927765",
"o. c #867C74",
"O. c #D05A44",
"+. c #E95E43",
"@. c #CA7143",
"#. c #EF6245",
"$. c #199723",
"%. c #338936",
"&. c #46883E",
"*. c #4EA43D",
"=. c #18874B",
"-. c #36934A",
";. c #39A947",
":. c #38B44A",
">. c #3CB34C",
",. c #2EA253",
"<. c #3BA856",
"1. c #3AB653",
"2. c #4C9452",
"3. c #609156",
"4. c #43AB49",
"5. c #45B34B",
"6. c #46AA55",
"7. c #45B455",
"8. c #51B856",
"9. c #6E8C78",
"0. c #79817E",
"q. c #8F883B",
"w. c #A99B38",
"e. c #DD831F",
"r. c #FF8B1A",
"t. c #D48334",
"y. c #DA8639",
"u. c #E9882B",
"i. c #FD8C24",
"p. c #F48A2B",
"a. c #FE8C2A",
"s. c #FB9128",
"d. c #FD912C",
"f. c #E68937",
"g. c #F48D34",
"h. c #FC8D33",
"j. c #EE9238",
"k. c #FD9233",
"l. c #F89339",
"z. c #FEE03C",
"x. c #90894D",
"c. c #989853",
"v. c #A99248",
"b. c #A79855",
"n. c #AEA956",
"m. c #B7A659",
"M. c #88867B",
"N. c #988879",
"B. c #999174",
"V. c #AA9373",
"C. c #B9AB6F",
"Z. c #D28A4A",
"A. c #ED9143",
"S. c #C8B854",
"D. c #C8B56C",
"F. c #D9C65B",
"G. c #F3D950",
"H. c #FDDD54",
"J. c #FADC5A",
"K. c #FCE146",
"L. c #FEE154",
"P. c #FEE35C",
"I. c #F9E85A",
"U. c #D8C866",
"Y. c #D3CA6F",
"T. c #E6CD68",
"R. c #E9D668",
"E. c #F7DB66",
"W. c #EDD673",
"Q. c #FCE666",
"!. c #F9E474",
"~. c #677D83",
"^. c #777E83",
"/. c #817C80",
"(. c #7B8586",
"). c #768B91",
"_. c #868988",
"`. c #968C89",
"'. c #87948A",
"]. c #8E9595",
"[. c #939191",
"{. c #939495",
"}. c #979A99",
"|. c #9B9C9B",
" X c #A89585",
".X c #B59A89",
"XX c #A79995",
"oX c #98A29A",
"OX c #B9A48B",
"+X c #A6A49E",
"@X c #B8A795",
"#X c #8D9BA1",
"$X c #999CA3",
"%X c #A29CA2",
"&X c #9CA3A4",
"*X c #98A9B3",
"=X c #A3A3A4",
"-X c #A7AAAB",
";X c #B1AFAC",
":X c #ACB2B4",
">X c #B8B9B9",
",X c #C3A889",
"<X c #CEB48F",
"1X c #C7AC96",
"2X c #CAB398",
"3X c #D6B798",
"4X c #E2BC9F",
"5X c #D8BCA5",
"6X c #C3B5B2",
"7X c #BDC0BD",
"8X c #ECD98A",
"9X c #E9CA98",
"0X c #F2D196",
"qX c #DCC1A8",
"wX c #C3C2BD",
"eX c #E7C7A9",
"rX c #F9CDA7",
"tX c #FDCEAB",
"yX c #EFD8AB",
"uX c #FDD2A6",
"iX c #F5D5AA",
"pX c #FCD2AC",
"aX c #EACBB3",
"sX c #F9CEB3",
"dX c #F6D3B3",
"fX c #FBD4B2",
"gX c #FCD8B7",
"hX c #BABEC3",
"jX c #C0BEC3",
"kX c #BFC6CB",
"lX c #C6C6C8",
"zX c #CFCFCD",
"xX c #CDD3D4",
"cX c #D3D4D4",
"vX c #D6D8D8",
"bX c #DBDCDB",
"nX c #E7DCD7",
"mX c #D7E1DD",
"MX c #E4E4DB",
"NX c #DADDE0",
"BX c #DCE7E4",
"VX c #DCF0F1",
"CX c #E3E3E4",
"ZX c #E8E8E7",
"AX c #E4EAEC",
"SX c #EBEBEB",
"DX c #F1EDEE",
"FX c #ECF3E9",
"GX c #E6EBF2",
"HX c #EBECF2",
"JX c #EAF2F3",
"KX c #F4F4F4",
"LX c #FCFDF5",
"PX c #F6F9F9",
"IX c #FFFFFF",
/* pixels */
"IXIXIXIXIXIXIXIXIXIXIXIXIXIXIXIXIXIXIXIXIXIXPXvXB '.ZXIXIXIXIXIXIXIXIXIXIXIXIXIXIXIXIXIXIXIXIXIXIXIXIXIXIXIXIXIXIXIXIXIXIXIXIXIX",
"IXIXIXIXIXIXIXIXIXIXIXIXIXIXIXIXIXIXPXKXKXCX7Xs = < >XPXPXIXIXIXIXIXIXIXIXIXIXIXIXIXIXIXIXIXIXIXIXIXIXIXIXIXIXIXIXIXIXIXIXIXIXIX",
"IXIXIXIXIXIXIXIXIXIXIXIXIXIXPXIXPXmXoXN b s & A O.1 =XKXIXIXIXIXIXIXIXIXIXIXIXIXIXIXIXIXIXIXIXIXIXIXIXIXIXIXIXIXIXIXIXIXIXIXIXIX",
"IXIXIXIXIXIXIXIXIXIXIXIXPXKXIXGX+X% ; Z A K Q ] #.1 c >XZXIXIXIXIXIXIXIXIXIXIXIXIXIXIXIXIXIXIXIXIXIXIXIXIXIXIXIXIXIXIXIXIXIXIXIX",
"IXIXIXIXIXIXIXIXPXIXIXAX|.oXcXoX= K +.] #.^ ^ ] W Z J = B vXPXPXIXIXIXIXIXIXIXIXIXIXIXIXIXIXIXIXIXIXIXIXIXIXIXIXIXIXIXIXIXIXIXIX",
"IXIXIXIXIXIXIXIXPXIXCXv 7 @ p > Q ] ] ` ^ ~ ~ ) g { K O.V a [.[._.vXLXIXIXIXIXIXIXIXIXIXIXIXIXIXIXIXIXIXIXIXIXIXIXIXIXIXIXIXIXIX",
"IXIXIXIXIXIXIXIXIXPX(.8 Y.x.  J ] ` ~ ^ ` ~ ~ Q n.W.q.W ! F V V   ;XPXIXIXIXIXIXIXIXIXIXIXIXIXIXIXIXIXIXIXIXIXIXIXIXIXIXIXIXIXIX",
"IXIXIXIXIXIXIXIXIXvX$ U.!.c.o O.] ! ] ] ` ^ ^ q m.Q.S.H ! ! ` K   lXLXIXIXIXIXIXIXIXIXIXIXIXIXIXIXIXIXIXIXIXIXIXIXIXIXIXIXIXIXIX",
"IXIXIXIXIXIXIXGXbX|.w !.I.D.O Z A Z Z q J K ; { E.Q.Y.H ^ ^ W ,   B AXIXIXIXIXIXIXIXIXIXIXIXIXIXIXIXIXIXIXIXIXIXIXIXIXIXIXIXIXIX",
"IXIXIXIXIXPXKX[.$ X 3.8X!.D.# H W ' J y h e n.!.J.!.W.{ +.#.^ +.O.- b KXIXIXIXIXIXIXIXPXIXIXLXIXIXIXIXIXIXIXIXIXIXIXIXIXIXIXIXIX",
"IXIXIXIXIXLXKX(.q A 0 8Xm.+ H ^ ` ' K e u V.!.!.E.Q.U.H ' ^ ~ ~ ] Q . >XIXIXIXIXIXIXLXIXSXKXPXIXIXIXIXIXIXIXIXIXIXIXIXIXIXIXIXIX",
"IXIXIXIXHXlXXXs -  .H m i 3.K ^ W [ J f u x.E.K.L.!.m.F ` ^ ^ ` ~ O.= _.PXPXIXIXLXIXPX:Xp z SXIXIXIXIXIXIXIXIXLXIXIXIXIXIXIXIXIX",
"IXLXIXzXb   f o...g < -.-.0 W Q XXlX&Xi ,.6 C.G.R.<Xw Q ] ~ ~ ^ ! K J & jXIXIXPXLXPX:X: x.. kXLXLXIXPXLXLXIXLXLXIXIXIXIXIXIXIXIX",
"IXIXxXt } 3XaXdXsXqX1XB.c 1 K ..BXIXKX'.$.=.% V.b.4 + H O.Q Q R R ] #.A B PXIXIXKX&X> S.R.8 :XIXLXIXIXIXLXIXIXIXIXIXIXIXIXIXIXIX",
"IXSXB ..sXfXtX3X@XsXuXdX2X} O * xXIXZX_.b B.,X3X2XOXN.< n 6X6X=XX.F #.O.y cXIXHX#X: S.Q.R.8 >XIXPXIXPXCXzXbXPXIXIXIXIXIXIXIXIXIX",
"IXlXz eXsXsX3Xo..XeXpXtXsXeX..# hXcXXX@XeXgXuXpXgXfXdX2X`.cXIXJXNX|.K #., $XNX[.7 D.E.L.R.7 kXIXIXCX%Xz & v MXIXIXIXIXIXIXIXIXIX",
"PX|.X.dXpXfXqXaXfXfXiXdXsXgXeXB B XX3XyXgXiXpXdXsXtXpXgX4Xo.xXVXJXZX[.Z , # $ @ D.Q.J.P.T.: vXKX=Xs 8 D.C.a cXIXIXIXIXIXIXIXIXIX",
"KX_. XtXuXfXdXpXpXpXfXfXtXuXfX5X,XdXpXiXuXuXfXfXpXfXpXtXgX3X[.CXGXJXNX% 5 -.e S.E.H.P.L.T.8 }.9.: v.E.!.C.M FXPXIXIXIXIXIXIXIXIX",
"DX_..XuXuXuXpXuXtXpXpXuXuXtXtXpXfXuXpXpXsXtXtXuXuXpXpXpXtXfX XlXHXHXKX#X-.6.c.E.L.H.L.P.F.w   L R.Q.L.Q.q._.DXIXIXIXIXIXIXIXIXIX",
"KX_.V.uXuXpXsXpXpXtXpXtXpXuXpXpXuXuXtXsXpXpXuXuXtXpXpXpXtXgX2X>XAXGXHXjX$.6.b.J.K.H.L.I.F.e i x.F.L.H.R.> >XIXIXIXPXIXIXIXIXIXIX",
"PX=XM.aXtXtXpXpXtXfXpXpXsXpXdXiXpXtXfXdXfXfXdXpXpXtXpXpXuXfX5X;XBXGXAXNXh 4.3.T.L.K.K.Q.D.3.2.-.e b.!.S.t zXHXZXPXIXPXIXIXIXIXIX",
"IXlXd aXfXtXtXtXpXpXtXuXuXuXtXtXrXsXgX`.0 3XdXdXpXtXtXpXuXpX5X;XAXGXAXGXM 4.%.{ E.Q.Q.!.x.%.>.>.*.&.c.r # s y & 6XIXPXIXIXIXIXIX",
"IXZXb  XgXtXrXpXsXuXuXtXtXuXfXtXsXeXo.`.g = 5XfXsXsXtXiXpXfX2X:XZXAXAXHX:X2 7.u 4 c.n.r 6 4.:.:.5.*.e O 8 L c.@ >XIXIXIXIXIXIXIX",
"IXLX>X& @XaX<XqXdXgXpXpXfXdXaXqXV.@ n zX} ; O ,XdXfXtXuXiXgXV.|.AXGXSXSXSX[.-.7.-.=.5 =.6.5.;.&.2.L n.S.J.Q.T.r xXIXIXIXIXIXIXIX",
"IXIXKX-Xy o.N.m @X2X5X5X5X@X XM o ; 1 [ A A ; = 1XgXtXpXgX2Xa M NXGXSXFXGXGX;Xj 4.7.7.1.7.-.e m.U.I.Q.P.L.E.q.].KXIXIXIXIXIXIXIX",
"IXIXIXPXcX{.* {.kX`.a m 0 |.vXhX< C S S ! S 1 .XaXsXrXqX@Xm M v ].NXFXAXJXJXJXxX'.%.>.:.6.5 D.Q.J.J.H.H.Q.F.a zXIXPXLXIXIXIXIXIX",
"IXIXIXIXIXKX=Xn ZXlX* zXp {.HX>X; S A [ S K 5XsXgXeXV.m l 9.M.b p M |.oX>XNXJXJXVXoX%.1.4.5 W.z.K.L.L.L.R.q.t zXIXIXLXIXIXIXIXIX",
"IXIXIXIXIXIXZXn _.B B bXv >X=X/.A S XXjXg 3XfXuXfX5X}.;Xb 0.M p x b B d t d -XmXFXBXN %.5.5 T.K.K.H.L.I.m.i 4 B lXbXZXPXIXLXIXIX",
"IXIXIXIXIXIXIXCX`.s lX|.a >Xn o V ; {.hX@XaXdXuXpX@X^.].b d x 0._.'.M (.].b l 0.lXKXhX6 :.5 c.Q.J.J.J.D.e >.2.@ 7 f N #X:XvXPXIX",
"IXIXIXIXIXIXIXIXPXZX;X* N.@XOXOXXXXXV.N.eXsXrXpXeXm l s s l 0._._.(.s &X-XB B B B xXvX2.5.6.3 b.W.E.F.r %.7.<.3.D.S.w.L 8 a ;XKX",
"IXIXIXIXIXIXIXIXIXZX* XXgXdXfXsXgXgXaXrXpXdXtXdXB.< d * {.{.N _.(.'.0.(._.N (.(.M ].FX9.;.5.6.6 j x.3.&.5.:.1.5 Y.I.L.E.U.r d AX",
"IXIXIXIXIXIXIXIXIXzXX 5XgXuXuXpXsXgXtXtXfXtXgX.X} <X,Xj {._.N ).9.N N B 0.(.(.(.(.h wX'.;.:.:.:.;.<.;.*.5.1.5.=.c.I.P.R.w.@ =XPX",
"IXIXIXIXIXIXIXIXIXbXX OXgXuXeXdXfXuXtXtXuXgXaXo 4X9X0X3Xz n n k | U | { g N _.M.'.t $X9.5.5.;.1.:.1.1.>.>.7.5.2.r R.m.9 p >XFXIX",
"IXIXIXIXIXIXIXIXPXPX^.0 5XdX3XOXgXgXgXgXgXeXg ,XuX9X9XB.d v | j.p.p.l.j.Z.L x _.M {.B i >.5.>.1.7.6.<.4.8.7.1.;.4 e > -XFXPXLXIX",
"IXIXIXIXIXIXIXIXPXPXAXv & k g & m OX2X1XB.@ N.2XV.{ { OX`.< Z.h.a.a.a.s.r.j.{ M B ;X+Xi :.>.5.<.2.4 0 e 4 %.6.6.+ M MXLXPXIXIXIX",
"IXIXIXIXIXIXIXLXIXIXIXLX;X  x $Xx     a V.OXOXC.D.9XyXgX@XH Z.k.i.i.r.` r.p.f.j N M.d i :.>.5.<.e S.E.E.T.m.{ 0   0.vXKXLXIXIXIX",
"IXIXIXIXIXPXIXIXIXPXAXzX}.  _.*X0.^.d j 3XuX0X0XrXeXV.N.j f { @.f.a.a.r._ ) u.| y _.kX2.;.>.5.4.q.I.H.H.H.L.Q.F.n.9 . B bXIXIXIX",
"IXIXIXIXIXIXIXLXbX*XB - D U D 0 (.].(.a <XrX0X0X0X,X_.=Xy 9.c c m  .h.i._ U T H (.NXBX3.:.5.5.2.m.Q.H.H.H.H.L.P.Q.I.C.. b HXIXIX",
"IXIXIXIXIXIXIXlXx w U y.g.k.A.| o.(.c s V.<X<X,XC...v ^.(.)._._.x p Y h.f.H H g xXJXmX9.;.:.5.3.b.!.K.H.H.L.L.L.J.U.x.t =XPXIXIX",
"IXIXIXIXIXIXlX% w Y G A.a.r.d.t.m x [._.f _.< w U P H } b (._.n ^.~.* ( A.I 8 N.AXJXAX'.-.:.:.2.L E.P.I.P.J.F.S.x.@ t lXPXIXIXIX",
"IXIXIXIXIXbXs o.X.+XN.( i.r.i.u...l }.+X>X|.U E g.l.l.f./ g N n -XoXs H a.u.q :XJXGXGXhXh 4.:.6.6 v.F.S.v.x.f r D.x.t zXIXIXIXIX",
"IXIXIXIXPX}./.nX-XKXvXP g.i.d.u.} ~.x ].].{ A.s.r.r.a.k.h.Z.g v B b 0.d e.( o.BXGXGXGXAX[.-.<.<.5.6 e 6 =.,.-.w.E.8Xx.p CXLXLXIX",
"IXIXIXIXZXv zXbX:XNX;XH I a.k.y.} (.B v lX@Xv.( p.a.i.i.r.k._ } N ).'.d I P B bXHXZXGXDXZXoX6 %.5.5.:.:.5.8.&.m.F.F.n.  jXIXIXIX",
"IXIXIXIXbXt =X-X;X X .Z.) ( k.T v '.B ;XIX;Xq Z.d.a.a.i.i.i.p.{ ).).'.d q t.T -XJXDXZXGXJXFX7XM 2 ;.7.1.1.2.4 0 8 a b $XZXIXLXIX",
"IXIXIXIXDX`.& >XLX+Xq f.l.l.y.} x B M vXzX{.`.G k.i.a.s.s.r.j.U (.N d 0 _ h.u.{ zXSXAXAXGXSXHXcX*Xj 2 $.$.+ 4 >XzXcXCXKXPXLXIXIX",
"IXIXIXIXIXzXM cX|.wX;XP Z.G , z &X=Xp v v xXKX1XF / i.a.s.r.u.{ j M *XX.a.i.i.( k BXFXZXAXZXAXJXVXmX7X'.|.>Xv ;XPXIXPXLXLXPXIXIX",
"IXIXIXIXIXvXp   |.PXFXy   * & y &X^.    `.DXKXzXo Z.j.p.d.i.j.X.z M.:X} j.a.r.h.I 0 bXGXSXDXGXCXGXAXFXJXKXHX#X  jXIXIXIXPXIXIXIX",
"IXIXIXIXIXSX-Xp [.6Xa z lXAXAXXXp b lX+X=XDXcXd B XX .g.j.f.Y z a [ H e.k.a.i.a.A._ f hXBXVXAXFXZXHXZXVXZXFX;X  [.KXIXPXPXIXPXIX",
"IXIXIXIXIXIXIXlXa t |.SXIXIXIXIXSXKXIX:Xn /.> g vXLXXXY { X.OXB.| f.i.a.i.h.h.a.i.d.u.D [.kXVXZXZXSXFXAXFXMX[.@ B FXAX|.-XKXIXIX",
"IXIXIXIXIXIXIXKXbXbXPXIXIXIXIXIXIXIXIXZX-X# j ..DXZXoXV.3X9X0X<X| j.d.h.g.l.p.i.i.i.i.p.E U  X:XlXvXbXbXxX=Xc.L B ZXB 7 & 6XIXIX",
"IXIXIXIXIXIXIXIXIXIXIXIXIXIXIXIXIXIXIXIXIX+X< v cXB j V.C.C.V.x.w | / ( / A.( s.i.h.a.a.p.u.( T | m n v j n.R.q.}.hX& Y.{ $XPXIX",
"IXIXIXIXIXIXIXIXIXIXIXIXIXIXIXIXIXIXIXLXIXDX_.X f L w N.V.C.,X<XV.1 | P Y U ( a.a.a.p.a.a.a.h.a.l.Z.U P j C.F.9 {.b x.Q.b.].KXIX",
"IXIXIXIXIXIXIXIXIXIXIXIXIXIXIXIXIXIXLXIXIXIX7X  1 _  .X.C.0X0X9X9XV.H | / ( h.a.a.p.a.a.i.i.i.i.g.Y T l./ P Y H @ * T.H.n.N HXIX",
"IXIXIXIXIXIXIXIXIXIXIXIXIXIXIXIXIXIXPXIXmXoXz q T u.d.( H B.V.V.V.B.f { Z.g.i.h.a.i.i.a.a.i.i.a.g./ / a.l.h.a.g._ L U.E.c.$ -XZX",
"IXIXIXIXIXIXIXIXIXIXIXIXIXIXIXIXIXIXIXlXv w P u.k.d.s.d.u.I w 0 } m.C.} U g.a.a.a.a.a.a.a.a.a.a.a.u.I u.a.i.a.a.k.u.v.{ Y P - 0.",
"IXIXIXIXIXIXIXIXIXIXIXIXIXIXIXIXIXIXzXp 0 w Y l.( u.d.s.s.p.f. .L w ..[ P g.a.a.a.a.a.i.a.a.i.a.a.g.U t.i.h.a.a.a.i.j.f.s.A.H X ",
"IXIXIXIXIXIXIXIXIXIXIXIXIXIXIXIXIXCXv =X+X XX.D H y.s.g.g.a.r.h.Z.q q y.l.i.r.r.i.a.a.i.a.a.a.i.a.a.) Y l.a.d.g.l.k.h.f._ D o '.",
"IXIXIXIXIXIXIXIXIXIXIXIXIXIXIXIXLX-Xt ;XwXIXv hXzXE r.i.k.h.l.E q Z.l.` l.d.k.s.i.a.a.a.i.a.a.a.a.h._ q U P P G F 8 , = o d >XJX",
"IXIXIXIXIXIXIXIXIXIXIXIXIXIXIXPXLX=X  & -X-Xo.IXbX| y.A.y.t. .o._.L D G A.Z./ u.a.i.a.i.a.a.a.a.a.h.p.D # y p p p v [.;XcXKXIXPX",
"IXIXIXIXIXIXIXIXIXIXIXIXIXIXIXIXIXPXcX_.a   n |.v @ < t t # l CXKXN ;XXX| w { A.h.r.i.i.i.a.i.a.a.i.p., {.KXPXKXLXPXIXIXIXIXIXIX",
"IXIXIXIXIXIXIXIXIXIXIXIXIXIXIXIXIXIXIXPXKXlX[._.}.-XlXbXvXn {.ZX}.lXIXZX^.bX6X .l.i.i.i.a.p.a.p.p.j.T : >XIXIXIXIXIXIXIXIXIXIXIX",
"IXIXIXIXIXIXIXIXIXIXIXIXIXIXIXIXIXIXIXIXIXIXPXIXIXIXIXIXKX{.p a X cXCXXXcXIXKX X/ u.u.( ( E I P H q a %XSXIXIXIXIXIXIXIXIXIXIXIX",
"IXIXIXIXIXIXIXIXIXIXIXIXIXIXIXIXIXIXIXIXIXLXIXIXIXIXIXIXIXZXxXXXa b b # :X:X%Xv : q w w f a m [.#X>XcXPXIXIXIXIXIXIXIXIXIXIXIXIX",
"IXIXIXIXIXIXIXIXIXIXIXIXIXIXIXIXIXIXIXIXIXIXIXIXIXIXIXIXIXIXIXKXvXcX6XB n B M.}.-X-XkXzXvXMXSXPXPXPXIXIXIXIXIXIXIXIXIXIXIXIXIXIX"
};
