/* XPM */
static char *e555854e3cc74bfee9871d1fd6412a4fqlMINWlgtlX9lYxg[] = {
/* columns rows colors chars-per-pixel */
"64 64 242 2 ",
"   c #000000",
".  c #060604",
"X  c #1A0001",
"o  c #0E0F14",
"O  c #250400",
"+  c #2A1606",
"@  c #31110E",
"#  c #102219",
"$  c #292718",
"%  c #37261C",
"&  c #2E1623",
"*  c #1A2A30",
"=  c #2A282A",
"-  c #3C2D24",
";  c #352B28",
":  c #3A332B",
">  c #283531",
",  c #393637",
"<  c #5E0003",
"1  c #4C1407",
"2  c #650000",
"3  c #760001",
"4  c #621300",
"5  c #7B1603",
"6  c #4F310C",
"7  c #442B14",
"8  c #4C2B17",
"9  c #452C1D",
"0  c #4A2D1B",
"q  c #502B14",
"w  c #642F00",
"e  c #432E22",
"r  c #492E21",
"t  c #473226",
"y  c #58312F",
"u  c #573B28",
"i  c #473B33",
"p  c #6E2A25",
"a  c #653738",
"s  c #7C570E",
"d  c #4E4134",
"f  c #594537",
"g  c #694627",
"h  c #754C2B",
"j  c #664936",
"k  c #725130",
"l  c #77553A",
"z  c #7C672F",
"x  c #583F43",
"c  c #3C4443",
"v  c #444344",
"b  c #4B494C",
"n  c #574A46",
"m  c #49564F",
"M  c #5B554A",
"N  c #495253",
"B  c #595859",
"V  c #694B45",
"C  c #685649",
"Z  c #785944",
"A  c #695A57",
"S  c #795E55",
"D  c #71604A",
"F  c #686258",
"G  c #756558",
"H  c #525363",
"J  c #745D68",
"K  c #5E6265",
"L  c #686769",
"P  c #77746B",
"I  c #696E73",
"U  c #716E72",
"Y  c #787779",
"T  c #8F1108",
"R  c #B31008",
"E  c #8F2A17",
"W  c #B62F10",
"Q  c #971E28",
"!  c #B10028",
"~  c #912C2A",
"^  c #B53028",
"/  c #CD1A00",
"(  c #D12915",
")  c #FC2E05",
"_  c #FD2E0D",
"`  c #FB330E",
"'  c #E82718",
"]  c #FB2916",
"[  c #FD2D14",
"{  c #FD2C1B",
"}  c #E53414",
"|  c #FC3114",
" . c #F73219",
".. c #D3352A",
"X. c #E92E26",
"o. c #FF2521",
"O. c #FD2D22",
"+. c #F42C2C",
"@. c #E73528",
"#. c #F43525",
"$. c #EC3932",
"%. c #884F11",
"&. c #9E621F",
"*. c #8D582D",
"=. c #865A37",
"-. c #936E30",
";. c #93613A",
":. c #9A6739",
">. c #A26F2B",
",. c #B56B29",
"<. c #B9742B",
"1. c #A56636",
"2. c #A97739",
"3. c #B67639",
"4. c #CF721D",
"5. c #DE413C",
"6. c #E3433C",
"7. c #C67926",
"8. c #C47A35",
"9. c #88574B",
"0. c #896646",
"q. c #976745",
"w. c #8A6C57",
"e. c #957251",
"r. c #977054",
"t. c #A46B47",
"y. c #A57547",
"u. c #B7794A",
"i. c #A77857",
"p. c #BB7D51",
"a. c #8B7166",
"s. c #967967",
"d. c #837879",
"f. c #7E817A",
"g. c #AC8A36",
"h. c #CA8338",
"j. c #D88539",
"k. c #DD9035",
"l. c #EC8F32",
"z. c #FAA23C",
"x. c #B8854B",
"c. c #AF8156",
"v. c #BA8658",
"b. c #BDA858",
"n. c #998169",
"m. c #8C867D",
"M. c #9C8979",
"N. c #AD896C",
"B. c #A88977",
"V. c #B5947A",
"C. c #CB8745",
"Z. c #D88D4E",
"A. c #C68856",
"S. c #ED9749",
"D. c #DBBF5A",
"F. c #EEAB53",
"G. c #C58765",
"H. c #D6AE65",
"J. c #FAC549",
"K. c #F2CA6B",
"L. c #727A82",
"P. c #827D81",
"I. c #7F8887",
"U. c #878788",
"Y. c #928A8A",
"T. c #8C9390",
"R. c #8D9494",
"E. c #969798",
"W. c #9B9B9B",
"Q. c #A89389",
"!. c #A69C96",
"~. c #9DAA9F",
"^. c #ACA29B",
"/. c #B9A696",
"(. c #999DA2",
"). c #9DA8A8",
"_. c #A5A5A6",
"`. c #ABACAC",
"'. c #B0B0AD",
"]. c #ACACB5",
"[. c #ACB4B5",
"{. c #B3B3B4",
"}. c #B8B7B9",
"|. c #BBBBBC",
" X c #CCAC8F",
".X c #C7AC97",
"XX c #D4AE97",
"oX c #D7B599",
"OX c #EABE9C",
"+X c #F5BF98",
"@X c #CCB3A1",
"#X c #D6B7A4",
"$X c #C8B7B2",
"%X c #E9BEA6",
"&X c #AFC3B0",
"*X c #B2C2B4",
"=X c #BAC7BC",
"-X c #F0C88F",
";X c #E7C599",
":X c #EDC19D",
">X c #F7C297",
",X c #F2C29C",
"<X c #D2C3B2",
"1X c #EDC4A3",
"2X c #EAC6A8",
"3X c #F2C4A2",
"4X c #F9C8A6",
"5X c #F2CAAA",
"6X c #EECBB1",
"7X c #B8BDC1",
"8X c #C1BEC4",
"9X c #BEC4C3",
"0X c #C5C8C9",
"qX c #CBCBCC",
"wX c #CFCFD0",
"eX c #CBD3D3",
"rX c #D4D4D5",
"tX c #D6D8D9",
"yX c #DBDBDC",
"uX c #E4DEC9",
"iX c #E3DEDC",
"pX c #DCE1DC",
"aX c #DADDE0",
"sX c #E2DFE2",
"dX c #DCE4E4",
"fX c #E2E3E3",
"gX c #E6E9E9",
"hX c #EBEBEC",
"jX c #F1ECED",
"kX c #EBF3EF",
"lX c #F2F2ED",
"zX c #EEEEF1",
"xX c #F2EEF2",
"cX c #EDF2F3",
"vX c #ECF8F7",
"bX c #F3F4F3",
"nX c #F6F8F6",
"mX c #FCFCF6",
"MX c #FBF6FA",
"NX c #F5FCFC",
"BX c #FEFEFE",
"VX c white",
/* pixels */
"VXVXVXVXVXVXVXVXVXVXVXVXVXVXVXVXVXVXVXBXBXNXlXhXgXfXfXyXgXbXMXVXVXVXBXBXVXVXVXVXVXVXVXVXVXVXVXVXVXVXVXVXVXVXVXVXVXVXVXVXVXVXVXVX",
"VXVXVXVXVXVXVXVXVXVXVXVXVXVXVXVXVXVXVXdX9X`.T.Y.m.Y.`.{.W.L.W.|.fXVXVXVXVXVXVXVXVXVXVXVXVXVXVXVXVXVXVXVXVXVXVXVXVXVXVXVXVXVXVXVX",
"VXVXVXVXVXVXVXVXVXVXVXVXVXVXBXVXvXeX(.I a ~ ~ Q Q p A ].tX0XT.B B ^.aXVXVXVXVXVXBXBXVXBXVXVXVXVXVXVXVXVXVXVXVXVXVXVXVXVXVXVXVXVX",
"VXVXVXVXVXVXVXVXVXmXmXVXMXmXMXrX(.c 4 R ( @.$.$.+.+.( 9._.lXnXfX|.U b ).gXVXnXNXBXBXNXNXVXmXmXVXVXVXVXVXVXVXVXVXVXVXVXVXVXVXVXVX",
"VXVXVXVXVXVXVXVXVXmXVXVXVXlX_.Y B E ..+. .|  .[ ] ] #.( a }.NXVXMXzX7XN B qXVXVXBXMXBXBXBXBXNXBXVXVXVXVXVXVXVXVXVXVXVXVXVXVXVXVX",
"VXVXVXVXVXVXVXVXVXmXBXVXhXR.T.W.~ X.+.{ | [ [ [ { o.| #.R L.fXVXNXVXVXiXL > }.NXVXMXMXBXVXVXVXVXVXVXVXVXVXVXVXVXVXVXVXVXVXVXVXVX",
"VXVXVXVXVXVXVXVXVXBXVXcXE.~.=XE ' ] [ _ ` [ [ [ { o.[ ` / J tXmXVXNXmXBXhXT.o ).vXVXBXBXBXBXVXVXVXVXVXVXVXVXVXVXVXVXVXVXVXVXVXVX",
"VXVXVXVXVXVXVXVXNXmXMX_.Y yXP R O.| | [ [ [ { { ] o._ ` / J tXVXVXNXNXMXVXvX).o _.BXBXmXBXBXVXVXVXVXVXVXVXVXVXVXVXVXVXVXVXVXVXBX",
"VXVXVXVXVXVXVXBXbXVXwXv sXrX< .. . .[ ] ] {  .{ { { ] O.R I yXBXVXNXBXBXvXvXY.2 V 0XNXVXBXmXVXVXVXVXVXVXVXVXVXVXVXVXVXVXVXVXVXbX",
"VXVXVXVXVXVXVXVXVXbXY.[.VX}.3 X.| [ ] ] {  .[ | | ]  .@.T E.kXVXVXNXBXmXNX[.3 5.W U dXVXBXBXBXVXVXVXVXVXVXVXVXVXVXVXVXVXVXVXVX=X",
"VXVXVXVXVXVXVXVXVXyXK kXMX7X2 @.{ ] [ {  .[ _ _ _ ] X.R b 0XVXNXNXVXBXBXdX  ..o.X.3 R.NXVXBXNXBXVXVXVXVXVXVXVXVXVXVXVXVXVXVXVX&X",
"VXVXVXVXVXVXVXVXVX_.T.VXMXqX@ ^ #.[ [  .[ [ [ [ [ @.^ y `.vXBXVXBXmXBXBXU.5 #.o.{ W n 0XVXVXBXBXVXVXVXVXVXVXVXVXVXVXVXVXVXVXVX*X",
"VXVXVXVXVXVXVXVXMXB qXVXVXhXd.< ..@. . .] ] { #...T + ^.hXVXMXNXBXVXVXhXB ^ | o.{ } T (.xXMXBXBXVXVXVXVXVXVXVXVXVXVXVXVXVXVXVX*X",
"VXVXVXVXVXVXVXVXhX  yXBXMXBXtXn < Q ( ' ' } ( T < n '.nXBXBXmXVXVXBXVXdXn .._ { | @.^ L.fXVXBXVXVXVXVXVXVXVXVXVXVXVXVXVXVXVXVX*X",
"VXVXVXVXVXVXVXVXeX= gXBXBXBXBXrXU.H y 5 5 p n I W.rXNXVXNXNXmXVXVXBXBX9Xa $._ ] ` | ' w.qXVXVXVXVXVXVXVXVXVXVXVXVXVXVXVXVXVXVX*X",
"VXVXVXVXVXVXVXVXqX= gXVXBXVXNXBXhXrX7X].].7XqXdXcXVXBXVXBXBXBXBXVXBXVXqXa $.) | _ _ ' ~ 7XNXVXVXVXVXVXVXVXVXVXVXVXVXVXVXVXVXVX*X",
"VXVXVXVXVXVXVXVXtXo sXVXVXVXVXNXmXmXBXMXMXmXVXBXVXBXBXmXVXBXBXNXVXVXVXaXn .._ ] [ _  .Q [.nXBXVXVXVXVXVXVXVXVXVXVXVXVXVXVXVXVX*X",
"VXVXVXVXVXVXVXVXzX  qXVXVXVXVXVXmXmXVXMXNXBXBXmXNXBXBXBXBXVXNXBXBXVXVXjXB ^  .{ { _  .R _.bXNXBXVXVXVXVXVXVXVXVXVXVXVXVXVXVXVX*X",
"VXVXVXVXVXVXVXVXVXU W.VXVXVXVXMXVXBXBXVXmXNXBXBXBXBXBXVXBXVXmXmXBXNXVXVXU.5 #.o.o.| } T ).bXNXVXVXVXVXVXVXVXVXVXVXVXVXVXVXVXVX*X",
"BXVXVXBXVXVXVXNXVX|.B bXVXnXnXmXBXMXbXvXbXmXMXVXmXNXVXVXBXBXMXNXVXnXmXVX0XO ..{ { _ } E ).vXBXVXVXVXVXVXVXVXVXVXVXVXVXVXVXVXVX*X",
"VXBXVXBXVXVXVXVXMXhXN ].VXBXMXyX[.U.I K L Y U.].0XgXbXVXnXVXVXMXVXVXmXVXBXm.3 @.{ _ } p |.NXVXBXVXVXVXVXVXVXVXVXVXVXVXVXVXVXVX*X",
"MXBXBXBXVXVXVXVXBXnX{., rXVXNXbX|.c , n M f =   o v L.0XlXVXBXVXVXVXVXNXmXkXm.T @. ...V 0XVXNXVXVXVXVXVXVXVXVXVXVXVXVXVXVXVXVX}.",
"`.nXVXVXVXVXVXVXBXBXcXY A gXVXfXY A .X%X,X1XoX/.B.G ;   U qXlXmXBXVXVXnXbXVXxX_.E ..^ U yXVXBXVXVXVXVXVXVXVXVXVXVXVXVXVXVXVXVX&X",
"T.bXVXMXVXVXVXVXVXVXVXgXY L tX}., !.M.OX>X>X>X5X#X<X@XQ.n . m.rXNXBXVXVXMXVXVXNXwXM.O E.hXVXMXVXVXVXVXVXVXVXVXVXVXVXVXVXVXVXVX&X",
"fXVXVXNXVXVXVXVXBXBXBXVXgXU., c P._.M XXOX,X3XXXr #X5X2X<XB.= * <XvXBXBXBXnXnXgXeXT.: $XVXmXnXBXVXVXVXVXVXVXVXVXVXVXVXVXVXVXVX*X",
"VXMXmXVXVXVXVXVXBXBXVXBXVXbXE.@ /.!.G @X2X1X4Xn.o #X,X-X-X5X.XA c eXnXVXVXvX/.q 1 w z s.@XuXbXVXVXVXVXVXVXVXVXVXVXVXVXVXVXVXVXkX",
"MXVXVXVXVXVXVXVXBXBXBXVXVXVXeXZ oXXX.X%X1X,X4Xc.M 6X1X>X>X>X5X/.I ~.pXhXgXdX6 t.q.t.2.*.s r.iXVXVXVXBXBXVXVXBXVXVXVXVXVXVXVXVXVX",
"VXVXVXVXVXVXVXVXVXBXVXVXVXnX_.w.OX3X3X4X+X>X>X X X5X,X,X,X>X4X.XK f.Y d.U.T.u y.&.;.>.>.&.s.sXVXVXBXBXBXVXVXBXBXVXVXVXVXVXVXVXVX",
"VXVXVXVXVXVXVXVXVXVXVXVXVXkXT.s.3X,X:X3X+X3X,X,X4XOX,X,X,X3X1XB.l h %.%.k g l =.x.8.<.8.%.|.mXVXVXVXBXBXVXBXBXBXVXVXVXVXVXVXVXVX",
"VXVXVXVXVXVXVXVXVXVXVXBXBXhXU.s.3X,X,X1X%X2X2X2X,X,X,X,X,X5XXXl u.u.C.C.i.e.:.-.j.l.4.l.s /.nXVXVXVXBXBXBXBXBXBXVXVXVXVXVXVXVXVX",
"VXVXVXVXVXVXVXVXVXVXVXBXVXbXR.a.1X+XOX3X1X2X/.XX3X,X,X:X:X5X1Xw.,.3.1.,.3.h h x.S.l.l.k.g.e.}.kXmXVXBXVXBXBXBXBXVXVXVXVXVXVXBXBX",
"VXVXVXVXVXVXVXVXVXVXVXVXVXVX{.Z OX5XXXV.V.V.n.B.:X:X,X,X1X1X6XB.:.2.Z.j.S.%.z A.j.<.7.<.u.y.Z P !.'.|.qXkXmXBXVXVXVXVXVXVXVXBXBX",
"VXVXVXVXVXVXVXVXVXVXVXVXmXVXyXM /.6X2X;XOX%X2XXXOX3X+X3X:X5XoXG y.:.Z.j.F.<.1.;.h.7.<.7.4.h.x.6 i B M n `.VXBXVXVXVXVXVXVXVXVXBX",
"VXVXVXVXVXVXVXVXVXVXVXVXVXVXbX`.j @X6X;X,X+X%X4X3XOX3X,X5X%Xa.*.C.3.3.8.u.<.3.g &.C.Z.Z.C.3.=.V M ; $ n ^.mXVXVXVXVXVXVXVXVXBXBX",
"VXVXVXVXVXVXVXVXVXVXVXVXVXBXBXgXm.d .X6X5X5X%X+X,X>X4X5XXXs.l A.<.,.C.8.8.<.1.2.k l ;.=.l D F M d j % C ^.BXVXVXBXVXVXVXVXVXBXBX",
"VXVXVXVXVXVXVXVXVXVXVXVXVXVXVXVXcXU.O P F D %X%X,X;XV.x , # 8.S.S.j.,.&.,.8.S.S.c.f y V w.f > j 0.;.u d !.NXBXVXVXVXVXVXVXVXBXBX",
"VXVXVXVXVXVXVXVXVXVXVXVXVXVXVXBXVXbX!.M s.s.u !.}.U.  , n D u.C.l.l.z.z.z.S.C.q.j g A L ; p ;.1.;.;.d % E.mXNXVXVXVXVXVXVXVXBXBX",
"VXVXVXVXVXVXVXVXVXVXVXVXVXVXVXBXmXVX`.@X5X4X#XM . $ f r.s.Z f f k g h ;.0.g # f l V f k ;.1.1.;.Z g - n !.mXVXVXBXVXVXVXVXVXBXBX",
"VXVXVXVXVXVXVXVXVXVXVXVXVXVXVXmXVXzXE.@X;X-X1X2Xa.M j i.u.u.i.i.t.t.9.l V A = d k =.1.1.>.;.Z f g 9.d f Q.mXmXmXVXVXVXVXVXVXBXBX",
"VXVXVXVXVXVXVXVXVXVXVXVXVXVXVXBXVXcX(.@X;X-X>X4XoXM , r.v.A.Z.G.G.N.A.i.9.N.O Z q.:.:.*.k f g =.:.t.g e E.NXNXVXVXVXVXVXVXBXBXBX",
"VXVXVXVXVXVXVXVXVXVXVXVXVXVXVXBXVXVX(.P oX4X+X+X3X@XM V 0.0.e.i.v.v.A.i.=.V.  G q.*.g j j V =.=.l =.F Y <XNXNXBXVXVXVXVXVXVXBXBX",
"VXVXVXVXVXVXVXVXVXVXVXVXVXVXVXBXBXiXd.. G XX1X4X-X2X.Xj n d > d f k l =.l G # n f u j =.l u ; = ; X L.dXBXBXmXmXVXVXVXVXVXVXBXBX",
"VXVXVXVXVXVXVXVXVXVXVXBXBXBXVXVXnX!.E ~ @ c M.oX%X2X4X XV.B.M.w.9.Z Z V j i d u h =.9.j ; = : : : - * 7XBXNXVXBXVXVXVXVXVXVXBXBX",
"VXVXVXVXVXVXVXVXVXVXVXBXBXBXBXVXrXJ / 6.p 6 e.G Q.oX3X,XOX1XoXV.e.N.A.x.t.0.G h 1.0.a ; - e e 9 9 e + B hXBXNXBXVXVXVXVXVXVXBXBX",
"VXVXVXVXVXVXVXVXVXVXVXVXBXVXVXvX).Q #.6.4 z D.2.m G  X5X,X1XV.Z i.N.A.A.q.9.w.k q.j % 9 r 0 e 9 0 e - v fXBXBXVXVXVXVXVXVXVXBXBX",
"VXVXVXVXVXVXVXVXVXVXVXBXBXNXVXtXc 3 ! 5 . -.J.g.m   r.6X5X4X.Xa.Z h 0.a.w.f 6 1 l 0 9 r 0 0 e 9 9 e ; v fXVXVXVXVXVXVXVXVXVXBXBX",
"VXVXVXVXVXVXVXVXVXVXVXBXBXBXmX`.g.H.b.b.g g.J.-.* '.^.s.#X#X#X!.b H .       T.(.X % e 8 0 9 0 9 0 e - b gXBXBXVXVXVXVXVXVXVXBXBX",
"VXVXVXVXVXVXVXVXVXVXVXBXBXBXpXF -.b.g.D.z x.K.z T.mXfXd.- C i n qXnXvXgXeXaXcXT.  t 0 0 0 9 9 7 0 e $ B bXBXBXBXVXVXVXVXVXVXBXBX",
"VXVXVXVXVXVXVXVXVXVXVXVXBXVXtX$   & & 7 9 i 0.6 [.VXVXxXqX{.T.`.lXmXmXVXmXVXsXv + t 0 0 9 9 9 0 0 t   Y.mXBXBXBXVXVXVXVXVXVXBXBX",
"VXVXVXVXVXVXVXVXVXVXVXBXBXBXbX|.P a 4 3 2 & I T.dXVXMXBXVXVXMXxXiXqXnXmXBXVXtXo - 0 8 0 - - 9 0 0 e   |.VXVXBXVXVXVXVXVXVXVXBXBX",
"VXVXVXVXVXVXVXVXVXVXVXVXBXBXMXVXnXiXqX|._., [.VXmXmXnXVXVXNXVXVXVX{.rXVXBXBXyXo e e 8 0 e - 9 0 0 O A cXVXVXVXBXVXVXVXVXVXVXBXVX",
"VXVXVXVXVXVXVXVXVXVXVXVXVXVXVXVXVXVXVXVXMXE.Y MXVXMXBXVXVXVXVXMXVXbXhXmXMXBXrX  t e 0 0 0 0 0 0 e X 0XVXVXVXBXBXVXVXVXVXVXVXBXBX",
"VXVXVXVXVXVXVXVXVXVXVXVXVXVXVXVXBXBXBXMXVXrX= 7XNXVXVXVXVXVXVXVXmXBXBXBXMXgXL v ; e r 8 8 0 r 9 O U.nXBXBXVXBXBXVXVXVXVXVXVXBXVX",
"VXVXVXVXVXVXVXVXVXVXVXVXVXVXVXVXBXBXVXVXVXfXI > qXhXnXVXVXVXVXVXVXBXbXdXqXv `.qXM O e r 9 0 % + F fXVXBXBXVXmXBXVXVXVXVXVXVXVXNX",
"VXVXVXVXVXVXVXVXVXVXVXVXVXVXVXVXVXBXVXbX0XL., + = ).qXfXgXlXcXhXfXeX[.E.T.yXVXVX'.; X + + X X Y tXVXVXNXBXBXnXBXVXVXVXVXVXVXVXBX",
"VXVXVXVXVXVXVXVXVXVXVXVXVXVXVXVXVXVXMX[.= X - : $   = L U.E.E.U.L N `.rXNXVXVXVXxX}.Y B K I _.fXVXVXVXVXBXVXBXBXVXVXVXVXVXVXBXBX",
"VXVXVXVXVXVXVXVXVXVXVXVXVXVXVXVXVXVXrXB + : e r e e % X           , fXVXVXVXVXBXBXMXdXtXtXdXMXBXVXVXVXVXBXVXBXVXVXVXVXVXVXVXBXBX",
"VXVXVXVXVXVXVXVXVXVXVXVXVXVXVXVXVXVX`., : e 8 q 0 7 9 r e e e e % X qXMXVXNXBXBXBXVXVXVXVXVXBXBXBXBXBXBXVXVXVXVXVXVXVXVXVXVXBXBX",
"VXVXVXVXVXVXVXVXVXVXVXVXVXVXVXVXVXnXW.; - r q q 0 0 0 0 0 r 9 t + % yXVXBXBXBXmXmXBXBXBXVXmXBXBXBXBXBXBXVXVXVXVXVXVXVXVXVXVXVXBX",
"VXVXVXVXVXVXVXVXVXVXVXVXVXVXVXmXVXnX(., - 9 8 q 8 0 0 0 0 0 r e   W.bXVXBXVXBXVXBXBXVXVXVXVXVXVXVXVXVXVXVXVXVXVXVXVXVXVXVXVXVXVX",
"VXVXVXVXVXVXVXVXVXVXVXVXVXVXVXVXVXVXqXv % t r 0 0 0 9 e t 9 O   U.gXBXVXBXBXBXBXVXVXVXVXVXVXVXVXVXVXVXVXVXVXVXVXVXVXVXVXVXVXVXVX",
"VXVXVXVXVXVXVXVXVXVXVXVXVXVXVXVXMXBXnX{.= . + % e - % + .   B }.bXMXMXBXBXBXVXVXVXVXVXVXVXVXVXVXVXVXVXVXVXVXVXVXVXVXVXVXVXVXVXVX",
"VXVXVXVXVXVXVXVXVXVXVXVXVXVXVXBXVXBXVXMXsX_.L i $ ; b P W.0XgXNXVXVXVXVXVXVXVXVXVXVXVXVXVXVXVXVXVXVXVXVXVXVXVXVXVXVXVXVXVXVXVXVX",
"VXVXVXVXVXVXVXVXVXVXVXVXVXVXVXVXVXVXVXVXVXMXbXjXhXhXbXnXNXBXVXBXVXVXVXVXVXVXVXVXVXVXVXVXVXVXVXVXVXVXVXVXVXVXVXVXVXVXVXVXVXVXVXVX"
};
