/* XPM */
static char *ecafd8eb5cbc4a45b79074d35d01c448i0sHHS9Jl996uyA9[] = {
/* columns rows colors chars-per-pixel */
"64 64 239 2 ",
"   c #000000",
".  c #0B0000",
"X  c #160001",
"o  c #1C0301",
"O  c #0B0D1A",
"+  c #240100",
"@  c #2C0F0C",
"#  c #291B18",
"$  c #351D16",
"%  c #2E2715",
"&  c #3E2116",
"*  c #35231C",
"=  c #3C231B",
"-  c #030624",
";  c #1D1D23",
":  c #000135",
">  c #00163B",
",  c #291F22",
"<  c #15222F",
"1  c #282525",
"2  c #382725",
"3  c #362F31",
"4  c #37383A",
"5  c #412013",
"6  c #41231A",
"7  c #44331A",
"8  c #412923",
"9  c #542A26",
"0  c #433B38",
"q  c #37413E",
"w  c #554730",
"e  c #695830",
"r  c #000F49",
"t  c #002748",
"y  c #1D2843",
"u  c #002B5B",
"i  c #043557",
"p  c #293649",
"a  c #373D4A",
"s  c #253551",
"d  c #093766",
"f  c #003B63",
"g  c #023967",
"h  c #403E40",
"j  c #00435F",
"k  c #2F4257",
"l  c #364759",
"z  c #004269",
"x  c #194767",
"c  c #00457B",
"v  c #014C79",
"b  c #174A75",
"n  c #00537D",
"m  c #15587E",
"M  c #27486A",
"N  c #394B64",
"B  c #2C4D73",
"V  c #484747",
"C  c #564B4A",
"Z  c #575549",
"A  c #4C4E56",
"S  c #525152",
"D  c #5A5654",
"F  c #575659",
"G  c #5C5A5C",
"H  c #665B4D",
"J  c #615D59",
"K  c #5D605F",
"L  c #776645",
"P  c #6A6358",
"I  c #77685A",
"U  c #4B5666",
"Y  c #585C65",
"T  c #665F61",
"R  c #5E656C",
"E  c #686768",
"W  c #786C66",
"Q  c #726E6C",
"!  c #6D706E",
"~  c #79726C",
"^  c #6A6C75",
"/  c #716E74",
"(  c #6C7073",
")  c #757374",
"_  c #7C7573",
"`  c #79787A",
"'  c #A2150B",
"]  c #A5362A",
"[  c #C73B2A",
"{  c #917A3F",
"}  c #877455",
"|  c #897267",
" . c #89786D",
".. c #857973",
"X. c #897B73",
"o. c #817C7C",
"O. c #B79338",
"+. c #C3AC36",
"@. c #A58D49",
"#. c #AB9151",
"$. c #AC9658",
"%. c #99886A",
"&. c #87837D",
"*. c #948479",
"=. c #B0976C",
"-. c #BBAA68",
";. c #DBA652",
":. c #C6B050",
">. c #C8AD6A",
",. c #004C87",
"<. c #00558B",
"1. c #035888",
"2. c #165D87",
"3. c #025A98",
"4. c #105693",
"5. c #07629B",
"6. c #176698",
"7. c #24669A",
"8. c #005DA2",
"9. c #0367A8",
"0. c #0C6EAD",
"q. c #176BA6",
"w. c #156CAC",
"e. c #0A73AC",
"r. c #1572AC",
"t. c #036EB4",
"y. c #076FB8",
"u. c #186EB4",
"i. c #0372B5",
"p. c #0B72B5",
"a. c #0273BC",
"s. c #0B72BA",
"d. c #0078BC",
"f. c #1371B4",
"g. c #1073BB",
"h. c #226EA7",
"j. c #2170A1",
"k. c #797D85",
"l. c #0173C3",
"z. c #0377C3",
"x. c #0970C4",
"c. c #0075CA",
"v. c #867E82",
"b. c #7C8286",
"n. c #838285",
"m. c #898786",
"M. c #8C8C8D",
"N. c #978C89",
"B. c #92918B",
"V. c #9B948D",
"C. c #8D8F91",
"Z. c #8F9192",
"A. c #939493",
"S. c #9B9494",
"D. c #9A9799",
"F. c #9C9B9B",
"G. c #A9948B",
"H. c #AB9989",
"J. c #A69B94",
"K. c #A29C9B",
"L. c #A3A39D",
"P. c #B3A39B",
"I. c #BBA89A",
"U. c #9D9EA1",
"Y. c #9EA3A8",
"T. c #A8A5A4",
"R. c #A9A7A9",
"E. c #ACACAD",
"W. c #B6AEA7",
"Q. c #B8B3AC",
"!. c #AFB0B3",
"~. c #B3B3B3",
"^. c #B9B6B6",
"/. c #BDB9B4",
"(. c #BCBCBC",
"). c #C4978C",
"_. c #C5AD9B",
"`. c #C7B6A9",
"'. c #D0B9AD",
"]. c #D9B8AB",
"[. c #C7BCB5",
"{. c #BEC2BE",
"}. c #DBC8AD",
"|. c #C4C2BD",
" X c #DAC7BA",
".X c #DCC8B9",
"XX c #E7CAB7",
"oX c #E5CCBB",
"OX c #E9D1BA",
"+X c #F8D6B8",
"@X c #FCDCBE",
"#X c #BABEC0",
"$X c #BEC4C5",
"%X c #C3C3C3",
"&X c #C5C7C9",
"*X c #CCCCCC",
"=X c #D4CEC8",
"-X c #D2D1CD",
";X c #CBCFD1",
":X c #D3D2D3",
">X c #D8D8D8",
",X c #DBDBDC",
"<X c #EACDC4",
"1X c #EBD4C4",
"2X c #E9D8CB",
"3X c #FAD7C5",
"4X c #F4DAC6",
"5X c #FCDBC3",
"6X c #F5DCCC",
"7X c #FBDCCB",
"8X c #E0DFDE",
"9X c #F4DCD3",
"0X c #DEE0DC",
"qX c #F9E2C7",
"wX c #FCE2CD",
"eX c #E4E2DE",
"rX c #FDE4D3",
"tX c #F9E3D7",
"yX c #DDDFE1",
"uX c #E1DEE1",
"iX c #DEE2E3",
"pX c #E3E3E3",
"aX c #EBE9E6",
"sX c #E5E7E8",
"dX c #ECECEB",
"fX c #F1EFEB",
"gX c #F3F2ED",
"hX c #FAF8EE",
"jX c #EEEEF1",
"kX c #F1EDF1",
"lX c #ECF6F6",
"zX c #F4F4F4",
"xX c #F5F9F6",
"cX c #FDFDF6",
"vX c #F5F6F8",
"bX c #F6FBFC",
"nX c #FAFEFE",
"mX c #FDFEFD",
"MX c white",
/* pixels */
"MXMXMXMXMXMXMXMXMXMXMXMXMXMXMXMXMXMXMXmXmXmXMXmXbXMXMXMXMXMXMXMXMXmXMXmXmXbXMXMXmXmXmXMXMXMXMXMXMXMXMXMXMXMXMXMXMXMXMXMXMXMXMXMX",
"MXMXMXMXMXMXMXMXMXMXMXMXMXMXMXMXMXMXmXmXMXmXMXbXzXdXpXiX,XiXeXeXaXgXxXMXmXMXMXbXmXmXmXMXMXMXMXMXMXMXMXMXMXMXMXMXMXMXMXMXMXMXMXMX",
"MXMXMXMXMXMXMXMXMXMXMXMXMXMXMXmXMXmXMXMXmXyX(.W.A.&.! ! ! ! Q Q &.V.T.^.*XeXgXMXMXMXcXMXMXMXMXMXMXMXMXMXMXMXMXMXMXMXMXMXMXMXMXMX",
"MXMXMXMXMXMXMXMXMXMXMXMXMXMXMXMXMXMXMX>Xn.v.D.a i v <.3.8.3.3.3.<.1.B A D W M.~.yXmXMXMXmXMXMXMXMXMXMXMXMXMXMXMXMXMXMXMXMXMXMXMX",
"MXMXMXMXMXMXMXMXmXmXMXMXmXbXMXMXMXxXT.J E.dX;Xt 1.q.a.a.a.a.l.l.l.t.t.t.9.<.z p A S.uXMXMXMXcXMXMXMXmXMXMXMXMXMXMXMXMXMXMXMXMXMX",
"MXMXMXMXMXMXMXMXmXmXMXbXbXmXbXMXiXm.F.aXmXmX>Xp v f.l.d.a.a.l.a.a.a.l.l.d.p.r.2.s _ _ R.dXMXcXMXmXMXMXMXMXMXMXMXMXMXMXMXMXMXMXMX",
"MXMXMXMXMXMXMXMXmXmXbXmXMXMXMXyX` $XzXMXbXmXpXG f u.l.l.a.a.a.a.t.p.a.l.z.d.e.5.U ;XdXT.^ >XMXMXMXmXMXMXMXMXMXMXMXMXMXMXMXMXMXMX",
"MXMXMXMXMXMXMXMXmXMXmXMXcXMXaX` %XbXbXmXmXcXgXb.t q.x.c.l.a.a.a.a.y.a.l.z.l.i.1.^ ,XMXmX&XG ;XmXMXmXMXMXMXMXMXMXMXMXMXMXMXMXMXMX",
"MXMXMXMXMXMXMXcXmXbXmXmXmXbXS.^.MXcXMXmXmXcXvX[.: 4.g.z.c.l.a.l.a.i.a.c.c.x.0.g D.zXMXmXmX>XR yXMXmXMXMXMXMXMXMXMXMXMXMXMXMXMXMX",
"MXMXMXMXMXMXmXcXmXmXbXmXmX%Xp ( *XvXMXcXMXzXmXsX( i q.p.l.z.l.l.l.l.l.l.a.0.<.S *XzXcXcXMXMX;XV fXMXmXMXMXMXMXMXMXMXMXMXMXMXMXMX",
"MXMXMXMXMXMXMXmXbXmXmXmXfXZ.t u   Y :XxXcXMXMXmX-Xk j 6.0.l.l.l.l.l.l.s.q.2.p E.vXmXmXmXMXMXMXD.A.MXmXMXMXMXMXMXMXMXMXMXMXMXMXMX",
"MXMXMXMXMXMXmXMXMXmXmXcX-XU 1.q.6.u < W.gXMXbXmXcX{.S i 3.0.s.a.s.s.s.9.1.p F.dXmXbXbXmXMXvXzXpX3 ,XmXMXMXMXMXMXMXMXMXMXMXMXMXMX",
"MXMXMXMXMXMXMXbXmXmXmXhXW.z e.a.s.r.n - T.mXcXbXmXmX:Xn.a z ,.<.<.,.v d W ~.gXMXmXmXmXvXeX/.S.v.A T.cXMXmXMXMXMXMXMXMXMXMXMXMXMX",
"MXMXMXMXMXMXMXmXcXmXMXaX&.,.a.l.l.z.e.m < *XmXcXcXMXMXdX#XA.` ^ R ( M.R.,XMXmXmXmXcXaX^.E r r g z ` gXMXnXmXmXMXMXMXMXMXMXMXMXMX",
"MXMXMXMXMXMXMXMXcXmXmX,XK 3.s.l.l.l.a.q.d n.zXMXMXMXMXMXMXzXpX>X,XyXzXmXMXcXmXbXmXeX*.> c 5.q.u.9.U ,XMXMXmXmXMXMXMXMXMXMXMXMXMX",
"MXMXMXMXMXMXMXMXcXmXMX;Xk 8.l.a.l.c.z.s.6.V -XMXMXMXMXMXMXMXMXmXMXmXmXmXMXcXbXmXpXm.> <.p.l.l.l.s.N =XMXmXcXmXMXMXMXMXMXMXMXMXMX",
"MXMXMXMXMXMXMXmXcXmXmX%Xi 9.l.l.a.c.c.a.0.s Q.MXMXMXMXMXMXmXmXmXmXcXmXmXMXmXMXxXE.t 1.g.c.d.a.z.y.M [.MXmXmXbXMXMXMXMXMXMXMXMXMX",
"MXMXMXMXMXMXMXMXcXmXxX~.g t.l.a.a.l.c.l.e.x K.MXMXMXMXmXmXMXMXmXmXmXmXMXMXMXMX,XE c u.c.l.i.e.a.t.M T.MXmXmXmXMXMXMXMXMXMXMXMXMX",
"MXMXMXMXMXMXMXMXcXmXvXE.u i.l.a.a.l.l.l.u.d M.vXMXmXmXmXmXmXMXmXcXmXMXMXmXMXxXQ.t 9.l.l.a.a.a.a.i.M T.MXMXmXmXmXMXMXMXMXMXMXMXMX",
"MXMXMXMXMXMXMXMXmXmXvXE.u i.l.l.a.y.l.l.u.M K.MXMXmXmXmXmXMXmXmXMXmXMXmXcXmXgXB.u 0.l.s.i.l.c.l.l.B E.MXMXcXcXmXMXMXMXMXMXMXMXMX",
"MXMXMXMXMXMXMXmXmXMXvX!.i 9.l.c.l.i.i.d.9.k ~.mXMXmXmXmXmXcXmXMXmXmXmXcXMXMXeX_ g s.c.s.y.d.l.a.s.M [.MXbXMXcXmXMXMXMXMXMXMXMXmX",
"MXMXMXMXMXMXmXmXMXMXMX%Xi 5.c.l.l.a.l.t.q.V -XMXMXMXMXmXMXmXmXmXMXmXmXMXMXMXaXQ g s.c.c.y.a.a.a.t.N =XMXmXcXcXmXMXMXMXMXMXMXmXmX",
"MXMXMXMXMXMXmXmXMXMXMX:Xl 9.l.y.l.z.l.h.d v.vXMXbXMXMXMXmXMXmXmXMXmXmXmXMXMXsX/ g 0.c.c.l.a.d.a.0.U ,XMXbXMXMXmXMXMXMXMXMXMXmXmX",
"MXMXMXMXMXMXMXMXmXbXMXpX/ ,.a.i.l.z.f.b a *XMXjX,X-X*X%X[.&X:XpXaXmXbXMXMXMXkXC.t w.l.c.l.l.a.l.q.^ gXMXMXMXMXMXMXMXMXMXMXMXMXcX",
"MXMXMXMXMXMXMXmXMXbXmXgXD.g 0.d.p.w.v 0 L.aX!.( C I X.*.X.X.~ W _ K./.>XfXmXxX~.: 5.f.l.l.a.l.y.2.M.MXcXMXmXMXMXMXMXMXMXMXMXmXcX",
"MXMXMXMXMXMXMXMXMXbXmXcX&XA <.q.4.u S ~.|.) 2 P.oX4X6XwXrX6X2X2X X`.G...o.(.gX,XY g h.p.a.a.a.u.k !.MXcXmXbXmXMXMXMXMXMXMXMXmXcX",
"MXMXMXMXMXMXMXcXMXMXmXcXpXb.t i p E ,X%X~.E.P.rX5X6X1X1X6X5X7X7XwX6XwX6X`.D S.aXE.> m q.a.l.a.7.k ,XbXMXcXMXMXMXMXMXMXMXMXmXmXbX",
"MXMXMXMXMXMXMXcXmXmXmXmXMX#X3 n.^.aXMXdXMXo.oX5X5X6XP.| oX5X+X6X`._.5X5XtX XV (.yXn.> 1.e.s.f.g ..cXbXcXmXMXmXmXMXMXMXMXMXmXmXmX",
"MXMXMXMXMXMXMXmXmXMXmXcXmXgXA.T.cXmXbXMXpXW 7X5X@X1Xn.C }.@X@X3Xw H 4X7X5XXXV.%XzX,Xv.: f 2.2.  -XMXmXmXMXMXMXMXMXMXMXMXMXMXMXmX",
"MXMXMXMXMXMXMXmXMXMXmXmXmXMXsXB./.xXmXmXyX} 7X+X5XOX..Z XX7X7X.X1 D 1X7X@XOXJ.*XMXmXsXE.G p   D.MXMXmXmXMXMXMXMXMXMXMXMXMXMXmXmX",
"MXMXMXMXMXMXMXmXMXMXMXmXMXbXMXiXM.E.xXMXuX| rX3X5X3X*...<X7X7XXXo W 6X7X@XOXJ.&XMXcXMXvXpXE _ sXmXmXmXMXMXMXMXMXMXMXMXMXMXMXmXmX",
"MXMXMXMXMXMXmXmXmXMXMXbXmXmXmXMXdXF.m.pXdX .rX7X@X3XoX.X+X+X@X4XB.'.5X5X@X+XF.&XmXmXcXMX%X` ,XmXMXmXmXMXMXMXMXMXMXMXMXMXMXMXmXMX",
"MXMXMXMXMXMXMXzXmXmXmXmXzXzXMXzXyXkX(.E Z.*.rX4X5X+X}. X5X5X7X7X2X4X@X5X5XOXK.:XMXMXzX!.` iXmXMXMXMXMXMXMXMXMXMXMXMXMXMXMXMXMXmX",
"MXMXMXMXMXMXMXmXmXmXmXuXM.~ ^.!.S E.zXiXD.*.wX4X@XOX&.H X.S.K.J.&.}.@X4X7XXXK.sXjX#XM.U.iXbXmXMXMXMXMXMXMXMXMXMXMXMXMXMXMXMXmXmX",
"MXMXMXMXMXMXmXcXmXvX,XQ C P.G.0 K.o.iXvXdX..<X5X@X1XK.  * 1 , , C XX@X4X6X.XG m.) D.,XzXbXbXbXMXMXMXMXMXMXMXMXMXMXMXMXMXMXMXmXmX",
"MXMXMXMXMXMXmXmXMXvX*XS T. X7XP.[.N.%XmXzXL.I.tX5X7X'.9 ] [ ] + V.5X+XqX9XI.F {.aXmXvXmXmXmXbXMXMXMXMXMXMXMXMXMXMXMXMXMXMXMXmXmX",
"MXMXMXMXMXMXMXMXMXbX%XD G.XX5XOXXX].E (.pXpX_ <X7X5X<XG.] ' ' | OX+X@X4X2XE >XMXMXMXmXmXmXMXMXMXMXMXMXMXMXMXMXMXMXMXMXMXMXMXMXmX",
"MXMXMXMXMXMXMXmXmXvX#X|  X5X5X5X5X7XoXN.D ` Q | 1X7X7X3X}.).].<X@X@X7X6X_ U.MXMXMXMXmXMXmXMXMXMXMXMXMXMXMXMXMXMXMXMXMXMXMXMXMXxX",
"MXMXMXMXMXMXMXmXMXMXpXY W =X6X5X3X5XwXrX6XW._ V P [.<X+XqXrXtX9X4X6X<XN.M.mXMXMXMXMXMXMXMXMXMXMXMXMXMXMXMXMXMXMXMXMXMXMXMXMXMXcX",
"MXMXMXMXMXMXmXMXMXMXpX` S.Q.`.I.`.3X5X+XqXrXqXV.  - I H.W.`.`.]._.N./ W.cXMXbXMXMXmXmXMXMXMXMXMXMXMXMXMXMXMXMXMXMXMXMXMXMXMXMXmX",
"MXMXMXMXMXMXMXMXmXmXmXyX!.D.D.D.G '.7X+X+X3XP.3 j V L  .N.%.P w 7   k.kXMXbXMXmXMXMXMXMXMXMXMXMXMXMXMXMXMXMXMXMXMXMXMXMXMXMXMXcX",
"MXMXMXMXMXMXMXmXmXmXmXmXMXMXMXMX&Xo.OX5X5XI.> n 1.L -.].rXrX_.=.} x d A.dXbXmXmXMXMXMXMXMXMXMXMXMXMXMXMXMXMXMXMXMXMXMXMXMXMXMXcX",
"MXMXMXMXMXMXMXmXMXMXMXmXMXmXMXMXmXE.*.6X_.p <.g.<.} >.].7XwXP.$.} m 6.: C.iXMXMXMXMXMXMXMXMXMXMXMXMXMXMXMXMXMXMXMXMXMXMXMXMXbXmX",
"MXMXMXMXMXMXMXMXMXMXMXmXMXMXbXvXMXvXA.K.p ,.x.l.B @.>. XwXqX=.-.{ 5.u.b - Z.zXMXMXMXMXMXMXMXMXMXMXMXMXMXMXMXMXMXMXMXMXMXMXMXMXmX",
"MXMXMXMXMXMXMXMXMXMXMXmXMXMXmXmXMXMXuXa g q.c.y.U O.=.L.`.}. .>.e q.z.7.y F (.bXMXbXMXmXmXmXMXMXMXMXMXMXMXMXMXMXMXMXMXMXMXMXMXbX",
"MXMXMXMXMXMXMXMXMXMXMXMXMXmXmXmXzXMX%Xl 6.e.d.9.P +.L R I P O >.H 3.z.f.b G A.>XMXmXmXMXmXmXMXMXMXMXMXMXMXMXMXMXMXMXMXMXMXMXmXmX",
"MXMXMXMXMXMXMXMXMXMXMXMXMXMXmXvXMXfX/ u h.g.s.8.@.:.m.0XsX:X~ >.Z 6.i.p.6.P J.Z.sXMXMXMXMXbXMXMXMXMXMXMXMXMXMXMXMXMXMXMXMXMXmXcX",
"MXMXMXMXMXMXMXMXMXMXMXmXMXMXmXmXMXE.C J r g 4.B @.$.Y.bXbXMXJ.>.w r.a.d.p.Y I.I.Q D.>XMXMXmXMXMXMXMXMXMXMXMXMXMXMXMXMXMXMXMXmXmX",
"MXMXMXMXMXMXMXMXMXMXMXmXmXmXmXmXmXW.% #.>.L - 3 $.#.!.mXbXcXN.;.C 9.a.i.9.N H.6X<X`.J T.zXMXvXMXMXMXMXMXMXMXMXMXMXMXMXMXMXMXmXmX",
"MXMXMXMXMXMXMXMXMXMXMXmXmXmXvXlXxXMXQ., H -.:.:.+.I ;XmXmXbXJ.;.e 4 q w V 1 *.+X7X9X=XQ >XmXMXMXMXMXMXMXMXMXMXMXMXMXMXMXMXMXMXmX",
"MXMXMXMXMXMXMXMXMXMXMXmXMXMXMXlXiX>XT.; A.%XN.%.} ` sXMXmXbXm.+.+.O.O.@.%.@  .OXwX.X..` aXmXmXMXMXMXMXMXMXMXMXMXMXMXMXMXMXMXmXmX",
"MXMXMXMXMXMXMXMXMXMXMXmXMXvX:Xm.A ; ; 1 ` mXbXjXaXsXxXMXbXxX#Xb.| | W o.l W .XqXOX X/.M.dXcXmXMXMXMXMXMXMXMXMXMXMXMXMXMXMXmXmXmX",
"MXMXMXMXMXMXMXmXMXMXmXmXbX(.; . @ $ = 3 0 ;XMXMXmXMXMXbXMXMXmXvXkXzXvXuXS Q W.1X.X&.V F.dXMXMXMXMXMXMXMXMXMXMXMXMXMXMXMXMXMXMXMX",
"MXMXMXMXMXMXmXmXmXMXMXMX>XE o = 6 & & 2 2 K :XMXMXMXMXMXMXMXmXmXMXMXvXR.; 2 0 *.J.&.V :XmXmXMXMXMXMXMXMXMXMXMXMXMXMXMXMXMXMXMXMX",
"MXMXMXMXMXMXMXmXMXMXMXmX(.2 $ = & = = * 2 X V (.dXxXMXMXMXMXmXmXMXkX^.1 1 = $ @ X ! ^.lXMXcXmXMXMXMXMXMXMXMXMXMXMXMXMXMXMXMXMXMX",
"MXMXMXMXMXMXMXMXbXMXMXzXL.  * = 5 $ 6 = 2 2 +   ) !.&X*X>X,X,X:X%Xm.  @ = = & 2   m.jXMXmXmXcXMXMXMXMXMXMXMXMXMXMXMXMXMXMXMXMXMX",
"MXMXMXMXMXMXMXbXMXMXMXvXW.o * & 5 5 5 5 6 6 2 # , M.U.C.D.A.Q V +   % = & 6 $ 6 2   E.vXMXMXcXMXMXMXMXMXMXMXMXMXMXMXMXMXMXMXMXMX",
"MXMXMXMXMXMXMXmXMXMXMXMX:XD X * 6 6 6 6 6 6 2   ! sXvXdXjX*XD o # = = & 6 & 5 2 2   ) dXMXMXmXMXMXMXMXMXMXMXMXMXMXMXMXMXMXMXMXMX",
"MXMXMXMXMXMXmXmXMXMXMXbXzX%XG       o + X     J &XmXMXMXMXpXE * = & & 5 6 6 6 6 2 . Q sXMXmXMXMXMXMXMXMXMXMXMXMXMXMXMXMXMXMXMXMX",
"MXMXMXMXMXMXMXmXMXMXMXmXmXbX,X^.Z.E V 3 S ` E.uXmXvXzXmXmXmXK.  * = = 6 6 $ = $ 8   D.zXMXMXmXMXMXMXMXMXMXMXMXMXMXMXMXMXMXMXMXMX",
"MXMXMXMXMXMXMXMXMXMXMXMXMXMXMXbXzXdXpX,XpXjXvXMXmXmXmXmXMXMXvXD..   + # $ = * ,   V ,XMXMXMXMXMXMXMXMXMXMXMXMXMXMXMXMXMXMXMXMXMX",
"MXMXMXMXMXMXMXMXMXMXMXMXMXMXMXMXMXmXMXMXMXMXMXMXmXMXMXMXMXMXMXvX-XZ.G %       4 M.,XbXMXMXMXMXMXMXMXMXMXMXMXMXMXMXMXMXMXMXMXMXMX",
"MXMXMXMXMXMXMXMXMXMXMXMXMXMXMXMXMXmXMXbXMXMXmXmXMXMXMXMXMXMXmXmXbXvXdX,X*X-X-XpXvXmXmXmXMXMXMXMXMXMXMXMXMXMXMXMXMXMXMXMXMXMXMXMX",
"MXMXMXMXMXMXMXMXMXMXMXMXMXMXMXMXmXmXmXMXMXMXmXmXMXMXMXMXMXMXbXMXmXMXbXMXmXmXmXMXMXvXmXMXMXMXMXMXMXMXMXMXMXMXMXMXMXMXMXMXMXMXMXMX"
};
