/* XPM */
static char *e73ee62b82394fd7b3b636c5c56c8fe4wM1AWPG72CicRupF[] = {
/* columns rows colors chars-per-pixel */
"64 64 244 2 ",
"   c #262626",
".  c #272727",
"X  c #2A2626",
"o  c #2A2827",
"O  c #272829",
"+  c #2B2A2A",
"@  c #342B27",
"#  c #3A2927",
"$  c #322D2A",
"%  c #37312F",
"&  c #3C332D",
"*  c #2C2C31",
"=  c #393635",
"-  c #591C1B",
";  c #7D0303",
":  c #780A09",
">  c #6D1615",
",  c #4D2A29",
"<  c #4A3529",
"1  c #483629",
"2  c #56392A",
"3  c #463C34",
"4  c #7A2B2D",
"5  c #673C28",
"6  c #75393B",
"7  c #55412D",
"8  c #4D423C",
"9  c #584737",
"0  c #68462D",
"q  c #784628",
"w  c #78532D",
"e  c #644C35",
"r  c #694D32",
"t  c #6A523A",
"y  c #755536",
"u  c #333C44",
"i  c #6E3F42",
"p  c #39434E",
"a  c #3F5268",
"s  c #494647",
"d  c #574D45",
"f  c #5D524B",
"g  c #4B5255",
"h  c #53585B",
"j  c #6B4445",
"k  c #744446",
"l  c #67574A",
"z  c #775B45",
"x  c #6B5C52",
"c  c #6F5A55",
"v  c #665859",
"b  c #7E6147",
"n  c #6B6158",
"m  c #736255",
"M  c #796558",
"N  c #7C695A",
"B  c #41566C",
"V  c #5A5E61",
"C  c #625C63",
"Z  c #5D6567",
"A  c #5E656A",
"S  c #4F6176",
"D  c #636365",
"F  c #656669",
"G  c #636A6D",
"H  c #786A65",
"J  c #656D72",
"K  c #686F74",
"L  c #706E71",
"P  c #797675",
"I  c #830203",
"U  c #890304",
"Y  c #810A05",
"T  c #84130A",
"R  c #821915",
"E  c #84241A",
"W  c #8C321B",
"Q  c #852822",
"!  c #843628",
"~  c #8A352D",
"^  c #8E3835",
"/  c #AF223E",
"(  c #914B1E",
")  c #BB5D1E",
"_  c #BE621F",
"`  c #874A27",
"'  c #964D23",
"]  c #8A572D",
"[  c #9C5224",
"{  c #965428",
"}  c #8A4935",
"|  c #92473B",
" . c #8B5637",
".. c #825A32",
"X. c #935F30",
"o. c #A75825",
"O. c #B65D23",
"+. c #B05D31",
"@. c #8C602F",
"#. c #9B652E",
"$. c #8E6335",
"%. c #976835",
"&. c #AC652B",
"*. c #BD6123",
"=. c #B86529",
"-. c #A26C34",
";. c #B46A34",
":. c #AA7335",
">. c #B77835",
",. c #C25F1D",
"<. c #C8641E",
"1. c #D2691E",
"2. c #C36423",
"3. c #C96925",
"4. c #CD6A24",
"5. c #C46C2A",
"6. c #D36B23",
"7. c #CB762C",
"8. c #D17A2C",
"9. c #C37B36",
"0. c #CD7D31",
"q. c #D27E32",
"w. c #BA2747",
"e. c #944D41",
"r. c #875845",
"t. c #87534C",
"y. c #975747",
"u. c #866547",
"i. c #8D6946",
"p. c #836549",
"a. c #8D6B4A",
"s. c #916B46",
"d. c #956748",
"f. c #936D4A",
"g. c #96714D",
"h. c #99724E",
"j. c #866B5A",
"k. c #996855",
"l. c #8C725C",
"z. c #967253",
"x. c #9B7551",
"c. c #9E7954",
"v. c #9B785A",
"b. c #A7784A",
"n. c #B37E49",
"m. c #A36A5A",
"M. c #A47655",
"N. c #A27A54",
"B. c #A4725D",
"V. c #A27D5C",
"C. c #866F6F",
"Z. c #887566",
"A. c #8C7564",
"S. c #937965",
"D. c #947968",
"F. c #847B76",
"G. c #A77B64",
"H. c #AB7A64",
"J. c #B17E6A",
"K. c #D2832F",
"L. c #C98437",
"P. c #CB863B",
"I. c #D38434",
"U. c #D78635",
"Y. c #D58A35",
"T. c #DB8D36",
"R. c #D38C3B",
"E. c #DB8E3A",
"W. c #DD9137",
"Q. c #DD923B",
"!. c #E18E35",
"~. c #E3943B",
"^. c #E5973B",
"/. c #ED9B3C",
"(. c #F09D3E",
"). c #AF8154",
"_. c #9F8167",
"`. c #9C826C",
"'. c #8F8178",
"]. c #978577",
"[. c #A68364",
"{. c #A98465",
"}. c #A7846D",
"|. c #AD896B",
" X c #B2896D",
".X c #BD926F",
"XX c #A58974",
"oX c #A58977",
"OX c #AB8C75",
"+X c #B48B72",
"@X c #B98B73",
"#X c #AC917B",
"$X c #B59174",
"%X c #BA9475",
"&X c #B3937B",
"*X c #BB967B",
"=X c #BD997D",
"-X c #D38E42",
";X c #E79A43",
":X c #F19E41",
">X c #CF9763",
",X c #C3977B",
"<X c #C19B7E",
"1X c #D1A073",
"2X c #4C6F91",
"3X c #517CA4",
"4X c #A57B90",
"5X c #5481AD",
"6X c #5A89B6",
"7X c #5D91C1",
"8X c #659CCE",
"9X c #929191",
"0X c #B39681",
"qX c #BE9B81",
"wX c #AC8B92",
"eX c #B591AB",
"rX c #94A0AF",
"tX c #B9BABB",
"yX c #C39E82",
"uX c #C69C85",
"iX c #C99B9C",
"pX c #C6A184",
"aX c #C9A386",
"sX c #C7A389",
"dX c #CBA689",
"fX c #CEA98B",
"gX c #D0A589",
"hX c #D3AB8D",
"jX c #CCA49B",
"kX c #D5AE91",
"lX c #D9AE90",
"zX c #D7B192",
"xX c #C698AF",
"cX c #D5A9B5",
"vX c #AABACC",
"bX c #D7A8C6",
"nX c #DDAED1",
"mX c #E4B2D1",
"MX c #F2BBE2",
"NX c #B7C2D0",
"BX c #CCCFD3",
"VX c #E6E6E6",
"CX c #F3F1F2",
"ZX c #FFFFFF",
/* pixels */
"O.<.) 6.{ 5 7 #./.0.K.T.-.<.o.q o g Z f z c.e 3 2 ` 6.8.] o X 2.5 ` 2.W.2 ..X.O t a.f.s.N.s.z.a.t + $.&.4.8.!.:.w @ { Q.9...+ ZX",
"O._ <.5 @ o ..^.w L.>.w + 5 2 u h J j r.g.g.g.u.t @ 5 2.9.%.+ 0.0 ] 0.:X9 O 8 r.N.i.a.g.f.h.g.g.x.b 3 1 q 6.2.U.R.>.+ =.P.Y.o.ZX",
"O.o.2 O O + & e o 7 3 O O . D.oXD 4 : } s.h.f.g.f.a.$ 2 :.P.+ -Xw $.R.r + z a.g.h.g.s.f.b.f.h.x.g.N.! - @ 2 O.5.0.R.+ =.L.U.<.ZX",
"5 X . + 9 1 & 0 ;Xw o $ f yXdXdXfXY U } s.c.f.g.x.f.N.d & $ 3 o 3 & + 3 g.x.h.c.h.h.g.g.c.f.z.x.g.N.!  .a.. X ' 7.Q.e & %.R./.ZX",
"O . @ $.W.>.%.^.>.9 d Z.hX XyXaXaXU I ; ! h.h.f.x.g.c.x.p.z N.e u.u.t N.g.x.x.g.x.h.f.h.c.h.h.g.h.l.! } a.+ . . y >.;X:.r 7 9.ZX",
". e -./.0.7.5.%.o . l.pXpXE H.uXfX; I ; Q x.i.z.h.s.N.g.f.g.f.g.i.f.h.g.h.x.g.x.f.h.s.i.N.i.h.h.f.J v r.d.- + O O + -.W.>.` + ZX",
"#.L.W.Q.3.[ 2 + o o j.*XkXQ @XaX=XU ; ; 4 n h.a.f.x.h.x.h.s.c.i.g.h.i.N.g.g.g.g.N.s.f.g.g.g.g.g.x.4 F F v I y 7 0 [ + r o.*.o.ZX",
"I.Y.I.Q.7 # w E.O [.&X*XuXR H.yX<XpX| j Z F i.s.f.d.x.f.a.f.g.s.u.i.i.g.f.g.i.g.f.s.i.s.g.i.g.g.s.I : j v I d.9 0 ) <.2 -.8.<.ZX",
"W.R.>.$ e -XQ.P.O D.*XuXhXR @XaXdXhXF.C H hXf.g.x.g.N.h.x.h.x.x.d.d.h.N.x.x.h.x.c.g.c.v.N.f.x.g.z.U !  .f.! I 5 3 @ 4.7 %.9.6.ZX",
">...% } E.E.;.+ g = c D.hXE @XdXpXhX#Xj.~ J.f.f.g.h.N.c.x.g.x.f.! } f.N.g.c.x.x.h.{.%X<X$Xh.h.l.A k f.f.h.M.; r.u.@ 6.{ 5 1 [ ZX",
"7 r :.6.%.&.o.. J  .5 = m.T J.uXaXfXdXB.; U } d.g.h.N.g.x.h.h.g.! } h.h.h.{.{.c.%XyXpX=XhXOXB.d.j K H j.h.x.I ! 5 $ ` =.>.%.+ ZX",
":.R.E.2 $ 1 2 + A ;.{ # U @XpXaXuXhXm.~ ^ ,X; E } g.M.x.g.f.b.f.! ` s.N.%XaXaX*XgX=XpX<XaXpXpX|.I z.F N f.x.i.! ~ p.+ 2 :.Q.R.ZX",
":.-.. 2 P.%.q 2.A = + = G #XyXyX<XaX| m.*XuX%Xk.Q : h.g.g.i.g.i.W } g.h.*XpX=XpXpX*X&X*XpX*X<X X; v.h.i.i.g.i.n H a.X < # r !.ZX",
"1 1 q /.Q.8.O.o.J v D A v F #XuXdX%X| m.<XhX,XpX%Xy.N.g.h.x.[.I | G.<X|.pXaXpXfXaXpXyX=XhX<XaX@X; zX[.g.g.}.A v C A + =.' y /.ZX",
"w ` <.~.~.>.q O 9X<X#XD.U ].qXsXuXU m.+XpXaXpXyXpXpX%XN.[.+XgX; OXyX=XhXpXdXpXpXhX<X<XpXdXpX#XS.Y dX[.c.+XfX`.r.t.].+ 9.X.7 -.ZX",
"1 q <./.q.] l OXhX<XyX,XI uXdXsXdXI ,XpX<XhX<XpXaXyXzX<XpXpXdXI |.uXaXdXdXfXpXfXdXpXyX<XzX<X'.F c zX<X*XpXfXuXy.m.uX+ -X>.' + ZX",
"[ _ <.~.5.w x aXaX=XB.Q I *XpXpX<XI @X=X<XaX=X<XaX<XgXaX<X<XgX; |.<X<XdXpXpXyXpXdX=X*X=XdXqXk.i Z L *XqX<XaX<Xy.R ! + 3 [ 5.W.ZX",
"=._ 2.P.2 O m aXpXpXG.~ hX=XaXpX<XhXpX=XpXpX<XqX<X<XdXdXpX$XI | @X<X=XhXyXpXpXpXdXqXqXyXaXF k k.sXP qXqX=XfX*X<X+X4 J = ' 5.W.ZX",
"3.O.' + w 0 x <XgXqXm.~ aXpXpXpXdXdXaXuX*XhX*XpXaX<XlXpXpX,X; aX=X<XpXaXdXpXpXfXpXpX<X*XhXF.H F.oXzXpX<XpXpXpX&X'.A '.s q &./.ZX",
"{ 5 @ [ Q.-.M gXpXuXH.~ hX<XdXdX<XlXpXyXaXaXpXqXaX<XdXhX Xy.I <X<XuX=XhXpXdXpXaXgX<X=XyX].uXD.c A dXaX<X=XhX*XF.C k hXOXc 0 8.ZX",
"@ q o.6.Q.%.8 m lXuXG.~ fXdXdXaXhXy.uXuX<XkX<XpXdX<XzXB.^ ; I fXyXyXaXfXdXdXpXdXdXaX<X=XK P t.y.&XzXpXpXpXfXaX*XG.T hXhXD.0 1.ZX",
". q <.4.Y.v.h o + }.m.~ pX*XyXpX<XT : m.=XdX%XyXuX,XY Y ; ; I yX*X=X<XaXpXpXpXpXpX<X*X*XsXD Z F.yXfXpX=X=XpX*X=X}.T uXaXD.2 <.ZX",
"2 { *.o.1 h v.;X. #XH.~ kX=XdXdX<XlXy.G.aXpXpXpXaXaXy.<X[.y.hX<XuXuXqXkXpXdXdXpXhX=XpXpX&XR j.].fX=X[.[.|.N.*XpX,X| I oXN 5 8.ZX",
"o.) ` * $.j.H N.+ a.y.~ pXaXpXpXgXdXe.y.H.hX{.=X<X|.lX Xy.| <XaX*X<XpXuXdXpX<XhX<XpX<X#XK j +XpX|.c.g.s.g.g.<XpXuXaXk A g w /.ZX",
"( ' & >.Q.-Xy.J ].} ; ~ lX*XaXaX<XkX@Xy.! [.f.v.v.h.y.Q } k.fX*X=XpX%XlX[.*X<X[.dX].oXqX6 D L Z.h.g.c.f.s.N.c.*X0XF.J oXH r W.ZX",
") [ 1 /.Q.0.o.= fX&Xk.R | <XaXaXgX| <XB.W h.s.f.g.f.U U  .h.V.pX[.|.<X[.g.N.c.g.B.H F H ; -Xv.A.R.b.h.s.f.h.s.$XOXA ~ <XA.y ^.ZX",
"5 & r /.R.$.= 8 gXyXH.I I uXaX@XI ^ ,XB.I I d.g.h.f.U E  .x.h.h.f.h.f.x.h.h.x.g.b.! t C G P.;X-XW.;X).h.g.b.h.$XuXpX^ R - 5 1.ZX",
"5 %.!.E.7 x D.aXfXaXB.; U <XdX@X> lXdXB.E O.I ] d.h.+.b.h.g.c.g.g.g.f.N.h.h.b.).:X' I > V R.P.P.^.-X~.P.).:Xd.%XdXpXzX| - 2 o.ZX",
"2 X.R.6.1 oX*XA.gX=XB.I I <XOXM + S.<X$XM./.o.W E } (.-Xh.g.g.h.d.f.g.h.h.g.n.^.=.W : - + #.0 0 #.N.n.L.W.W.f.[.+XaXaX| - . + ZX",
"#.L.W.*.1 n H . x &X*XG.U H g y 9.+ f `.<X~.!.o.; T ^.^.>X|.c.i.g.f.f.N.$X{.x.l.I - # & u.+ A.D.+ 9 f.h.n.;X9.b.[.qXkXe.- O O ZX",
"K.7.O.<.1 g M =.o }.*X&XF V s y Y.-Xt $ r W..Xy.; T W.W.>X*X<Xs.|.}.f.uXqXyXoXZ D = e i.g.u.OX=X*XO @ t i.g.P.:.[.*XaX| - . o ZX",
"Y.K.o.+ 2 v H ;.o `.*XyXF.% O M dXR.e O o + #XyX+XR zX>X1XpXdXaX<XpXpXfXdXyXJ.I K l.a.b + b 9 n &XkXZ.8 7 N.<X X XaXkX| - x hXZX",
"R.:.& -.4.r.V G A.8 x }.hX& + f `.* * O O + O H k.R kXfXsXpXgXpXyXpXpXhXdXB.E  .N.b 9 = 2X* 9X9X  oX<XOXl.c.=XpXdXpXkX{.z x dXZX",
"W.>.1 /.5.] f oXhX}.m = S.@ , - O + O O O O O O # - kXsXpXaXdXaX=XyXdXbXfXiXwXb.t = B 2X8X3XBXVXtXo N XXyX&X<XpXpXaXdXhXD.x hXZX",
"$.7 1 ^.4.` m hXdX<XS.X + > : > + * bX9Xp 6XO O O $ x uXdXpXhXpX<X&XF.MXmXmXcX3 * tXvX6Xa 7XBXVXCX* o wXcXhX<XpXdX<XzXdXA.l dXZX",
"w q *.W.*.` x <XpX*XA.% . : ; > % VXVXvX6X6X3X2X= O   : D.uXnX&XxXeXV A xXnXeX. VXBXvX5X= 5XNXvX. s eXcXcXmX&X*X=X*XpXuXZ.l =XZX",
"5.2.5./.&.0 m <XhX<XyXqXm + - - * VXCXNX3XO 6XBXBXX O : J.jXmXD eX4XR A Q xXeXo BXVXvX3X8X3Xa d L MXbXjXsXbXpX<XuXaXdXdXD.O + ZX",
"5.7.Q.:.& O m dXpX<X<X=XkX& O O $ ZXVXNX6X2X7XrX9Xo - : j.wXMXj C C } J | xXnX4X* 9X4X* 2X* F.eXMXcXfX%X[.x.{.=XpXqXkXsXZ.O . ZX",
"2.0.R.+ `.N m aXfXyXpXyXH % Z.Z.@ rXVXtX2X8XS u x }.U J.F.L wX; r.j.z.l.k.OXxXMXeXC C.eX* eXnXmXiXzX XV.h.x.g.%XaXdXhXhXD.O + ZX",
"K.Y.Q.O qXZ.m aXfX=X`.8 + *XpXsX=Xo V p * p . `.yXpXuXdXG.6 A g.s.s.f.M.uX Xl.B.mXbXbXnXnXnXcXdXyXG.h.h.f.x.*X<XpXyXkXm 3 O O ZX",
"0.8._ + o . m pXaX<XS.. + *XpXpX<X; 3 g C l uXqXpX<XpXV. .4 h.i.f.f.b + oXpX=Xc.x.eXwXV.cXx.+XOXg.h.g.g.[.fX*XpXuXyXhXl O = f ZX",
"I.L.' $ . O f }.hX=Xl.% M pXpXpXhXr D C M hX*XuXpX XN.p.9 9 [.h.s.y * e % N #XfX[.g.g.s.N.i.h.x.s.c.[.$X<XsX<X<X<XpXsXl d Z.hXZX",
"7.#.% `.3 + . o pXuXD.8 hX*XdXdXuXK ].t.~ ].yX|.G.g.l = m `.hX{.c.z.D.c.y 9 x <XhX XV.g.g.f.h.g.h.$XpX<X=XhX*XpXaX=XkXl _.pXpXZX",
"5.[ = lXd o X . hXuXS.8 dXpXdXsXdX0XaXXXC J =X[.g.d.$ `.yXsXaXfX%X=XdX=X_.y N gXaXaX*X XN.$X[.{.%XzXsX<XpXdXpXpXaXdXm = D.pXhXZX",
"w o & dX8 + + o pX*XM.! aX=XyXyXyXdXP Z v : <XF.H a.+ 0XpX<XdX=X*XD.3 aX9 + x pXaX=X=X=XaX=XpX<X<XdXpX=X=XaX*X<XyXqX+ 0XyXqXaXZX",
"r e & &XfX].l o dXpXH.^ zXyXdXfXyXzX].#X*Xy.F v M z.s * S.OXo qXpXOXm zXN &XaXpXkX<X<XpXfXpXpXdXhXfXfX<X=XzX<XpXdXyX$ 0XsXpX&XZX",
"L.L.@.* A.=X#X. hX<XB.~ pXpXpXpXpXdXsXyXqXhXZ 6 } M K H $X*Xj.dX=X=XaXaXdXaXpXfXpXpX=X*XhX*XaXpX<XkXpX<XpXpXuX<XyXsXO yX&Xl.O ZX",
"Y.Y.W.[ & `.}.  M *XH.~ hX*XsXaX=XkXyXyXpXuXD z t.G r pXpX=XfXV.*XpX*XhXpXpXpXyXhX=X=XpXaXpXpXpXdXpXdX<X*XhX*XyX&Xm + x d 1 o.ZX",
"Y.Y.R.7.1 ].uX&XX oXB.! uXyXuXpXpXdXaX=X=XfXOXv.[.#XU =XpX*XV.g.x.|.<X[.<X$X|.aXpXpX<X*XfX=XpXaXpXhXpX<XpXpXyXyX`.$ P.e %.9.1.ZX",
"Y.Y.P.@ 1 1 x yX. XX=X<XfXuXpXpXpXdXpXpX<XfX%X[.[.*XU &XqX=XN.g.z.g.h.c.g.g.b . pX=XqX<XfX<XaXpXpXfXpX=XyXdX=X=X`.@ ;Xr -.U.<.ZX",
"I.W.W.O -X>.5 * X O l.yXkXyXdXdXpXzXsXpXaXfXh.u.t o > # N OXkX[.*X*X[.hXj.9 8 N O OX<XpX=XaXdXdXdXhXdXpXpXhX<XM 2 q /.r :.U.1.ZX",
"K.L.%.+ P.q.*.` . X l.aXdXpXsXpXaXdXaXyX=XhXs.9 3 l + j.x 8 D.dX`.oX<X`.3 m XXdXS.=X%X{.c.{.<XpXyXhXpX<XpXaX<XM q 3.^.r -.I.1.ZX",
"*.[ X + -Xq.2.3.o . j.=XhX=XdXaXyXkXpXyX<X[.g.}.}.g.p.uX*XD.+ | 1 8 l + XX=XpXpXfXyX|.g.g.g.%XpXdXdXaX<X<XhXl 3 ..K./.r :.T.U.ZX",
"_ ' X o P.7.) 2.o . N *XpX*XyXqX=XaX<X*X$Xg.i.|.<X%Xh.=XqX*X*X; G.D.= qX<X<X=XpXyX&X[.i.f.$X<X<X<XaXqX*X*XpX. . ] Y.~.r ' 5.!.ZX",
"*.[ 1 6.E.q.2.2.o 7 2 8 yXpXpXdXdXhXhX<X%Xc.c.*XdX<XkXdXsXpXqXD oX0XpXfXdXdXpXdX<Xc.x._.hXpXaXdXpXkXpXpXyXqXO o $.W./.r ' 5./.ZX",
"_ [ @ K.~.U.7.4.o L.>.q + 0XdXaX<XkXpX<X<X|.<XpXaXaXfXfXpX0XJ v C '.yXhXpXdXdXaXc.[.$X<XgXpXpXaXaXfXaX&XA.+ O X r :.(.r [ 4.U.ZX",
"<.[ 1 /.-XQ.Y.` o X.&.) O yXdXsXdXhXdXpXyXhX<XpXpXpXzXdXaX@Xk I D.&XpXhXdXfXpXfX$X<XyX<XhXyXdXdXpXkXsXS.& z X o + & ^.r 5 { 6.ZX",
"O.[ < ^.^.;XL.O O O ` O.$ l 0XdXuXkXaXpXpXfXpXpXaXaXhXfX0XC.U C #XsXuXhXpXfXaXpXfXpXpXpXfXpXdXaXfXfXdXS.8 N.X o o @ (.>.q 1 5 ZX",
") ' 1 Q.E.R.>.X o o ` _ T.1 $ m *XaXqX*X*XuX%X&X=X=XpXyX'.Z C D XX*X*XaX=XyX=X<XyX*X%X*XpX*X<XqX<XpXl o 1 g.X :.:.@ W.5.` X O ZX",
",.[ 1 /.E.$.1 0 4.0 #.!.~.!.-.2 + #XuXuX=XhX%XpXaX=XkXsXuX*XC fX*XyXuXpXdXdXpXgXpXpXyX%XhX*XpXpXoX+ 8 y g.p.o :.>.@ Q.8.o.2 + ZX",
") ' 1 Q.^.-...;X<.5 $.I./.Y.7.O.` + j.OXyXyXuXqXyXpXaXgX$Xl.U D.*XuX=XhXyXsXpXpXhX=X=XyXpXpXOXN + z a.g.u.+ $.P.>.$ :XI.3.O.` ZX",
"5.[ 1 /.%.r ..;X6.5 #.E.8.~.0.2.3.X * d A.kXM 0XaXpXzXfX9XA c G #XuXuXfXdXdXpXfXdXpXOXZ.hXN d 8 b N.g.g.a.O E.q.&.+ %.-Xq.2.1.ZX",
"5.' # 8.1 + ..^.<.5 #.Y.6.Y.q.o.1 * / 4 % f O 8 D.aXf yXuX#XG 4  XaXyXhXpXdXdXpXfXN 8 $ f + z f.h.c.h.z & + E.7.5.O.+ -X0.<.4.ZX",
"5.( , 3.1 2 $.~.<.5 #.U.3.L.Q.L.. w./ / / , / 4 , + , + l.`.. :  X=X&XfX*XZ.x 0X. . t a.+ a.f.a.g.g.g.t . O Y.5.*.*.* 9.R.U.6.ZX"
};
