/* XPM */
static char *a434s_dcoe6[] = {
/* columns rows colors chars-per-pixel */
"64 64 108 2 ",
"   c #0E0D0C",
".  c #100E07",
"X  c #110D0C",
"o  c #0E100D",
"O  c #11110E",
"+  c #0D0E12",
"@  c #110E12",
"#  c #0E1114",
"$  c #0E131A",
"%  c #111215",
"&  c #161816",
"*  c #191916",
"=  c #13151A",
"-  c #18171B",
";  c #15191D",
":  c #191B1E",
">  c #21221F",
",  c #2A261F",
"<  c #141721",
"1  c #161B23",
"2  c #1B1D23",
"3  c #171E29",
"4  c #1A1E29",
"5  c #201E25",
"6  c #1D2125",
"7  c #172029",
"8  c #1D222B",
"9  c #1D2531",
"0  c #1C2833",
"q  c #212225",
"w  c #2B2723",
"e  c #242827",
"r  c #2E2925",
"t  c #22242B",
"y  c #2D2629",
"u  c #24292E",
"i  c #2D2A2A",
"p  c #302627",
"a  c #312B26",
"s  c #31272A",
"d  c #332D2A",
"f  c #382E2C",
"g  c #2E302F",
"h  c #343026",
"j  c #36312C",
"k  c #3A342E",
"l  c #3D392E",
"z  c #232631",
"x  c #252B34",
"c  c #292C34",
"v  c #252C3A",
"b  c #2A2E3A",
"n  c #322D30",
"m  c #293136",
"M  c #27313A",
"N  c #2B323B",
"B  c #363332",
"V  c #3B3631",
"C  c #3E3A34",
"Z  c #3D3D34",
"A  c #30343C",
"S  c #393838",
"D  c #3F3A38",
"F  c #3E3C3A",
"G  c #423B2F",
"H  c #413733",
"J  c #423B32",
"K  c #403C32",
"L  c #433D33",
"P  c #403B36",
"I  c #423D35",
"U  c #453F35",
"Y  c #403A3A",
"T  c #433E3A",
"R  c #443F3B",
"E  c #434037",
"W  c #464036",
"Q  c #464338",
"!  c #45403A",
"~  c #46413A",
"^  c #46413C",
"/  c #45423C",
"(  c #47423D",
")  c #48413B",
"_  c #4A453F",
"`  c #4B473F",
"'  c #4D463E",
"]  c #4B483C",
"[  c #4F493F",
"{  c #50493E",
"}  c #2B3241",
"|  c #454443",
" . c #4A4642",
".. c #4C4741",
"X. c #474843",
"o. c #4C4944",
"O. c #4F4A46",
"+. c #464649",
"@. c #4F4C49",
"#. c #504C42",
"$. c #504B44",
"%. c #514C46",
"&. c #524D47",
"*. c #524E49",
"=. c #565046",
"-. c #545048",
";. c #57524C",
":. c #565453",
/* pixels */
"l K K #.I a k C K K K K K C C W ] l K K K K C K C J J J K K J K ` ` J C ) C P J J K J J J l k l K C C C C C C ..^ r d d r h K K ",
"l I ` -.T r d C K K K C K K K ~ o.k j C K C K K K K K J K K K C ~ T C P ` ~ V k J K K K J K l K C K K C I I I  .^ d C C w k C K ",
"I I %.;.R r r k I I K K K W [ G W l l J J K K J J l l C C C C l Z C I Z ^ ^ V V C Z C Z C C K K K J J J P I ` %.^ j o.o.r k C I ",
"C C ^ %.T r a d k I P J ) ' U l K K K J J J J J J l C K I k k K I I P I P I T P K J J J I J K J I J I J l j E $.^ d C P r k C I ",
"j k k T k w d d d k V j V V a k k k k k V k k k k d k k k f a V V k k k k k k k k k k k k H V V k k k k d d h I C r j k r d j j ",
"a d d d a r r d a w s i y y y i i i i i d i i i i i s y y s y s d s s s s s s s s s s p p f d n i i i i r d a d d r d r r a r r ",
"C d V C T P I T D Y B - 5 q 5 5 5 5 q 5 5 5 5 5 5 5 2 2 q 5 q q 2 5 2 5 5 5 5 q q q q q q q q 5 5 q q q S S I C P C Y V d T T T ",
"*.C R o.o.o.$.$.o.o.X.# 1 2 2 8 z 4 4 4 8 z z 8 4 7 7 8 7 7 2 8 8 8 8 3 3 7 2 8 u t 1 7 1 6 6 t 8 4 2 2 F o.o. .o.o.*. .k o.o. .",
"o.T r C Z I J G ) o.| 1 8 u 6 8 z 9 9 9 8 z z 8 7 7 8 x 9 7 7 t t 8 z 8 8 7 4 q u t 4 9 8 8 6 u 7 8 8 2 i V I C k C ..o.w h h a ",
"T B r C Z P J J ~ o.| 2 t c ; ; - 1 7 8 1 - ; ; ; ; 8 t 1 ; - - = = ; 8 6 ; = - : ; 1 8 x 1 = - = 1 8 1 i B V C j j T T w a r a ",
"r w r C Z P J U k Z o.1 t c %     % 6 6 #           2 u ; +         & e ;         + # u c %       - 7 1 e i d r d d s r r a r a ",
"V d r V Z C K K C T X.2 c c %     O 6 6           + 1 c 2 +         & 6 =     X X + % c t %       ; 8 1 g S C C C C C C C C C C ",
"%.C r T T C K U ) *.| 2 z c +     @ 1 1 +         + 4 b 2 +         % 6 ; +     X + # t u =     + 1 7 2 | @.$.$.$.*.*.*.*.%.%.%.",
"o.C w | I k K K K  .X.2 z u % = : 1 8 7 1 - 2 - = = z A 2 = = & = : 2 8 8 1 ; = = = = 8 c ; = ; = 8 8 2 n C I I I I I I I I I I ",
"..C a V k V J J J ^ o.1 8 8 : 6 u b N M c c c z t 4 z N 8 2 q q q u N N N x t q q 6 1 9 b 4 8 t 8 v x 2 B k k C C C K K I P P P ",
"o.C r h V C J I l F X.: 8 2 1 q 6 9 8 8 8 x u q 6 2 z N 8 2 6 2 2 6 8 8 8 t c c t 6 1 9 } 1 6 6 8 t c t r V C I I I I C C C C C ",
" .C a h d V J P P ^ | 1 x v # # # $ 1 1 # +       + 1 c 1 # + @     # ; ; + +   + o # 8 b =   + # 1 8 2 i V C C C P P P C C C C ",
"C j r d d d d d f d i 2 x v + O o = 6 6 %   X X   + 1 t =   X X     % 6 1 +         # 8 t %   o # 1 8 2 t d j j d V C V f d d d ",
"d d a r r r a a a r : 4 v v +   o % 8 t % X X X X + : e & X X X X   & t 6 + X X X   # t t % o o o 1 8 1 q i d s s d f d w r a d ",
";.*.*.^ C ` %.=.$.~ * 2 v v +     % 9 c % X X X   + % q = X X X X   % c u #   X X   # q t % o     ; 1 1 +.:.;.;.;.;.*.o.V ;.*.o.",
"I I I K C K K { =.;.^ 1 x c @ X X = b N = X X     + = 6 &     X   + % u 6 #   % +   # 8 8 # o     : 6 1 i C I I I o.*.o.w V  .$.",
"J C C K K K G K ] -. .1 x b = O % = 9 N = % % # # $ 1 6 ; % % % % % 1 N x $ # % % # = 7 8 = % % % 1 8 1 i C I I I I o.o.a C P R ",
"P P P P I I K K E X.X.8 b b x 6 1 2 8 M 1 2 2 1 1 8 b x x 8 7 u t 2 1 x x 1 2 1 : 6 u x v x 6 6 7 8 x q i C I I I P ` o.r k V C ",
"P P P P I I K K C ^ o.1 z x A e 6 2 8 N 2 8 t t 8 z x x m N c u u 6 2 z v 7 6 2 q e u z z x u u 8 9 z 2 i C I I I P ` o.w T ^ k ",
"I P P P I I K K C ^ o.1 x x ; % % - 9 N = % % % $ $ 1 1 1 = = = % = = x x $ % % % % $ 3 3 = % % $ 1 8 2 i V I I I P ` o.r V P I ",
"C C I P P I K K C ^ X.1 x b %   o = 8 8 #       + + = 6 = + + +   # = t 6 # + + +   # 8 8 #   + + 1 8 2 y S P P P P ` ..w k P P ",
"C P C C P V l K C ^ X.; t b +   o = 8 8 %   X     # : t = +   X X   % q : +     @   % t z %   X + 1 8 2 i S P P P P ` ..w j P C ",
"C C k C V l C K C ^ X.; z b +   O % 4 8 @ X X X   o 1 e = X X X X   & q : + X X X   % c t % X X + 1 8 2 i B C I P P ` ..w j P C ",
"I P  .C l J J K I ^ o.1 x c #     = 8 q % X X X o # : c : @ X X X   % 6 : #   X @   % u q % X X + 1 u q j j k P C P `  .w j P C ",
"k C R ..C h l J I ^ X.1 x x + + + % 2 2 #         # 1 N 1 +         # 1 ; +       + = c c =   + + 1 t 6 h k C I P I `  .w j Y P ",
"V C T ` ~ C k I I ^ o.; 8 u ; ; 1 q x x t 2 1 1 1 < 8 N 6 ; ; & : 4 z z z 8 2 2 : ; < x N ; : : 8 7 7 : r V I P I P  .o.w j P P ",
"C T T P ~ ~ d P I ^ o.= 1 6 6 t t c b v b c u t t 7 8 N 8 6 q 2 t x b v v v c c t 8 7 8 N 7 t t x x 8 1 i V C C P I ~ R w j P P ",
"V V V V C j d V V T S 1 8 t = 1 1 1 4 7 2 q 2 : : ; 3 x 1 ; 1 1 2 1 1 1 1 2 u t 2 1 < 8 N 1 ; 1 1 9 z 2 u B k k k C P k r d k V ",
"w r r w r a w w a d * < t c # + + = 6 : % O     o # 6 c 1 # + + o O % 6 : # o     + $ 8 x = + o + 1 4 1 q r r r r a h a , r w r ",
"T j C T T R B V T T i = 7 t = = = - 6 : X X X X X # 2 u :     X X X & t q +   X X   # t t % X   + 1 2 2 f T T T T I T I I I ~ R ",
"*.C ^ o.o.$.R R o.*.o.1 8 8 8 t t 2 t q % X X X X @ 6 q & X X X X @ - c u @ @ X X   % q t % X X   : q 5 R $.%.$.$.$.%.%.$.$.#.$.",
"o.C r k C U J k l ^ o.8 b N b b b x b c %     X   # 2 2 %         % : c 1 % X X X   # 2 q % X X + ; 7 2 i S P P P P C V C C P P ",
"o.P r I  .` J j l ^ X.1 z b 8 1 2 8 9 z #         + 1 1 $ +     + # ; c 8 #   X   + + 1 2 # + + + < 7 2 i C I P I I C h k C I I ",
"o.C r R ` I j l C ^ | 2 z x 8 $ $ t 9 M = = - - < 1 8 8 4 1 1 ; ; = 1 N x = = & % ; 2 8 8 1 ; - 1 8 x 2 y V C P C P I C h k P P ",
"^ V a j d j I I C ^ | 1 z z t 2 # 8 9 M 1 2 8 8 t x N v N x x u 8 2 1 z x 2 6 6 2 t N M x c u t b v b q d f k C C C C C V k P C ",
"d w a r r a d d a i i 1 4 8 8 6 $ 8 0 M 1 : q q t 8 8 8 x c u 6 1 1 1 x c 1 : : q q 8 8 8 t c u b 9 8 2 B B a d d d a d k V a d ",
"V V V V B j r h k B i 1 4 2 t 8 8 t 8 x =         # 1 ; % +     + # = x t #   X   + # 1 ; # +   + < 8 1 i j k k k V k h r k k k ",
"$.o.$.o.o.^ d ~ o.*.| ; 2 2 1 1 6 6 7 2 + X X X   # 1 6 %   X X X + = t 2 + X X X   # 8 ; %   X + = 2 1 F X.o.o.o.$.$...k o.$.*.",
"T T R ~ T h k J W ^ | ; 2 1 - - : : 4 < + X X X   # ; e &   X X   + = t 1 # + X X   # q 1 % X X   : q 2 i F T R R T ..o.r C ` o.",
"C P P o.T j J J I ^ X.; t u # + + % 1 ; + X .     o = t =     X     % 6 -   O X X   # t t %   X   1 u q i S P P P P ` o.w k C R ",
"P I I k V I K J K ^ X.1 8 u # + + % 6 1 #       o # 1 c 1 +   X     o : : o o X @   # t b = O   + 1 8 2 B C P P P P ` o.w V C I ",
"C I C C C P I J K ~ X.1 z c = % % - 4 7 - = = % # $ 8 N 2 % % % % = ; 8 2 = = % % % % x N = % % # 2 t 6 i V P P P P  .o.w V C P ",
"I I I  .~ V U K K ~ X.1 8 t 1 6 q u v v x t z t 4 1 7 c 8 1 2 : 2 t b b v b z q 2 6 1 z N 2 2 6 6 x b q r C P I I P ..o.w k C I ",
"P P I o.~ k U K K ~ X.= 4 2 q q t z z z b x u b z 3 3 x 8 6 q 2 q t z z v b c c t 6 2 9 } 8 6 8 8 z x 6 r C I P P C  ...w k C I ",
"P P P I V d l J K ~ X.2 z x = = = = 1 1 = % # = $ $ 3 9 1 $ % % % % = 1 < = = = % # $ 9 b < # # $ 1 x q i C I V h h d d r k C I ",
"T T T T C C J J K ^ X.1 x x # + @ @ 6 6 o X X X X # 1 8 = +     X   = 6 - + X X     # 8 t #       ; q 2 y V k a k C ~ ` r j C P ",
"T P P P T I K K K ^ o.1 z c #   @ % 8 x % X X X   # ; q =       X X = t : #   X X   # 6 1 #       ; 6 2 i j I ..~ P ` o.r d j C ",
"T P T P D P J J I ^ o.1 t c #     % b z %   X     # : q =       X   : c 1 + + X X   # 1 6 %     + 1 8 2 q T ` ` R I ` o.r d d j ",
"Y T o.T C P J J I ^ o.2 x u #     & b 8 + +       + 2 2 %         + 2 c 2 + + % X   % 6 2 %     + 1 8 2 y T R C P P  .o.w f r d ",
"T T C C C T P J ~ o.| 2 x c #     % z z $ +     + + 1 1 = # # # + + ; x t + + + X   + 1 ; # + + + 1 8 1 r V T P T T o.o.r f d d ",
"C V d j B B k h k S i 2 x N u 1 1 1 7 N ; : 2 2 2 8 z x x 8 6 6 6 1 2 x x < - 2 2 6 x v x u 6 t 8 8 8 1 r j k j j j V V w d f d ",
"d d w r i s a a r w : z v x t t 8 2 8 m 1 2 q 2 t x v v N N u 6 q q 2 x x 2 2 q 6 t x v x N u c t x z 1 > w a r r r r r r s r r ",
"^ j T  .| | ` ` ` ^ S 8 z u % - : - 8 m ; = : = : 1 1 6 6 8 2 = - : 1 c x ; : - = ; 1 2 6 6 : - ; t t 1 F ^ ] ] ] ] ] ] ` ` ` ` ",
"*.C V  .X. .' ' o.o.o.1 x c o o   % t t $ + +   X + 1 6 = + + + + % - x 8 #   X X + $ 2 6 +     + 1 8 2 S  .` ` ` ` ` ` ` ` ` ` ",
"-.C a C T I K J K ~ o.< 8 c # o + = t 2 # + +   X @ 1 6 = # % % + # = t 1 #     X   # q t % o o # 1 8 2 S V C I I C C C K I I I ",
"=.I r C Z P J K l ~ X.; t c # # + = t q % + + +   % 1 1 % + + +   # ; x 1 + o O X + # 8 u % # # + 1 8 1 B V V I P P C C C P P P ",
"o.C r V C P J J K ^ o.1 t u 6 6 6 6 c q 8 2 2 2 2 6 8 t t 2 : : 6 6 t c t 6 6 6 = 1 7 8 N 8 6 6 8 8 8 1 i V P P P P V k j P C P ",
"T V i f B V V l l C S 1 2 8 m c m c t 8 c b b c c b v v c c z t N x x z b c m c 6 c v 0 v x m c c v 8 1 i j V V V C P C h V V V ",
"d i i d i s a a a i y # = 8 8 7 8 7 8 1 9 9 9 9 9 9 v z 8 7 3 4 8 9 9 z z 8 7 7 7 9 9 0 9 9 7 2 8 3 1 1 q r a a a f k j r d a a "
};
