/* XPM */
static char *aws7g_mfr3a[] = {
/* columns rows colors chars-per-pixel */
"64 64 138 2 ",
"   c #1C1A1B",
".  c #211D1E",
"X  c #2C1E1E",
"o  c #27211F",
"O  c #2C241F",
"+  c #32261F",
"@  c #3E281F",
"#  c #1E1E23",
"$  c #1D1F2B",
"%  c #251E23",
"&  c #1D2025",
"*  c #1C212B",
"=  c #252224",
"-  c #2C2524",
";  c #2E2925",
":  c #24232A",
">  c #2B262A",
",  c #272B2F",
"<  c #2D2A2A",
"1  c #322624",
"2  c #3B2624",
"3  c #322B26",
"4  c #3C2B25",
"5  c #33272B",
"6  c #332D2A",
"7  c #3B2C2B",
"8  c #3F3027",
"9  c #36312D",
"0  c #39332E",
"q  c #3C392F",
"w  c #2C2730",
"e  c #252D37",
"r  c #2E2C34",
"t  c #262F3A",
"y  c #322F32",
"u  c #3B2D31",
"i  c #2F3137",
"p  c #2E3139",
"a  c #353232",
"s  c #3B3532",
"d  c #363930",
"f  c #3D3835",
"g  c #3F3B34",
"h  c #3E3A36",
"j  c #333639",
"k  c #3A353A",
"l  c #3C3D39",
"z  c #422622",
"x  c #442B25",
"c  c #4A2C25",
"v  c #432D2A",
"b  c #4B2E29",
"n  c #532F29",
"m  c #443127",
"M  c #4E3226",
"N  c #43332F",
"B  c #45322D",
"V  c #4D322B",
"C  c #403C2F",
"Z  c #4D392C",
"A  c #523226",
"S  c #5A3326",
"D  c #553827",
"F  c #53342B",
"G  c #59352B",
"H  c #543A2D",
"J  c #5C3B2D",
"K  c #432F30",
"L  c #433332",
"P  c #4C3432",
"I  c #413B32",
"U  c #403C33",
"Y  c #433C33",
"T  c #403B35",
"R  c #423A37",
"E  c #413C37",
"W  c #453F36",
"Q  c #4C3932",
"!  c #40353A",
"~  c #423D3A",
"^  c #433F3A",
"/  c #443F39",
"(  c #443F3B",
")  c #4C3C38",
"_  c #523431",
"`  c #5B3631",
"'  c #543B33",
"]  c #5B3C32",
"[  c #513D38",
"{  c #61352A",
"}  c #613C2D",
"|  c #613D31",
" . c #3E433B",
".. c #5C412B",
"X. c #454136",
"o. c #444037",
"O. c #4C4136",
"+. c #474239",
"@. c #45403A",
"#. c #45413B",
"$. c #45413D",
"%. c #46413C",
"&. c #45423C",
"*. c #49423A",
"=. c #48443A",
"-. c #48413D",
";. c #49443C",
":. c #4A463F",
">. c #4C473F",
",. c #46483F",
"<. c #4D493F",
"1. c #554135",
"2. c #5B4235",
"3. c #52423A",
"4. c #5B4439",
"5. c #62422C",
"6. c #69452F",
"7. c #624333",
"8. c #413F40",
"9. c #3F4440",
"0. c #444241",
"q. c #4A4541",
"w. c #4B4641",
"e. c #4A4542",
"r. c #4B4643",
"t. c #4C4743",
"y. c #464A42",
"u. c #4D4842",
"i. c #4E4945",
"p. c #4F4B45",
"a. c #424348",
"s. c #4F4A48",
"d. c #514B45",
"f. c #524D47",
"g. c #524D48",
"h. c #544D48",
"j. c #545047",
"k. c #555149",
/* pixels */
"i.6 6 9 f E f s s f f T U U ;.E 3 9 0 f I f q q 0 6 6 0 f s 6 f f s 6 6 9 s f f f W E %.t.3 0 T T f T T E f f f f E ;.~ 6 9 s f ",
"~ 3 9 s s f s 6 6 s s s s s ~ s 6 6 9 s s 0 3 6 0 E @.;.u.i.0 %.w.-.~ ~ ~ s 6 9 s ~ E T ~ ; 9 s s s s s s 6 6 s f s ~ s 6 9 s f ",
"3 ; 3 3 6 6 6 ; ; 3 6 6 6 6 6 3 ; 3 3 3 6 9 ~ %.;.<.>.@.%.i.9 0 T / w.t.w.%.@./ 0 6 9 6 3 ; ; 6 6 6 6 3 ; 3 ; 3 6 3 3 ; ; 6 6 6 ",
"/ @.@.@./ / %./ 6 f %.%.%.%.@.~ @.9 3 9 ~ %.w.w.@.E T E / i.9 9 T ~ T T T %.;.;.@.@.T 6 9 ~ / / @.%.%.~ 9 ~ ~ f ~ f f ~ / / s f ",
";.;.;.;.;.;.f.g.0 T ;.;.;.;.;.~ ~ ~ 0 9 ~ %.~ ~ E T f T ~ w.6 9 f T f f f T T ~ ;.u.@.%.@.~ / %.;.;.w.u.0 T @./ -.W E %.;.u.f f ",
"E E E U U E %.i.0 9 f E T T s 6 @.;.-.s 6 s f f f s 9 9 a f 3 6 9 9 9 9 s T E ~ -.~ f %.;./ 3 6 f T / u.9 9 f E U E U U E u.f 6 ",
"U f f U U U E o.9 9 f f 0 9 3 E ;.E @.%.s 6 9 9 9 6 3 ; ; ; - - - ; ; ; 6 9 9 @.f 9 f E E ;.u.E 9 q @.u.9 9 f E f q U U E u.f 0 ",
"U U U U f q q =.9 9 f f 9 3 9 E E U E -.@.0 6 ; > > - - - - - 3 1 1 1 - - ; < 9 9 a T E U W @.*.I 9 f u.9 6 f E q 0 0 U o.u.f 6 ",
"U U U E U 0 C <.9 9 s 6 6 0 f U U U E E %.T 6 ; - - - 1 4 3 1 N 4 4 7 4 4 ; > - 3 0 f T I U U W *.T s %.9 9 f E f 0 s E u.f.f ; ",
"U U U @.@.q U u.9 6 9 0 9 f E E E E f f d 9 ; ; 3 4 4 4 7 4 + Z x V F m x 4 1 ; ; ; 9 s I T E E *.;.f s ; 9 f E T T T E t.f.f ; ",
"E E U E E U E u.9 3 9 @.s 9 f E E E f a > o O 1 7 v x b V V @ F c F ] F M 4 4 4 1 - ; 6 s T I q T -.-.~ 3 6 s s s s s s f %.0 ; ",
"E E U U U U E u.9 3 0 o.@.0 0 f T E s ; - O 1 4 x b V F H 1.x F c F J S A x v 4 4 7 3 1 6 s 0 q E -.w.w.9 6 6 6 6 6 6 6 6 9 3 ; ",
"f f U U U U E i.9 6 f U o.@.0 0 f s 6 - - 7 v x b c M F H 2.x Z c F F D G F V x 4 B v 1 - 3 3 T i.%.~ w.~ 6 f f f f f 9 s f T f ",
"T f E E E E @.%.6 s E U I @.@.d 9 6 ; - 4 P P x F V V F D 2.x _ c F F F ] ] V x 2 x V B 4 - ; s l E E / d.0 %.t.u.i.d.~ ~ w.u.t.",
"f f f f f ~ ;.s 6 f f f I f @.%.9 - 4 q 8 V F c F F F F D 2.x F c F G G | ] F Z x m H ' m 1 ; 9 f I I E -./ 0 0 f T ;.~ 6 f E U ",
"s s 9 9 s s f 6 6 a 0 0 0 9 a f 6 - 8 O.B V F c F F F F G ] x V c A G G | J F ' m F H H M 4 1 1 8 8 0 0 s T 6 6 9 0 s 9 6 f E I ",
"6 6 9 9 9 9 6 6 ; 9 9 9 9 9 6 3 3 2 V 1.V b G A F F Z ] G ] x F V V P P P P B 3.L Q [ Q 4 0 3 3 a 0 8 0 0 6 3 6 9 9 6 ; 3 f f I ",
"%.s w.w.w.;.;.;.9 / w.;.;.w.f 1 L v F H m F ` G F x 7 [ _ P 2 P K u 7 a a 5 - 9 6 a 6 3 = > : i a.w.>.t.t.w.0 / ;.;.;.s 6 T E I ",
"w.9 ~ %.%.%.;.d.s f %.@.=.u.f 1 B x F ' B V ` F x 1 > s 7 4 - 7 7 7 1 - > > = - - - - o . # & , j f *.-.-.h.a / @.%.u.~ 6 %.f f ",
"w.3 s E E T @.i.s 9 T E ;.@.3 4 ' M F ' B V G G Z 7 1 N P ) 4 P B P P V P 0 N 3.N L ) B 1 3 - = = 6 I T / h.0 s I f ;.E 3 f s f ",
";.3 0 f E E t.d.0 6 I I w.@.; 1 ' M F ' V A S G F Z F F ` ' x F F F F F F V F 7.V ' H V B 4 v 4 : < s T T d.0 f U U ;.U 3 9 s I ",
"/ 3 9 s f s s s 3 6 s f %.f 3 4 ' M A ' B M S G A A A G F F z F F F F F F V A 7.V H G F ' x m v - - 6 s f t.6 s s f %.f 3 6 6 s ",
"6 ; ; 6 6 6 6 6 5 3 6 6 ; ; 1 x ' A F ' B V G G F F F F F P z F F F F F F V A J c F J J 2.M V b 4 - 3 3 5 6 3 3 6 6 s 6 ; 6 3 6 ",
"~ ~ f 9 s ~ E T 3 - - - - - 1 x F c F ' B V G A b v v v v v 2 x x x x x x B V F c F J J 7.M F F v - - - - - 3 s s E ~ ~ E 0 9 f ",
"u.u.%.T %.t.u.d.a / @.@.f - 4 V F A F ' B V F M 2 v 7 B B x x v v 7 7 7 3 7 v V v Z J J 7.M F _ v 1 f / @./ 0 ~ @.u.u.t.t.~ E =.",
"E T E E E U W u.s / ;.d.0.1 x F F G F ' B V F V x P V H H J F Q 4 7 u k a a 1 v v V G G ] M F _ v 1 T -.t.d.6 9 f U U f U U U U ",
"f E T T T T E u.9 9 f ;.%.- x A G G G ' v V F V x _ F G G ] F F x x v L y a 1 v x V G G ] M F _ v - 6 I W d.6 9 f T T T T T E U ",
"s E E T T T E u.9 9 f ;.%.1 x F G G G F v x x L 7 P F ] ] 2.F G F ] _ P 7 v x V x F G G ] M F _ v - 6 I W d.6 6 s f T T T T E E ",
"T E E E T T E u.9 9 f @.~ 1 x F G F J F v 7 1 a 6 7 v ] ] G G J J ] ` ` x Z _ V c F G G ] M F _ v - 6 s I u.6 0 f T E T T T E E ",
"T T E E f f E u.9 6 9 9 6 1 x F F F } G v 7 4 f 6 6 4 ' ] | J J F ] F F x P ' V c n F G ] M F _ v - 3 3 3 0 3 0 f E T f E T T U ",
"T f f f s f E i.0 0 0 s 6 1 x F A F J G x V Z P 4 v 2 b H 7.G G M B P Q 7 T N V x b F G ] V F _ v - 0 0 q 0 3 9 f E T f f f f q ",
"f f f s s f E i.s / ;.u./ 1 x F F F J F x V ` F x Z V m F 4.H ' 4 4 s ! a L 7 B x b F A F V F _ v 1 T -.>.t.6 0 f T T T E f q q ",
"U o.@.f s f ~ i.9 s / w.0.1 x V V F J J x F J ' z b B x v Z B B 4 4 u u 5 L v V x m F F F V F F 7 - 0 I o.d.6 9 / ~ s f %.%.q q ",
"U E @.@.s s / i.9 6 T ;.%.1 x F V F } 7.m M J ] c m v B B B 1 x c c v v 7 v V V x V F A F F A F 7 - 6 s U d.6 0 w.%.s f ~ ;.E 0 ",
"f E E %.~ s / i.9 9 f ;.%.+ x F A A } 7.V F J J J ] Z ' ' 1.4 V ] } ` F F V V F c b F A F F A A v - 6 s W d.6 0 %./ f ~ ~ ~ @.f ",
"0 s 0 s 9 6 s / 6 6 0 f s O x F F A } 7.F F J J G ] H ] ] 2.x F 7.} S F F V V F c V F F H F A F m - 5 0 q / 3 6 s 0 0 s s s s 9 ",
"3 ; 6 6 6 ; 3 9 ; 6 3 3 > - B F V F J 7.Z F J ] ` ] F ] ] ] x _ 7.6.S F F m V Z x V _ F ' F F ] V - 3 3 3 3 - 3 6 6 6 6 6 6 6 3 ",
"- a %.%./ s f %.9 %.%.%.f - v V b m F ] B V V P ' ' V ' ' [ 7 P 4.7.G F Z V V P x K P x 4 P F ' L - s W @.o.3 0 %.%.%.s ~ %.%./ ",
"- 9 %.w.-.f o.f.0 ~ ;.i.0.; 1 5 5 5 4 4 3 5 7 a u 7 6 a s f y 6 B B L L s a 6 5 5 5 5 - % u v v k y s *.=.d.6 s -.w.i.E f %.w.-.",
"- ; 0 f f f E u.9 6 q =.%.- = # * $ # = = : > w ; ; w < < y > : > 5 r y y i , - = = = # # > > = e e ; s U u.6 9 f f ;.E 3 f @.W ",
"- ; 0 f f T ~ i.9 9 f w.0.> = : * * ; T L v v v V Z K v B ) 5 v F _ L b V L L N 2 7 N 4 4 K B 7 > : ; s E u.6 9 f T w.E 6 @.;.T ",
"- ; 6 6 0 f ~ w.9 6 f 0.~ > = * * & 9 O.V V V V J J F F H 1.x V J } F F F V V F x b F F H V F ' L = 6 s f w.3 9 f f %.f 6 0 0 s ",
"6 ; 6 6 6 6 6 6 ; 6 6 9 ; - = & # & 0 O.Z F F M ..} n A F 2.x Z J } D F G A F F c b A G ] n G ] V - 6 6 6 9 3 6 6 6 9 3 3 ; 3 6 ",
"f f s s 9 3 0 s 3 s s f 6 - - = % % 7 Q Z ] ] V ..5.G A F 1.4 P } } G F G D V V x b F F ] F G | Z - 9 f f s 6 s f s f f f f s 6 ",
"t.w.t.w.T 0 @.u.0 %.u.i.%.; 0 7 2 2 F F c F G F 2.7.G A F 1.7 P J { G F G F M V x b F F ' F G } Z - ~ w.i.d.s %.w.w.u.t.t.i.w.f ",
"E E @.E 9 q o.<.0 0 E ;.%.- v V V V J ] m H G F ] 2.F A F 1.x V G S G F J G A F x b F F H F F } Z - 9 f / d.9 s T f E E ~ %.f 0 ",
"E E ~ f f U o.<.9 9 f ;.0.- v Z F F J 2.Z H J A ] ] F F F 1.x V G S F F J J A F x V F F H F G 5.Z - 6 s ~ i.6 s E s f T E ~ f f ",
"E T f f T I E u.9 9 f %.8.- v F V A G J m H J A ] J A A F 1.x Z G S F A J J A _ x V F F D F G 5.H - 6 s T i.6 9 ~ E f E f s f E ",
"T T T T T I E u.9 6 9 s a - x F V A G F c H ] F ] J F A F 1.x Z G G J A J J A F x V F F D F G 5.Z - 6 9 0 f 3 9 ~ ~ T E E %.E I ",
"T T T T f f E t.9 ; ; ; - 1 x F F V G F b H ] F ] ] G F F 4.x Z D G ] F J J A _ x m F F A F G 5.Z - ; ; ; ; ; 9 T T T T E t.E f ",
"T T E s 0 f E E 6 ; ; ; - + x F F F G F b H ] F F J G A F 4.x V F J ] F J J F F x V F F M n G 5.H - ; ; ; 3 ; 9 f T T T T E s 0 ",
"E E E f f T E ~ 9 w.i.s.~ 1 x V V V G J V F F M J | G A F 1.4 V F J 2.F F G A F x V F M V F S 7.Z 3 ~ >.<.<.6 9 f T T ~ ~ ~ f I ",
";.E E E E T ~ t.9 s / i.0.1 x V V M G ] F ] ] M J | J A F 1.4 Z F J ] F F G A F x m F V V F G J V - 0 E @.d.6 9 f T T T T T E E ",
"/ / ~ f E T / i.s 6 f w.0.1 x V V V J | H ] F M F J G A F 1.4 V F J | F ] ] A F x b F V V F G ] V - 6 f U u.6 6 f T ~ ~ %.~ f T ",
"~ ~ ~ f ~ ~ / i.s 9 f w.0.5 x V V V G J H ] A A A G G A F 4.4 V F J | F ' J F V x b F V V F G | Q - 6 f E f.6 3 0 f T ~ %.f f E ",
"f s 9 s s s s ~ 6 6 s l k 1 x V V V G J H ] A F G G G A F 1.4 V F J } F Z A V V x b V M Z ` G | ' - 3 0 s / 6 3 3 9 f f 9 9 s s ",
"6 6 ; 6 6 6 3 6 ; ; 3 6 ; - x V V V G J H ] G J J G ] G F 1.4 V F J } V m c c P x b b M H ] A J Z - ; 3 3 3 ; ; 3 3 6 6 ; ; 6 6 ",
"9 9 %.%.%.@.f 0 @.%.@.%.f 1 v _ V V J 2.' ' F | | F ] ' F 1.4 m F J ] m v v b P 7 B B m B [ V ] P - f @.@.*.@.@.@.%.@.s f %.0.%.",
"@.9 @.;.;.;.W E ;.;.;.u.%.1 x V b F F F V Z c J F 7 0 L P 3.4 0 V Q P a y 6 7 5 > ; 3 - > a s s k p f %.-.=.;.;.u.k.h.~ s 0.w.;.",
"E 3 q E E E U f f f U ;.%.- v b c c A A c m b G x < > 1 4 8 O - 6 s 0 < , - - % = = = # $ : > : t e > f I I T f E <.j.E 6 f E E ",
"@.3 0 f E E U U U U U =.@.; 4 x b x c V x v x V v 5 3 4 x B + 4 4 7 L 7 5 7 x x 4 7 5 1 5 7 7 2 - : ; a 0 T T f U o.u.E 3 s f U ",
"%.3 9 s f f f f f f E i.,.- 1 4 v 4 7 N 7 4 1 4 v V ' ' F 3.4 B 2 2 P B v V V ' 4 4 4 7 7 v V H 8 = < a 9 f f f f f %.f 6 a d f ",
"6 ; 3 6 6 6 6 6 6 9 a %.l = = - 1 5 1 - - =   . 2 V H F c 4 o 7 1 X 4 4 7 4 v Q ;   . - > - v Q 0 # > 6 6 6 6 6 6 6 a 6 ; 6 6 6 ",
"@.9 @.;.,.f 9 f q ,.;.,.%.0.0.%.6 l f l 9.0.l l %.*.I W >. . .y. .,. .0 9 d ,.,.d d %.,. . .d f ,.,.%.d 0 =.,.=.s f f @.y.,.E @."
};
