/* XPM */
static char *a1a79_6rh6t[] = {
/* columns rows colors chars-per-pixel */
"64 64 256 2 ",
"   c #13110E",
".  c #1B1C1C",
"X  c #2B0E08",
"o  c #360D05",
"O  c #2B1809",
"+  c #32130C",
"@  c #36180B",
"#  c #2B1A18",
"$  c #361A17",
"%  c #3A1C1B",
"&  c #1B2510",
"*  c #2C230E",
"=  c #2A241A",
"-  c #372317",
";  c #1B1A29",
":  c #0E1B34",
">  c #1C1E33",
",  c #191C38",
"<  c #271C28",
"1  c #361B25",
"2  c #281D37",
"3  c #361C37",
"4  c #1B272A",
"5  c #0E2A33",
"6  c #0E2A38",
"7  c #1E2335",
"8  c #1D2933",
"9  c #1E233B",
"0  c #152938",
"q  c #1C2A3B",
"w  c #1D313C",
"e  c #262629",
"r  c #29232C",
"t  c #33262B",
"y  c #222435",
"u  c #2A2334",
"i  c #252C34",
"p  c #2B2C33",
"a  c #22243A",
"s  c #2A243C",
"d  c #242A3D",
"f  c #2A2B3D",
"g  c #332739",
"h  c #28313B",
"j  c #363437",
"k  c #4F1805",
"l  c #6B300D",
"z  c #783904",
"x  c #4C2024",
"c  c #6D3428",
"v  c #3D4B3E",
"b  c #694616",
"n  c #714614",
"m  c #5C5333",
"M  c #6B4628",
"N  c #705530",
"B  c #756539",
"V  c #1C1E42",
"C  c #271E43",
"Z  c #351B40",
"A  c #1D2343",
"S  c #152B44",
"D  c #1C2D43",
"F  c #182748",
"G  c #1C2C4B",
"H  c #1C3146",
"J  c #0E2D52",
"K  c #1A2C56",
"L  c #232543",
"P  c #2B2542",
"I  c #262A45",
"U  c #2A2B44",
"Y  c #24244A",
"T  c #2B264A",
"R  c #252B49",
"E  c #2A2C4A",
"W  c #342A47",
"Q  c #322C44",
"!  c #283146",
"~  c #2D314C",
"^  c #313346",
"/  c #33344B",
"(  c #373A4C",
")  c #252955",
"_  c #293355",
"`  c #353855",
"'  c #363A54",
"]  c #3B3D52",
"[  c #193063",
"{  c #4D3C42",
"}  c #3E4158",
"|  c #434459",
" . c #6C514B",
".. c #756C4A",
"X. c #787747",
"o. c #474A65",
"O. c #4D516B",
"+. c #515367",
"@. c #624A60",
"#. c #B64817",
"$. c #B04F14",
"%. c #9D5E21",
"&. c #B74624",
"*. c #BB512E",
"=. c #8A6F36",
"-. c #B3712E",
";. c #C4571F",
":. c #CF6F16",
">. c #C77A1A",
",. c #D37C1A",
"<. c #E27D1F",
"1. c #C75033",
"2. c #CD6A2F",
"3. c #CB7829",
"4. c #D77828",
"5. c #D47B2D",
"6. c #CB7A36",
"7. c #D97636",
"8. c #D37B33",
"9. c #D5743D",
"0. c #D57A3C",
"q. c #DB7A3C",
"w. c #E37A29",
"e. c #E47637",
"r. c #915B55",
"t. c #8A674B",
"y. c #976B48",
"u. c #967446",
"i. c #8A7352",
"p. c #AC6E5A",
"a. c #B46F55",
"s. c #B9785C",
"d. c #9A7670",
"f. c #A77566",
"g. c #B87A64",
"h. c #CA5942",
"j. c #D46C4F",
"k. c #C77848",
"l. c #D77747",
"z. c #DA7A44",
"x. c #C97A57",
"c. c #D77856",
"v. c #E4744F",
"b. c #CA7D66",
"n. c #DD7465",
"m. c #E67265",
"M. c #7F844E",
"N. c #AD872D",
"B. c #D98617",
"V. c #FAB20B",
"C. c #F9AB1B",
"Z. c #FAB51C",
"A. c #D78729",
"S. c #C88438",
"D. c #D58536",
"F. c #D29030",
"G. c #EE872E",
"H. c #EB9A2A",
"J. c #F99927",
"K. c #E68835",
"L. c #EB983A",
"P. c #F59636",
"I. c #D9AE2F",
"U. c #E9AB29",
"Y. c #FAA927",
"T. c #FEAD2C",
"R. c #EBB42A",
"E. c #FDB323",
"W. c #F4B42C",
"Q. c #FCB32C",
"!. c #F8BA28",
"~. c #EAAB37",
"^. c #FDAC34",
"/. c #F7A738",
"(. c #F3AB3C",
"). c #FEAC3C",
"_. c #EBB538",
"`. c #F4B434",
"'. c #FDB234",
"]. c #F5B33B",
"[. c #FDB33C",
"{. c #FBBB3A",
"}. c #FFC533",
"|. c #908655",
" X c #BB8850",
".X c #8E8B69",
"XX c #BC8977",
"oX c #C98444",
"OX c #DA8144",
"+X c #CD954E",
"@X c #C98457",
"#X c #D78355",
"$X c #ED8A4D",
"%X c #EA9646",
"&X c #F89B49",
"*X c #F89A54",
"=X c #D4B04E",
"-X c #EAA544",
";X c #F5AB43",
":X c #FDAC43",
">X c #F7A649",
",X c #FDAC4B",
"<X c #E8B548",
"1X c #F4B443",
"2X c #FCB243",
"3X c #F7B749",
"4X c #FEB24C",
"5X c #E8A85C",
"6X c #FEAD52",
"7X c #F9A957",
"8X c #EAB559",
"9X c #FEB353",
"0X c #F7B658",
"qX c #CA8565",
"wX c #CD8966",
"eX c #CC896B",
"rX c #D58665",
"tX c #CC8978",
"yX c #FC9A73",
"uX c #D6B26A",
"iX c #EAA865",
"pX c #FCAC65",
"aX c #EAB667",
"sX c #F8B664",
"dX c #EBB873",
"fX c #F7BB77",
"gX c #DCC05F",
"hX c #FFDC4A",
"jX c #FCC651",
"kX c #FFD855",
"lX c #FFDB5C",
"zX c #FFE64D",
"xX c #FBE759",
"cX c #F1EA5C",
"vX c #FCEB5B",
"bX c #F6C669",
"nX c #FBD966",
"mX c #FEDA76",
"MX c #FFE464",
"NX c #F7EB66",
"BX c #FEE36B",
"VX c #FDEC6A",
"CX c #F9F265",
"ZX c #EFEE72",
"AX c #FCE875",
"SX c #C97D81",
"DX c #C99580",
"FX c #EBBE84",
"GX c #EDC88E",
"HX c #FDD984",
"JX c #FEE887",
"KX c #FAF487",
"LX c #FAEA96",
"PX c #FAF298",
"IX c #F6EEAD",
"UX c #F8F7C7",
/* pixels */
"a a a a 9 9 d I I I U I U I L L I U I I I a / I 9 E L I I I L a a > f a ^ y y > f a > > f y y 7 f y y d y 7 9 d 9 L ~ L R E I I ",
"a a a a 9 9 d I I I U L U E ~ ~ ~ E I I U U L ` ~ 9 ` ` I I a / ^ 7 7 > ] ^ ^ y 7 s ^ y ^ a a y ( f f 7 a ^ ] ` ` E A I I R I I ",
"a a a a 9 9 d I I I U I I L 9 A L I E I E E 9 o.o.E O.} I U E } ] f > d | / | ( a Q o.^ ] d f d | ] ] 7 d ( o.} } ~ A E I I I I ",
"a a a a 9 9 d I I I U L I E ~ ~ E R I I E R L o.o.o.O.` 9 I ` ` } f > d | f } ( a U | ( ] > y y | ^ ^ a > a ` U E L L R I I I E ",
"a a a a 9 9 d I I I U R L L L L L I R E E L R o.` o.` ] I U O.` o.^ f 7 +.| | ^ y Q | | | y U f | f y d > a | ~ I L E R R R R I ",
"a a a a 9 9 d I I I U R R R R R R R R R L R _ ` ~ ~ ` ] I ` } a ^ } d f ^ ] ] U a U | y ] ] a a | +.] U a I ` ` R A R R I R R R ",
"a a a a 9 9 d I I I U R I I I I I I I I L L E E I L E I , I U ; 7 U > y > y a a > 2 a y a a 7 > 7 y a d 7 9 I U L L R I I I R R ",
"a a a a 9 9 d I I I U R I I I I I I I E I I E E L L I I I U I 9 a d 7 f y > a f a a a a > y f d 7 7 d a 7 9 q L I R E I I I R R ",
"a a a a 9 9 d I I I U I I I I I I I I U I I E E I I E L U I 9 a a y y a y a a a y a s > y a a a d d a 7 a a I I E E R I I I I R ",
"a a a a 9 9 d I I I U I I I I I I I I I L I I I I I U L E I 9 a a 7 a 7 y a a y > a s a d a 7 7 a a > > 9 a L I E R A I I I I R ",
"a a a a 9 9 d I I I U I I I I I I I I I I I I I I I I I ~ U a a d a d d a y a d d a a U a a a d a a a a a a a L R R R I I I I I ",
"a a a a 9 9 d I I I U I I I I I I I I U U U I I I I I I I L 9 > 7 y a y 7 > > a a a > a > > a a y 7 a d a q L I R R E I I I I I ",
"a a a a 9 9 d I I I U I I I I I I I I I I I d d I I I E I I L 7 a d a y a a a a a a a a a a a a d a > 7 7 9 I E R L R I I I I I ",
"a a a a > a U U d d U q ! 4 j p s P T V a 8 i e e 7 a 4 4 4 4 . . . . = e . < < ; < < & & 4 D F F L y y 8 0 S G R W g U U U U U ",
"a 7 I ~ a 7 a f d a f R U < g t 3 g @.@. .m N N N  ...B B B B N N B B m B B B X.X.X.X.X...v 5 S R L Q d a q S G I P g d d d a d ",
"a ^ | | / a a a a a a T P 2 u t 1 x d.XX@X5X0XsXsXfXfXpXpXsXsX8X8X8X8XgXJXPXKXKXKXZXZXIXUX.Xi I _ 2 s f d D S S A s 2 a a a a a ",
"} O.+.| / a a a a a a C C s u t 1 o g.x.D.P.Y.T.).9X>X7X6X6X6X6X0X0X8X=XnXKXAXZXVXcXCXHXIXi.  y / s Q g f D S S A a 2 a y y y y ",
"+.o./ I a a a a a a d , 9 I 7 u t X p.k.4.J.^.[.H.D.oX#X@X@X@X@X@X X X XuXuX=XuXgX=XbXJXPX|.= r Q W u g f D D S A a s a a a a a ",
"` U L a a U U a a a a 0 0 w 5 0 i # f.@X2.P.4X6Xz o o X X X + $ # # # # O X @ =. Xk.iXBXHX=.- e s W W g f I D S A a s a a a a a ",
"a a R R U ~ U a 9 9 a 8 8 0 6 6 0 < d.qX6.%X7XdXM # U 0 0 0 q I I I R ` U < 1 r.b.x.yXAXJX=.* p P W W s U I D S 9 a u a a a a a ",
"U U a a L d a 7 7 a a u y 0 H S , < d.s.z.%X5XFXm : J 6 6 6 w H H S G G I g x r.qXj.yXAXKX=.& h E T T P U U D 9 9 y u a a a a a ",
"R R I I R R a a a a a 3 2 a 9 A a 1 f.x.8.P.9XdXm 4 S 8 4 8 i h q D D R q p - y.@X0.*XAXJXi.& q ) ) Y W U I D q 7 y r a a a a a ",
"R I I I R R a a a a a 3 3 C P P 2 % g.l.w.J.2XsXb & 5 u u r g g f d I ! q e - t. XS.&XAXPXM.4 D K ) ) T U d q 0 7 y r a a a a a ",
"L L R I R R a a a a a Z 2 P L P 3 % p.l.w.J.:XsXn * 4 s 2 3 g g g I R G D i = t. XS.>XAXLXX.4 S K [ ) P f d a 0 7 u u a a a a a ",
"L L R R R U a a a a a C 2 q 9 a < $ p.c.4.P.6XsXn # u L a a s g P L R G G d t t. XS.>XAXLXX.4 S K ) ) P U f a q 7 y y a a a a a ",
"R R E R R R a a a a 2 A 9 0 0 8 e $ f.x.0.%X7XfXM # s S 0 9 d f f I R G R U t t.@X0.&XAXLXi.e D K ) Y W f i f q 9 a a a a a a a ",
"E E L U R R a a a a a L 9 q 8 e e $ f.x.0.%XsXdXM # u S 0 q i p f f U R R i - t.@X8.&XjXmX=.= L ) ) T g g p a q 9 A L a a a a a ",
"E R L U R R L a a a a P a y e r $ @ p.x.6.L.0XaXb O = S 9 y u g g g P E R s $ t.@X8.$X].0X=.O a Y T W g t p i 0 A A F a a a a a ",
"R E E I R R L a a a a 2 2 2 < $ $ o p.k.6.L.3XaXb O * A , 2 3 3 3 3 P T T s $ r.x.9.K./.0X=.@ u Y Y s < r e 8 9 S F F a a a a a ",
"R R I E V ) D 8 # c l c c c l z l l a.oX3.%X7XsX%.z z l l b b b b M M c M c n -. XS.+X_.3X>.z z M b n n l M { , ) Y a a a a a a ",
"R I I ~ Y R 6 4 t g.rXSXDXqX XiXbXiXsXpX7X4X(.9X-XsXfXdXdXdXaXaXaXaXdXdXfXdXaXsX0X(._.U.jX4X7XfXFXuXuXaXdXGXd.y 9 9 U a a a a a ",
"R I I a L _ G 8 $ p.b.b.x.k.3.~.0X3X;X;X2X{.W.W.].3X3X1X1X].]._._._._.1X1X1X[.'.Q.E.E.R.`./.:X0X8X8XbX~.8XuX..  7 d u a a a a a ",
"R I I U I R S 8 $ p.x.c.6.D.A.H.~.]./.H.J.C.!.E.!.W.]./.^.'.Q.Q.E.E.Z.Q.Y.Y.Q.Y.Y.E.E.{.Q.'.[.2X~._.`.}.jX8X=.O j i ; a a a a a ",
"I I d ^ E A 0 4 - g.rXl.0.D.B.~.4X4X,.,.,.B.Q.C.E.Y.{.,X,X2X[.^.T.T.Q.Q.T.^.).^.T.Y.J.W.Y.Q.'.'.`.!.Z.V.Z.<X=.O e y u a a a a a ",
"I d d a U R I e + p.j.v.l.7.4.>X6X7X8.5.A.P.4X^.[.[.(.7X,X,X:X).).).).:X:X,X,X,X,X,X:X{.{.'.T.T.'.!.V.V.Z.3X=.O ; > s a a a a a ",
"I d f s ^ I q 4 + g.n.m.l.9.5.7X*XpX$X9.7.K.>XP.:X4X4X6X,X,X,X4X4X:X/.L.,X,X>X:X,X:X:XU./.^.^.).[.Q.V.V.Z.;X=.# f R E a a a a a ",
"I d f f Q L q e @ s.c.j.v.z.2.*X7XpX9.z.9.$X9X,X:X2X;X].`.`.2X4X;XA.>.>.L.;X(.2X2X`.`.1X2X).).:X).^.Q.C.'.0Xy.# a A V a a a a a ",
"I d i f Q U q e @ s.c.v.z.7.4.L.6X7XOX9.q.%X,X:X^.[.].E.!.U.[.(.6X3.D.3.-X,X3X`.`.U.!._.].).:X,X,X:X^.T.).7Xy.# A A A 9 9 9 9 9 ",
"I d i s U I d e @ s.c.z.q.4.,.H.:X9XD.8.8.L.:X[.Q.W.W.C.Q.T.2X6XpX0.9.2.*X*X>X(.{.!.!._.`.^.).,X6X,X).^.:XiXy.# d D D L I I I I ",
"9 8 y y s a d p - s.c.l.q.4.,.H.[.9XD.8.5.L.:X'.Q.W.W.E.'./.:.$.&.&.*.&.j.2.4.A./.Y.Y.R.W.Q.).,X,X,X).^.:XaXu.= d w w U U U U U ",
"9 7 y 2 a q d p - g.c.c.z.5.,.H.2X9XD.6.8.L.:X[.`.Q.W.Y.{.4X:.#.&.1.h.*.v.e.7.G.4X[.'.R.!.E.^.).:X2X'.T.[.8Xu.= h w h I I I I I ",
"a a y y s 9 q p - g.c.c.c.0.4.L.,X9XD.6.0.%X6X:X^.'.'.C.T.:X:.;.1.1.&.&.v.e.4.G.).^.Y.!.E.E.T.).2X].Q.E.'.8Xu.= h w h I I I I I ",
"a a y s P q q i - g.c.n.c.9.5.L.,X9XD.6.0.%X6X,X).).[.{.[.4X:.$.#.1.&.#.e.e.w.G.2X).^.W.Q.T.^.).[.].Q.E.'.8Xu.= f L I I I I I I ",
"9 7 u a P L q i - g.c.n.c.9.4.L.:X9XD.8.0.%X,X:X).^.^.U.(.6X8.$.&.*.&.#.7.4.4.K.4X,X,X].^.^.).).:X].E.Z.'.8Xu.# R R T I I I I I ",
"a a y 2 s L D i - g.c.n.v.q.4.H.:X4XD.8.8.%X,X).^.^.'.0X0X7XOX*.1.h.*.*.9.7.D.L.7X7X7X2X).).).:X:X].E.Z.Q.8Xu.< T ) ) I I I I I ",
"q q q a Y F G f - s.c.m.v.2.7.%X8X5XS.OXe.&X,X).2X:X,X2X(.[.2X2X0XOXoXk.5X0X;X].[.(.(._._.1X;X;X).^.^./.0XdXy.$ Q ) K I I I I I ",
"q q 9 a Y F G f - s.c.n.m.e.K.L.<X8XD.5.:.P.:X/.[.[.).[.^.^.^.).9X6.6.2.%X>X/.^.'.^.2X`.].(.;X:X).T.T.'.4XaXy.# u L G I I I R R ",
"q q 7 a Y F G f - s.c.j.v.7.4.L.<X<XS.8.4.P.2X'.'.^.^.^.T.T.^.).9XK.q.7.&X4X).'.T.Y.).Q.'.).).).^.T.E.T.2XaXy.$ g U _ I I R R R ",
"8 8 y a Y A D p - s.c.c.OX5.B.1XnXnXF.3.:.P.^.W.W.Q.'.'.^.Q.T.T.:X4.4.4.P.).^.Q.T.T.'.E.T.^.).).^.E.E.Q.2X8Xy.@ t y a I I I R R ",
"7 8 y y P A I p - s.c.c.OX5.>.jXAXmXS.D.4.P.[.R.R.W.'.'.Q.Q.Q.T.:XA.e.4.&X).^.'.Q.T.[.E.T.^.).).^.E.E.!.1XaXu.- j Q E I I I R R ",
"7 8 y y P A I p - s.c.k.l.8.>.0XmXmXoXS.3.L.1X_.I.U.U.U.U.R.R.`.2XA.5.3.%X;XU.R.R.U.U.U.U.~.~.~.U.U.R.U._.uX=.O p d A R I I I R ",
"7 8 y u P A L p - s.c.x.c.OX3.bXmXHX+Xk.6.7XmXMXMXMXMXAXVXMXxXlXnXF.S.S.0XnXlXlXMXMXBXxXMXMXmXBXMXvXvXvXAXLX.X= h R F R I I I I ",
"7 8 u u P L L p $ s.c.c.l.9.3.sXHXHX+Xk.6.sXAXAXMXnXnXZXNXNXVXVXAX+XN.N.bXAXMXNXVXZXZXvXMXBXAXAXNXNXcXcXKXLX.X. I G K R I I R R ",
"7 8 u s 2 E D p @ b.j.c.l.z.4.9XmXHX+X6.-.sXAXBXVXxXMXZXcXNXcXNXnXI.N.N.=XAXVXcXCXZXZXcXNXZXZXZXNXNXcXCXZXPX|.e ! R F R I I I R ",
"7 4 r u 2 L D p @ eXc.c.l.7.:.L.-X8XS.S.3.0XBXvXCXNXVXZXNXCXvXvXVXBXAXAXAXVXvXvXCXNXcXvXvXNXZXZXNXcXcXcXZXPX|.= ; 9 ~ I I I R R ",
"7 4 u < C A R h $ g.a.l.9.w.<.).3X3XF.A.3.3XMXvXvXzXkXVXvXvXzXzXzXlXBXMXlXhXzXzXxXvXVXzXxXvXMXMXvXxXzXvXVXLX|.- t p d I I I R R ",
"7 4 y s T : S h - tXx.l.OX4.:.H./.1XA.>.>.].kXzXvXxXlXlXkXhXhXhXkXkXkXjXkXkXzXhXhXkXMXhXhXlXlXlXkXhXhXhXnXJXu.@ t g f I I I I R ",
"7 8 y a E V G d # f.x.x.#Xe.<.J./.2X;X,X/.2X1XI.I.~.~.;X~.U.U.R.`.].~.3X].W.U.U.U.~.~.R.R.~.~.~.~.R.R._.I.uX=.- t u U I I I I R ",
"8 y y ; E K _ D t f.b.s.x.2.w.,X:X,X,X,X&X:X;X~.<X4X6X6X9X:X[.[.(.;X>X;X;X(./.^.2X9X6X[.2X4X6X6X4X2X2X1X8XGXt.$ Q E G R I I I I ",
"8 8 y s Y F S D j f.tXtXtXk.7.%X&X>X7X*X*X>X,X>X>X*X*X$X*X&X,X:X-X7X7X%X>X>X;X/.&X*X*X/.&X*X*X*X*X>X-X-XaXGXi.< L K [ I I I I I ",
"8 8 y s V K K H e x k k p.c.z.5.5.5.5.7.e.4.4.3.8.q.v.z.q.:.4.A.3.D.6.S.6.3.3.4.5.7.z.4.5.0.0.0.0.8.A.$.k k - a _ J [ R R I I I ",
"a a a 9 a a I R U E R k x.x.k.#Xk.#X9.q.q.q.q.z.z.z.z.OXq.q.z.z.z.l.z.z.z.z.z.z.z.z.z.e.e.e.e.e.e.l.@Xt.o # t e g u g R R R R U ",
"a a a a a L I I I I I o f.XXDXtXs.eXeXwXrXrXrXrXwXwXwXwX@XqXwXwXwXeXwXwXwXwXwXwXwXwXwXwXwXrX#XrXrXeXtX .= p h y / Q Q R R R R U ",
"I I I R U I I L a a a u g < # # # + X + + + X + + + + @ + + $ % % % % % % % % % % % % r t $ % % % 1 1 j 7 ! 0 : I 9 a a a a a a "
};
