/* XPM */
static char *a066u_d8uz0[] = {
/* columns rows colors chars-per-pixel */
"64 64 255 2 ",
"   c #181A12",
".  c #281503",
"X  c #321003",
"o  c #28161A",
"O  c #361917",
"+  c #3A1914",
"@  c #17220B",
"#  c #2A2607",
"$  c #3A2706",
"%  c #39330D",
"&  c #2A2718",
"*  c #372618",
"=  c #1D192A",
"-  c #031C30",
";  c #1A1D35",
":  c #2B1A24",
">  c #231A29",
",  c #2C1F2D",
"<  c #341E24",
"1  c #221E32",
"2  c #271E39",
"3  c #2D1E3B",
"4  c #331D3A",
"5  c #1B2428",
"6  c #1C2A2C",
"7  c #1D2435",
"8  c #1C2A33",
"9  c #1D243B",
"0  c #15283A",
"q  c #1A2A3C",
"w  c #133235",
"e  c #25242C",
"r  c #2A232C",
"t  c #222A2D",
"y  c #292828",
"u  c #382725",
"i  c #33242B",
"p  c #232434",
"a  c #2B2333",
"s  c #242B33",
"d  c #2B2A36",
"f  c #22243A",
"g  c #2A243B",
"h  c #242B3D",
"j  c #2A2A3C",
"k  c #322532",
"l  c #33223C",
"z  c #372838",
"x  c #332B3C",
"c  c #263137",
"v  c #333033",
"b  c #481707",
"n  c #472707",
"m  c #48271A",
"M  c #532C15",
"N  c #683C0B",
"B  c #6B3C15",
"V  c #743610",
"C  c #4D322B",
"Z  c #6C302A",
"A  c #653E37",
"S  c #633E3B",
"D  c #574512",
"F  c #664505",
"G  c #6D411C",
"H  c #4B423D",
"J  c #705137",
"K  c #796E3D",
"L  c #291E42",
"P  c #311C47",
"I  c #072E46",
"U  c #1D2543",
"Y  c #1D2C44",
"T  c #172648",
"R  c #1D2D4C",
"E  c #183347",
"W  c #1C2555",
"Q  c #183054",
"!  c #232442",
"~  c #2B2645",
"^  c #252A45",
"/  c #262947",
"(  c #262A47",
")  c #292B44",
"_  c #25244B",
"`  c #2B264B",
"'  c #242B4A",
"]  c #2A2B49",
"[  c #2F2E4E",
"{  c #293147",
"}  c #2D314B",
"|  c #323449",
" . c #2A2854",
".. c #21235B",
"X. c #363954",
"o. c #533E45",
"O. c #3C4255",
"+. c #58444D",
"@. c #474755",
"#. c #5B4B57",
"$. c #5C4B55",
"%. c #4D5167",
"&. c #756661",
"*. c #9D3A1E",
"=. c #8E5F1F",
"-. c #B24B0E",
";. c #B16913",
":. c #965C38",
">. c #B15030",
",. c #AA7928",
"<. c #B6732D",
"1. c #DF6917",
"2. c #CB7517",
"3. c #C5502F",
"4. c #C77C29",
"5. c #D57A29",
"6. c #D06933",
"7. c #CC7B35",
"8. c #D37B34",
"9. c #D87738",
"0. c #D47B3C",
"q. c #E4742B",
"w. c #E57736",
"e. c #F17134",
"r. c #9F785F",
"t. c #B7784A",
"y. c #8F746E",
"u. c #CC7D46",
"i. c #D27C43",
"p. c #D97A43",
"a. c #D1754D",
"s. c #DA7749",
"d. c #D3794B",
"f. c #D97A56",
"g. c #E57849",
"h. c #EB7F50",
"j. c #DA7966",
"k. c #DD7478",
"l. c #798544",
"z. c #B7880F",
"x. c #A7A01E",
"c. c #B5882C",
"v. c #AFAB3B",
"b. c #D28C1D",
"n. c #D7A719",
"m. c #FAAA1E",
"M. c #FAB01D",
"N. c #C7842A",
"B. c #D78129",
"V. c #CD952D",
"C. c #CA8438",
"Z. c #D78537",
"A. c #E78F32",
"S. c #EB983B",
"D. c #F89B3A",
"F. c #D9AE2E",
"G. c #E9A928",
"H. c #F8AA27",
"J. c #FDAC2C",
"K. c #E5B22A",
"L. c #FAB528",
"P. c #FEB42C",
"I. c #ECAA3B",
"U. c #F7A637",
"Y. c #FEAB34",
"T. c #F4AD3B",
"R. c #FFAC3B",
"E. c #E9B53A",
"W. c #FDB234",
"Q. c #F8B638",
"!. c #FDB23C",
"~. c #F3C738",
"^. c #8C8651",
"/. c #BD8857",
"(. c #B2955D",
"). c #BB965B",
"_. c #B5A843",
"`. c #938874",
"'. c #BE9762",
"]. c #B48C70",
"[. c #C98448",
"{. c #D58346",
"}. c #D8974C",
"|. c #C7865A",
" X c #D5875C",
".X c #ED8E4E",
"XX c #E89645",
"oX c #FA9B48",
"OX c #E59555",
"+X c #CDA444",
"@X c #D5AA4C",
"#X c #DCB656",
"$X c #EBA748",
"%X c #FEA444",
"&X c #F5AD42",
"*X c #FDAC43",
"=X c #F5A749",
"-X c #FDAC4B",
";X c #ECB548",
":X c #FCB244",
">X c #F7B748",
",X c #FDB34B",
"<X c #E7A858",
"1X c #FEAA52",
"2X c #F9A959",
"3X c #EAB757",
"4X c #F7B757",
"5X c #FDB353",
"6X c #C28461",
"7X c #C78766",
"8X c #CD8965",
"9X c #D38A62",
"0X c #CB9373",
"qX c #EA9B67",
"wX c #D6B070",
"eX c #E9A867",
"rX c #FCAC65",
"tX c #E8B867",
"yX c #F8B866",
"uX c #E9A675",
"iX c #EAB975",
"pX c #F6BA74",
"aX c #FBD84C",
"sX c #E4CD58",
"dX c #FDC459",
"fX c #FEDC57",
"gX c #FDE658",
"hX c #FEE45C",
"jX c #D3CA61",
"kX c #EAC46A",
"lX c #FBC668",
"zX c #FCD969",
"xX c #E9CF79",
"cX c #FDC374",
"vX c #FAC977",
"bX c #FEDB78",
"nX c #FEEB62",
"mX c #F8E867",
"MX c #FDE46A",
"NX c #FCEB6B",
"BX c #F9F268",
"VX c #EDEB70",
"CX c #FBE777",
"ZX c #FBF377",
"AX c #DEA78C",
"SX c #F0B989",
"DX c #EBD28E",
"FX c #FCD885",
"GX c #E7CC94",
"HX c #FDE885",
"JX c #F8F888",
"KX c #EEEA91",
"LX c #F9E598",
"PX c #FBEBB2",
"IX c #E9DFC6",
/* pixels */
"( ( ( ( ( ( ( ( ( ( ( ( ( q 0 q q 9 U U W W W W W W q q q q q q 9 9 f f ! ( ` ` `  .~ ( ( ( ( Y Y ' ( ' ` ] ] ( ) ) ( ] ( ! f f ",
"( ( ( ( ( ( ( ( ( ( Y Y Y q 0 q U U U U W W W W W W U U U U U U U U ! ! _  . . . . .) ) h h q q Y ( ( ] ] ] ] ( ( ' ( ] ( ! f f ",
"( ( ( ( ( ( ( ( ( ( R R ( 9 f f f f f f f f f f 3 3 L L L L _ _ _ _ _ L _  . . . . .) h h h h h h ( ) ( ( ] ] ( ' R ( ] ( f f f ",
"( ( ( ( ( ( ( ( ( ( ( ( ~ L 3 4 4 , r e e y y u < < 3 3 3 3 3 3 g g g 2 ~ ` ` ` `  .h h h h h h ( ( ) ) ~ ( ( ' R R ( ] ( f f f ",
"( ( ( ( ( ( ( ( ( ( ( ] ~ L 4 4 4 , r y y & & * O + r r r r e e e e p p s j ) j j ) h h ( ( ( ' ( ) ) ~ ~ ) ( ' R R ( ] ( ! f f ",
"( ( ( ( ( ( ( ( ( ( h ( ~ 3 L P 3 2 p t 6 t y r i < 6 6 6 6 6 6 6 6 8 8 s h j j j ) h ( ( ' ' ( ( ( ~ ~ ~ ) ) ' Y R ( ] ( ! f f ",
"( ( ( ( ( ( ( ( ( ( c c h f L _ _ ! ( 0 Y Y 9 9 L ` w w w w w w 0 0 q 0 ( ] ! ! ~ ] j f h } '  . .` ~ ~ j j h ( Y Y ( ] ( ! f f ",
"( ( ( ( ( ( ( ( ( ( 6 c q 9 U _ _ U U 0 0 0 0  . .U q q q q q q Y Y ( 9 ( ! ] ( ! 2 i a j f _  . ._ ` ~ j j h h Y Y ( ] ( ! f f ",
"( ( ( ( ( ( ( ( ( ( s c h 9 U U U f h e r r = = e = o o o o o o o o r : =   y y v y & o i > ! X. ._ ` ( j j h h Y Y ( ] ( ! f f ",
"( ( ( ( ( ( ( ( ( ( k d g ! U ! g , u J J J J K K K >.>.:.:.:.:.:.:.K :.K ^.^.l.l.l.^.y.`.&.) [ _ _ ` ( ) j h h ( Y ( ] ( ! f f ",
"( ( ( ( ( ( ( ( ( ( z l ~ ! ! f a O A 0X X[.pXvXtXtXrXrXrXrXrXyXyXtXtXkXjXJXJXJXVXJXLXLXPXIXv g f  .( ( ) j h ( ( ' ( ] ] ! f f ",
"( ( ( ( ( ( ( ( ( ( l ~ ~ U U 9 e O B  X0.5.5X=X@XdX2X2X2X2X2X3X3X3X3X#X@XCXCXZXZXZXCXHXLXPX# r ) } ( ( ) ) ) ( ( ( ( ] ] ! f f ",
"( ( ( ( ( ( ( ( ( ( l ) ' T I 0 7 o Z f.0.Z.1X=X}.V.(.(.(.(.(.(.(.(.(.(.).wXwXwXxX@X~.NXxXLX# y j 9 ( ( ( ( ) ( ] ' ( ] ( ! f f ",
"( ( ( ( ( ( ( ( ( ( j h E I I I 0 o Z 9Xs.6.2XcXC.b @ @ @ @ @ . . . X X b X b M ].r.z.nXCXKX% & c h ' ( ) ) ( ] ` ` ( ] ( ! f f ",
") ) ) ) j j ) ) ) ) t h _ f 5 6 f > A /.C.5.T.;X).X : 1 9 T U p < O o f R Q ( C 9X8.N.bXHXLX& s ( ( h y y d ' E E E h h h f 9 9 ",
"h h h h h h h h h h t h ' h 6 s ) 2 A /.C.B.T.;X).X i a ! T Y g u * i h Q Q f C 9X9.c.bXFXDX& s ' ( h r y s ( Y E w h h h f ! ! ",
"f f f f f f f f f f 6 9 ' ( t h ] g S |.{.B.:X3X).+ i d ' R R j k u k ] Q T 7 m  X9.V.CXHXKX# 7 Y U f e e p ! U q q f f h ) ( ( ",
"f f f f f f f f f f 6 9 _ ) s h ] l J 6X{.5.&X3X'.+ i d ( R R ) k i k ' Q T p m  X9.V.CXHXKX# 5 U U 7 e e a 2 ! 9 7 9 9 f ) ] ( ",
"f f f f f f f f f f 6 9 _ ] s h ( 3 S 6X{.5.&X3X'.+ i g ( R R ( a a d ' R Y e M  X9.z.zXHXKX# 5 U ( 9 t e a L ! g p 9 7 f ] ] ( ",
"f f f f f f f f f f t 9 _ ] s h ] l S 6Xu.5.&X3X'.O k j ' R R ( h d h ' R U r M  X9.V.CXHXLX# 5 U U 9 t p g L L g a f 7 f ] ] ( ",
"f f f f f f f f f f t 9 _ ] s h ] l S 6Xu.5.&X3X7XO k j ' R R R ) j ( ' R U , M 9X0.V.bXHXDX# e ! U 9 s p g L L g r f 7 f ] ] ( ",
"f f f f f f f f f f t ; _ ] s h ` l S 6X{.5.&X3X7XO d j ( R R R ( ) ' ' R 9 : M 8Xd.N.lXvXDX# r ( U 9 8 f f ! ! g e f 7 f ] ] ( ",
"f f f f f f f f f f s 9 _ ] d h ] l S 6Xu.B.:X3X'.O d h ( R R R ( ( { U ' ) r m 0Xt.C.tXwXwXm r [ ; 8 8 7 9 ! ! f e h 9 f ! ) ( ",
"f f f f f f f f f f t 9 _ ] d h ` l S 6Xu.B.:X3X'.O j h ( ' R ' ' ( } ( ] g o m 0X7Xt.iXwXAX* > ! ( q 8 8 q U U 7 6 ; 7 ) ] ] ! ",
"f f f f f f f f f f t ; _ ) d h ` l A 6Xu.B.*X4X'.O j h ) ( ' ' ( ( 9 ; { g i C y.r.t.0X0X].u > 2 } 9 8 8 q U U 8 6 9 7 9 ) ] ] ",
"f f f f f f f f f f t 9 _ ) d j ] l A 6Xi.5.*X>X'.O h h h h h h ) ) | ( | 1 > o o . X X . . u 3 ` ; 7 6 8 q U U 8 6 ) 9 ; f ] ] ",
"f f f f f f f f f f t f _ ) d d ] l A |.i.B.:X3X'.O ( h h j j j j h ) f ) ; d z k k u * u * z = ` ] f 6 8 9 U U 7 6 f f f ) ( ( ",
"f f f f f f f f f f t 9 _ ) d d ] l A |.i.B.:X3X).+ ( ( j d d d j j f g j 1 p 1 ; g j e   y r g 2 1 p t 6 9 U ! g t 7 f h ) ( ] ",
"f f f f f f f f f f t ; _ ) t s ] l A |.C.B.*X>X7X+ ( ) h d d d d j j | j j j f 9 U U q s c 7 ! ~ ) e e 5 f ! ! g r h 9 f ] X.O.",
"f f f f f f f f f f 5 ; ! j t s ~ 4 A |.C.B.R.>X|.+ Y h s a r a a a j j = = f 9 U T R - q 5 h f ` ; = 5 = ; 2 2 a r h 7 9 X.%.%.",
"f f f 9 9 7 p z o C Z Z Z Z Z Z *.V =.C.C.C.4XyXOXV F F F F F N B B B B G B N F F F D D D F N N B B N V V B M u 7 T f ( O.%.%.} ",
"f f 9 9 f f p z : o.0X7X7X6X0X0XSXrX4XyX$X5X:XI.4XpXkXtXkXtXtXpXpXpXiXiXiXiXiXtXtXkXGXDXkXpXpXpXpXpXpXeXpXeXSXC s q | @.@.X.) f ",
"f f 9 ! ( f 1 k < $.|.[.C.<.[. XrX>XQ.T.I.>XP.H.G.,X$X;XI.I.I.I.I.I.>X=X;X>X>X$X;X;X<X<X;XT.T.T.E.E.E.:X,X4XDX$ & O.O.X.} f 9 ( ",
"f f 9 ! ( f = a : +.{.{.C.N.C.Z.-XY.G.G.G.G.L.~.P.J.:X!.!.W.P.P.P.P.P.P.Y.Y.Y.Y.W.W.-X:XW.P.P.L.P.L.G.W.G.&XtXM H %.| 7 ; f { ] ",
"f f 9 U ( f 1 k : +.a.i.Z.5.Z.Z.-X!.H.2.B.2.H.m.m.!.R.R.Y.J.P.M.M.M.L.P.W.J.Y.!.!.R.U.J.H.m.m.m.H.H.L.L.!.4XFXM +.7 7 ; f } ] 9 ",
"f f 9 9 ! f p k : +.j.f.0.5.8.Z.1X:XD.5.{.5.5XY.Y.R.-X%X*XR.W.P.P.P.J.W.R.U.R.*XR.D.Y.Y.J.J.J.Y.!.>X&X>XdXFXSXC x ; ; h ) ) h ] ",
"f f 9 9 9 f p l : +.k.j.s.9.9.Z.1X1XXXp.f.6.1X*X*XU.1X-X*X&X:X!.T.I.I.S.U.-X5X-X%X-XY.Y.Y.Y.R.-X4XtXtXcXyXpX(.*   Y h f 9 9 ( | ",
"f f U U ! f 1 a : +.k.j.p.8.Z.Z.1X-XXXf.f.f.1XR.!.:X>X:X&X:X>X>X&X$X4.<.N.=X5X*X*X,XW.W.Y.R.-X4XtXiXvXvXeX,.(.* 5 q ) 9 9 ) ( 9 ",
"f 9 U 9 ! f 1 a : +.k.f.9.5.5.A.-X%XXX0.a.p.1X!.J.W.!.Q.Q.T.T.5X$X$X7.7.C.=X-X:XY.W.Q.Q.Q.T.,XlXvXvXkXV.c.+XiX$ 5 c 9 9 f ) ( ( ",
"h ( ( U ( ) g x : $.j.s.8.5.B.B.:XR.S.8.i.Z.-XW.L.P.M.m.P.!.:X=X=X2X7.7.8.oXU.G.J.P.K.Q.T.T.,XlXlX@Xz.V.E.4XiX$ & 7 f f ! h ) h ",
") ( ' ( ' ] g x , $.j.p.B.2.B.B.:XR.S.8.0.Z.&XP.L.P.L.L.P.Y.A.-.-.-.-.-.-.5.B.2.H.P.dX$X5XdXdX,Xb.z.n.L.W.T.<Xn z ~ ( ( ) f f f ",
"( ( ' ( ' ] g x , $.j.d.Z.5.B.Z.,X*XS.8.0.Z.*XW.J.W.m.H.J.R.%X-.3.3.3.3.>.9.A.2.:X!.3XyX4XlX%X2.b.G.P.L.P.*XpXM z P ( ( ) f 9 9 ",
") ' ' ( ' ] g x , $.j.d.Z.5.8.Z.2X-XS.8.i.Z.-X!.Y.R.J.Y.R.%XoX-.3.3.3.3.>.s.p.<.=X&XpXcXyX2.2.%X:X!.J.m.J.,XpXm P ..( ( ) 9 7 9 ",
") ( ' ( ' ] g x , $.j.d.0.8.0.{.rX1XXX8.0.9.-X!.R.*X!.!.*X%XoX-.6.3.3.3.3.f.i.C.cXvXvX}.;.S.5XS.U.!.W.P.J.&XeXm [ ..( ( ( 9 7 f ",
") ( ' ' ' ] g x r $.f.d.0.8.0.{.rX1XS.8.9.8.%X!.Y.*X>X:X:X%XoX-.3.-.3.>.>.f.[.OXvXkXz.b.I.*X*X,X*XR.W.P.P.:XiXm j T ( ] ( 9 9 f ",
") ( ( Y ' ( g x , #.f.p.Z.8.0.{.2X-XS.5.8.5.R.W.Y.*XE.I.&X,X%X-.6.6.3.>.6.qXqXtX@X,.n.K.Q.T.T.*X,XT.H.H.L.>XtX$ 6 E ( ] ] f 9 f ",
"( ( ' ' ' ( g x , #.).[.9.e.e.e.1X2X.XZ.5.4.1X,XU.:XR.R.Y.Y.!.,X4XeX[.|.uXSXpXC.<.I.E.Q.L.L.L.Q.Q.Q.J.J.Y.-XiX$ c E ( ( ) f f f ",
"( ( ' R ( ( g x , #./.[.g.e.e.w.1X2XXX8.5.Z.5X:XU.Y.Y.J.!.Y.G.:X5X}.OX|.uXqX<.C.4X:XQ.!.W.W.W.W.Q.!.Y.W.R.-XuX$ s T ( ( ) f f f ",
"( ( ' ' ( ( g x , $./.u.g.e.w.Z.yXyXXX4.8.Z.5X:XR.R.R.Y.!.>X>XT.,XyXeXOX<.<.2X5XG.W.R.R.Y.Y.Y.R.R.R.Y.R.*X1XiXm x R ) ( ) f f f ",
"( ( ' ' ( ( g x , #.|.a.g.w.9.Z.vXbX3XN.B.B.&XU.Y.J.&X>XT.G.T.dXlXyX4.-.;.2X=XT.!.m.R.Y.Y.Y.Y.Y.R.R.R.R.R.=XeXn a U ) ( ) f f f ",
"( ( ' R ( ( g x , #.9Xf.g.w.8.+XHXHX3XN.N.B.,X!.>X!.;XF.;XdX>XdX4X4.;.7.C.5X:XT.H.L.Y.Y.J.J.J.W.Q.Q.W.W.Y.-XiXn v { ) ( ) f f f ",
"( ( ' ' ( ( g x , #. Xa.g.w.7.+XHXHXkXN.4.4.=XF.G.n.+X#X3XlXzXV.;.C.4.C.<.$XI.Q.K.n.G.G.m.m.G.K.K.K.K.G.G.;XtX$ y q ) ( ) f f f ",
"( ( ' ' ' ( g x , #. Xa.g.9.4.+XHXCX#X<.4.Z.bXzXMXMXJXHXHXkXc.@XbXyXC.c.N.bXzXfXhXgXhXgXgXgXgXgXhXhXhXgXhXCXFX% t Y ( ( ) f f f ",
"( ( ' R ( ( g x , #. Xs.g.9.4.+XHXCXtXC.7.C.HXbXmXNXJXJXjX_.#XHXFXvX,.c.c.bXCXMXhXnXNXnXhXnXnXmXBXBXmXmXMXHXLX% 6 Q ( ( ) f f f ",
"( ( U ' ' ] g l a $.{.p.g.6.Z.V.bXbX<XC.8.C.FXHXZXJXZXv.v.CXCXbXbXlXc.c.c.bXCXZXsXBXVXVXNXNXNXVXVXVXZXmXMXbXPX* { Q ( ( ) f f f ",
"( ( ' ' U ( g g k $.{.0.9.w.B.N.3X3XZ.Z.0.}.LXJXJXjXx.F.NXZXzXMXCXzXCXCXzXZXmXZXmXBXVXVXmXMXMXCXVXVXVXZXCXHXLX* 1 U ( ( ) f f f ",
"( ( ' ' U ] j l k #.[.{.9.w.5.XX4X4X2X8.OX<XLXxX_.v.gXnXnXnXhXNXNXMXMXZXNXnXhXBXBXBXmXnXnXnXnXMXMXNXNXMXMXbXPXn z ] ! ( ) f f f ",
"( ( ' ' ( } ) g , #./.[.0.w.6.Z.2X<XXX.XOXeXtX_.jXCXgXaXaXfXfXaXaXfXfXfXhXhXnXfXhXgXgXgXaXaXfXfXfXfXaXfXhXzXFX$ u x ) ( ) f f f ",
"( ( U R ! } g a , $.'.t.f.h.g.Z.3XyXpXpXpX<.,.#X#X#XF.E.E.E.E.E.E.E.Q.K.E.K.E.F.F.E.K.K.G.H.H.H.G.K.K.~.K.E.@Xn * a ) ( ) f f f ",
"( ( ' ' ' ( g g k #.].7Xf.a.6.OXvXcXcX{.<.OXyX$X$X-X>X>X$XI.&X,X&XI.&XT.:XI.:X:X5X-X;XQ.!.R.R.*X>X>X>XE.E.3XFXn v ) ) ( ) f f f ",
"( ( ' } ( ( f x k +.].0Xj.j.f.rXvXtX<.7.<X<X$X1XD.oXXXXX=X2X1X=X=X1XoX%X%XD.%XoXoXS.$X$XoXoXoXoX2X<X<X3XtXiXGXo f W ( ( ( ! f f ",
"( ( U ' ' ) g ~ > z m b *.SXqX X,.=.,.<.C.C.2.5.1.1.8.8.8.9.8.9.9.5.5.5.5.5.q.q.q.w.u.0.9.9.w.s.d.u.t.[.b n $ x  ...( ( ) f f f ",
"] ) ) ) f ! ) ! ) ] z i y.GX].:.<.u.9.9.q.q.q.w.q.q.p.p.p.p.p.p.p.p.0.p.p.0.p.p.p.0.w.w.w.w.w.9.0.i.u.6XX * k | ( Y h h h f 7 f ",
") ) ) ) } | } ] ] } #.#.&.y.y.].AX7X8X X X X X X X9X8X8X8X8X8X8X8X8X8X8X8X7X7X8X8X|.8X9X9X9X9X8X8X7X0X].m i e ( R Q h h h h f f "
};
