/* XPM */
static char *_4e3c2d870854d85c9645579c9817393Qax8xFKL3LfXvzEA[] = {
/* columns rows colors chars-per-pixel */
"64 64 251 2 ",
"   c #000000",
".  c #080707",
"X  c #160000",
"o  c #0A140D",
"O  c #020818",
"+  c #051315",
"@  c #171917",
"#  c #270603",
"$  c #320602",
"%  c #3B0100",
"&  c #271708",
"*  c #381906",
"=  c #2F001C",
"-  c #291715",
";  c #3B1C1A",
":  c #0F221C",
">  c #3A2604",
",  c #2B2413",
"<  c #35241A",
"1  c #0B102D",
"2  c #2F172A",
"3  c #172E3B",
"4  c #282929",
"5  c #372525",
"6  c #30332E",
"7  c #383737",
"8  c #470000",
"9  c #560301",
"0  c #441906",
"q  c #581508",
"w  c #4D1815",
"e  c #680200",
"r  c #73140A",
"t  c #53290B",
"y  c #592B0D",
"u  c #462819",
"i  c #572C19",
"p  c #702E04",
"a  c #68271A",
"s  c #782617",
"d  c #67371C",
"f  c #793818",
"g  c #48192D",
"h  c #661F2F",
"j  c #552B2A",
"k  c #453829",
"l  c #53372F",
"z  c #683B25",
"x  c #773C25",
"c  c #753132",
"v  c #594518",
"b  c #7B411E",
"n  c #47443A",
"m  c #5A4934",
"M  c #744528",
"N  c #6A4F35",
"B  c #6C622C",
"V  c #000C48",
"C  c #163255",
"Z  c #2C354C",
"A  c #3A3A42",
"S  c #043665",
"D  c #293A6E",
"F  c #553A48",
"G  c #3C434D",
"H  c #0D4779",
"J  c #2E4777",
"K  c #484848",
"L  c #54504C",
"P  c #4C4C52",
"I  c #575756",
"U  c #685B48",
"Y  c #74504C",
"T  c #685C54",
"R  c #5C605D",
"E  c #6D6552",
"W  c #7A6956",
"Q  c #7A7559",
"!  c #565B6B",
"~  c #5B6370",
"^  c #676768",
"/  c #77726C",
"(  c #6F6E70",
")  c #737374",
"_  c #787677",
"`  c #7C7C7C",
"'  c #8A0800",
"]  c #940300",
"[  c #BD0400",
"{  c #91280F",
"}  c #882819",
"|  c #8A3A17",
" . c #843E1C",
".. c #893E19",
"X. c #AD2C14",
"o. c #B6361D",
"O. c #8F312A",
"+. c #A23628",
"@. c #B93728",
"#. c #AD3832",
"$. c #D11C00",
"%. c #C83113",
"&. c #D73A19",
"*. c #E52E0A",
"=. c #FA3C0D",
"-. c #E83C1A",
";. c #F83917",
":. c #FD3C15",
">. c #FD3C1B",
",. c #C93B25",
"<. c #D43B27",
"1. c #D03E30",
"2. c #E73B25",
"3. c #F73B24",
"4. c #FC3B22",
"5. c #84411C",
"6. c #8C471C",
"7. c #934716",
"8. c #934A1B",
"9. c #844322",
"0. c #874726",
"q. c #8C4B22",
"w. c #944D23",
"e. c #98432B",
"r. c #974738",
"t. c #8C5137",
"y. c #B04430",
"u. c #D0441C",
"i. c #F64607",
"p. c #EA421C",
"a. c #F94317",
"s. c #F6431B",
"d. c #FC431B",
"f. c #DC4527",
"g. c #CD4631",
"h. c #E84527",
"j. c #F94425",
"k. c #EE4531",
"l. c #903945",
"z. c #8C554F",
"x. c #B0564A",
"c. c #8D6F55",
"v. c #867457",
"b. c #8B7768",
"n. c #857575",
"m. c #AA7975",
"M. c #D6474E",
"N. c #E95B58",
"B. c #E77F75",
"V. c #928556",
"C. c #B49350",
"Z. c #988469",
"A. c #96906A",
"S. c #88847D",
"D. c #AA8E69",
"F. c #A6976D",
"G. c #A78777",
"H. c #AC9678",
"J. c #B59A76",
"K. c #B0AB6A",
"L. c #B9A179",
"P. c #C8A97D",
"I. c #C7B577",
"U. c #D1B473",
"Y. c #D0C37C",
"T. c #EED87A",
"R. c #FAE37B",
"E. c #003588",
"W. c #004987",
"Q. c #33508C",
"!. c #2C5695",
"~. c #365698",
"^. c #1851A3",
"/. c #2A59A8",
"(. c #2C5DAC",
"). c #3558A4",
"_. c #335BAB",
"`. c #2C5CB3",
"'. c #2A5CB9",
"]. c #325BB7",
"[. c #2A60A7",
"{. c #2F62B2",
"}. c #5E6488",
"|. c #838586",
" X c #8B8B8C",
".X c #938D8D",
"XX c #96928B",
"oX c #939495",
"OX c #999896",
"+X c #9D9D9D",
"@X c #AE9C91",
"#X c #B5A68E",
"$X c #A3A4A4",
"%X c #A7A8A7",
"&X c #ABABAB",
"*X c #B4ACA5",
"=X c #B7B4AA",
"-X c #B3B1B0",
";X c #B4B4B4",
":X c #B6B6B8",
">X c #BBBBBB",
",X c #E8958D",
"<X c #C6AA86",
"1X c #CFB28E",
"2X c #D5B688",
"3X c #D9BB96",
"4X c #E0BE94",
"5X c #C4B7B3",
"6X c #F3B4B3",
"7X c #BFC2BB",
"8X c #DAC492",
"9X c #E8C68C",
"0X c #F4CC8F",
"qX c #FECD8E",
"wX c #FDD18D",
"eX c #F9D889",
"rX c #E8C697",
"tX c #FECE93",
"yX c #F7CD98",
"uX c #EAD590",
"iX c #FDD294",
"pX c #F8D599",
"aX c #FDD39C",
"sX c #FFD99C",
"dX c #FBEC8C",
"fX c #E9CAA3",
"gX c #F7CCA6",
"hX c #FCD7A5",
"jX c #C5BEC7",
"kX c #BDC0C2",
"lX c #C2C3C3",
"zX c #C8C8C9",
"xX c #CCCCCC",
"cX c #D1CDCD",
"vX c #CDD1CF",
"bX c #D3D3D3",
"nX c #D7D8D8",
"mX c #DCDCDB",
"MX c #E3DEDC",
"NX c #F3D4D0",
"BX c #F2E5DC",
"VX c #DCE2E2",
"CX c #E3E4E3",
"ZX c #E8E9E7",
"AX c #ECECEC",
"SX c #F7E9E5",
"DX c #F0F1F0",
"FX c #F3F4F4",
"GX c #FAFAF5",
"HX c #F7F8F8",
"JX c #FFFFFF",
/* pixels */
"JXJXJXJXJXJXJXJXJXJXJXJXJXJXJXJXJXJXJXJXJXHXHXJXHXJXJXGXGXMXxXzXmXHXJXJXJXHXJXJXJXJXJXJXJXJXJXJXJXJXJXJXJXJXJXJXJXJXJXJXJXJXJXJX",
"JXJXJXJXJXJXJXJXJXJXJXJXJXJXJXJXJXJXJXJXJXJXJXJXJXHXcXOXI G 4 4 6 ) kXJXJXHXJXJXJXJXJXJXJXJXJXJXJXJXJXJXJXJXJXJXJXJXJXJXJXJXJXJX",
"JXJXJXJXJXJXJXJXJXJXJXJXJXJXJXJXJXJXJXJXJXJXJXJXcX/   # q } } O.a $   +XFXJXJXJXJXJXJXJXJXJXJXJXJXJXJXJXJXJXJXJXJXJXJXJXJXJXJXJX",
"JXJXJXJXJXJXJXJXJXJXJXJXJXJXJXJXJXJXJXJXHXJXCXOX  $ } @.<.j.j.k.g.g.s   $XJXJXJXJXHXZXnXZXHXJXJXJXJXJXJXJXJXJXJXJXJXJXJXJXJXJXJX",
"JXJXJXJXJXJXJXJXJXJXJXJXJXJXJXJXHXJXJXJXJXCX^   q ,.3.d.3.2.x.` n.x.y.h   cXJXJXFX5XK   + &XAXHXJXHXGXJXHXJXJXJXJXJXJXJXJXJXJXJX",
"JXJXJXJXJXJXJXJXJXJXJXJXJXJXJXGXJXJXJXJXZX_   } <.k.>.;.f.m.zXGXNX*X@Xy.$ S.HXAX>XK 4 ) ^   .X>XbXFXJXHXHXJXJXJXJXJXJXJXJXJXJXJX",
"JXJXJXJXJXJXJXJXJXJXJXJXJXJXJXJXJXJXJXZX|.  { h.4.=.>.*.m.cXNXNX,XNXMXc.h K jXoXl P _ ;XlX+X^   P +XCXJXJXJXJXJXJXJXJXJXJXJXJXJX",
"JXJXJXJXJXJXJXJXJXJXJXJXJXJXJXJXHXJXDX+XO { 2.>.:.:.=.<.:XSX,X2.3.M.BX*XF + A   }.:X:X$X-XMXmXlX|.  ` VXJXJXJXJXJXJXJXJXJXJXJXJX",
"JXJXJXJXJXJXJXJXJXJXJXJXJXJXJXJXJXHX:X3 e h.>.:.>.4.;.1.jXSXB.N.6XB.,X&X4 - % j }.*X%XoXK lXJXJXAX+X   XHXJXJXJXJXJXJXJXJXJXJXJX",
"JXJXJXJXJXJXJXJXJXJXJXJXJXJXJXJXJXnX^ 8 @.j.:.>.4.>.;.1.5XSX,X6XNX@Xz.W | o.%.,.f.y.r.Y # $XFXJXJXFXK K mXJXJXJXJXJXJXJXJXJXJXJX",
"JXJXJXJXJXJXJXJXJXJXJXJXJXJXJXJXFX&X+ { p.s.>.>.>.;.;.*.m.jX5X@Xm.x.,.&.h.d.j.h.<.%.+.x X ` AXJXGXJX|.4 >XJXJXJXJXJXJXJXJXJXJXJX",
"JXJXJXJXJXJXJXJXJXJXJXJXJXJXJXJXVX_ 9 &.>.d.3.4.>.>.4.&.O./ m.g.*.;.4.4.j.<.o.} s a j u   4 ;XmXmXJX` 6 lXJXJXJXJXJXJXJXJXJXJXJX",
"JXJXJXJXJXJXJXJXJXJXJXJXHXJXJXFX>X4 { h.:.:.>.d.:.j.@.a O.<.p.;.4.4.j.$.] 9 u @ + O     |.&XOXoXbXHX6 K nXJXJXJXJXJXJXJXJXJXJXJX",
"JXJXJXJXJXJXJXJXJXJXJXJXJXJXJXAX.X9 <.j.>.>.=.=.h.| y o.h.4.=.:.j.&.' c.1Xb.  o     P :XZXHXDXDXJX5X  ) FXJXJXJXJXJXJXJXJXJXJXJX",
"JXJXJXJXJXJXJXJXJXJXJXJXJXJXJXbXR ] 3.>.4.4.d.k.' s 2.>.a.:.d.h.] h 1XgX5X#XL . / lXFXHXJXJXJXJXDX^ @ &XJXJXJXJXJXJXJXJXJXJXJXJX",
"JXJXJXJXJXJXJXJXJXJXHXJXJXHXHXkXj X.3.>.>.>.f.w a k.:.>.a.p.@.l H.fXiXeXN ( XXL mXJXGXHXHXHXHXJX$X@ I AXJXJXJXJXJXJXJXJXJXJXJXJX",
"JXJXJXJXJXJXJXJXJXJXJXJXJXDXxX) 9 <.>.:.i.p.} O.h.i.p.-.o.U / 3XsXiXiXfXU 6 .X7 *XMXVXDXbX:X>X X. @ bXJXHXJXJXJXJXJXJXJXJXJXJXJX",
"JXJXJXJXJXJXJXJXJXJXHXJXZXoX  # } -.>.:.j.{ c M.h.u.e.Y F.2XZ.b.rXeXqXgXZ.  n U v > 6 oXVXCXnXoX  %XJXJXJXJXJXJXJXJXJXJXJXJXJXJX",
"JXJXJXJXJXJXJXJXJXJXJXFX X  s +.@.2.>.3.@.# l c.c.V.H.rXhXuXv.7 1XtXqXaXH.v.<XrXrX8XL.v _ bXnX)   CXJXJXJXJXJXJXJXJXJXJXJXJXJXJX",
"JXJXJXJXJXJXJXJXJXJXJXlX  } f.2.3.>.:.2.s u 7 4X9XpXsXaXpXuXV.O L.0XaXrXL.fXsXsXsXhXsX1XN o   . oXHXJXJXJXJXJXJXJXJXJXJXJXJXJXJX",
"JXJXJXJXJXJXJXJXJXJXHX` 8 1.>.i.:.=.>.@.a M # J.hXiXaXtXiX0XJ.4 F.yXaX4XyXaXiXqXiXtXiXhXH., 7 +XAXJXJXJXJXJXJXJXJXJXJXJXJXJXJXJX",
"JXJXJXJXJXJXJXJXJXJXFXI e k.:.*.$.o.#.q j f d $ #X9XpXiXiXaX9XD.U.yXtXqXiXtXiXiXiXtXtXsX2X> +XDXJXJXJXJXJXJXJXJXJXJXJXJXJXJXJXJX",
"JXJXJXJXJXJXJXJXJXJXHX( 9 g.&.O.b.J.J.W 5 s | y l m.9XsXyX4XuXgXyXqXtXtXqXwXtXiXiXyXtXsX1X& kXJXGXJXJXJXJXJXJXJXJXJXJXJXJXJXJXJX",
"JXJXJXJXJXJXJXJXJXJXJX&X  +.r.@X4XyXpXrXV.i f z i < U.sXJ.W J.3XpXsXhXhXiXwXtXyXtXtXtXhXJ.@ zXJXGXJXJXJXJXJXJXJXJXJXJXJXJXJXJXJX",
"JXJXJXJXJXJXJXJXJXHXJXZXI $ c.gXhXU.C.rXrXN q z m W rX0XV.. k W Z.P.<X3XhXwXtXtXtXwXhX3XU L nXGXJXJXJXJXJXJXJXJXJXJXJXJXJXJXJXJX",
"JXJXJXJXJXJXJXJXJXJXHXJX-X  J.hXtXaX3Xb.4X8XU w * J.hX9Xc.  2 * > k k U <XgXhXaXaXpX2XW   $XDXJXJXJXJXJXJXJXJXJXJXJXJXJXJXJXJXJX",
"JXJXJXJXJXJXJXJXJXJXJXJXlX. #XhXqXiXrXZ.Z.pXrXJ.#XyXiX0XD.  - < ; ; w - 6 U Z.J.F.v.k   |.CXJXJXJXJXJXJXJXJXJXJXJXJXJXJXJXJXJXJX",
"JXJXJXJXJXJXJXJXJXJXJXJXcX  J.hXqXwXhXfXZ.8XiXyXgXaXwXiX8Xv.  - , < - ; w ; < 5 5 @   ) mXJXJXJXJXJXJXJXJXJXJXJXJXJXJXJXJXJXJXJX",
"JXJXJXJXJXJXJXJXJXJXJXJXZX@ v.rXsXiX0XJ.J.0XqXqXtXtXiXiXaXrXF.< - < < w u > 5 g g X 7 :XFXJXJXJXJXJXJXJXJXJXJXJXJXJXJXJXJXJXJXJX",
"JXJXJXJXJXJXJXJXJXJXJXJXJX;X. G.gXaXU.2XrXpXtXtXaXtXiXtXiXyX#Xm = < , < ; - - - #   n.CXJXJXJXJXJXJXJXJXJXJXJXJXJXJXJXJXJXJXJXJX",
"JXJXJXJXJXJXJXJXJXJXJXJXJXDXoX  v.8XfXfXfX8X2XyXyXaX0XyXwXwXI.m % 0 0 # 2 6 * z L K 5XHXJXJXJXJXJXJXJXJXJXJXJXJXJXJXJXJXJXJXJXJX",
"JXJXJXJXJXJXJXJXJXJXJXJXHXJXAXOXG O T S.m .   #XfXaXaXtXqXtX<Xt.O.+.+.a / T O.x.l oXFXJXJXJXJXJXJXJXJXJXJXJXJXJXJXJXJXJXJXJXJXJX",
"JXJXJXJXJXJXJXJXJXJXJXJXGXGXJXHXvX|.O     K 4   Z.8XaXtXtXaX2Xt.@.1.+.c.@Xc.l.9 ( VXJXHXJXJXJXJXJXJXJXJXJXJXJXJXJXJXJXJXJXJXJXJX",
"JXJXJXJXJXJXJXJXJXJXJXHXJXJXJXAXvX Xk 9 a s O.a 8 U L.9X0XaX9XD.O.O.T Z.Y z.j I zXJXJXJXJXJXHXJXJXJXHXJXJXJXJXJXJXJXJXJXJXJXJXJX",
"JXJXJXJXJXJXJXJXJXHXJXJXJXDXxX XP r o.,.<.<.-.2.#.  5 v.J.<X2X<X/ T R K 2 l I vXHXJXGXDXbXzXzXzXVXFXJXHXHXJXJXJXJXJXJXJXJXJXJXJX",
"JXJXJXJXJXJXJXJXJXHXJXZX>XOXP 8 X.<.>.:.d.d.s.k.} i +.h H ~ E W z.x.9.2 Z . _ DXJXJXVX+XR P P I ( &XFXJXHXJXJXJXJXJXJXJXJXJXJXJX",
"JXJXJXJXJXJXJXJXJXHXbX_ O : - e [ -.d.a.>.-.o.s } <.h.l.W./.W.C r.h.u.c Z Z A OXlXvXOX  $ 0 0 *   4 OXAXJXJXJXJXJXJXJXJXJXJXJXJX",
"JXJXJXJXJXHXJXJXJXZX^ 6 ;XxXcX5Xm.' $.j.<.} O.@.2.>.4.#.W.'.'.~.Y r.+.c D ~.V . G R 7 0 f 5.b M z X 4  XbXJXJXJXJXJXJXJXJXJXJXJX",
"JXJXJXJXJXJXJXJXJX%X  L AXHXHXHXZX>Xz.' q } f.s.:.>.j.y.H {./.H V D ~.~.`._.P #XE   & d 5.6. .b 0.u     _ VXJXHXJXJXJXJXJXJXJXJX",
"JXJXJXJXJXJXJXFX+X.  XzXHXJXJXHXJXJXnX(   @.s.:.4.>.i.r.H ^.J A.I.v.J [.`.{.K 8XI.  0 x | |  . .9.z L XX4 :XJXJXGXJXJXJXJXJXJXJX",
"JXJXJXJXJXJXJX&Xo +XFXJXGXJXJXHXGXmXZX:Xc -.a.>.;.3.p.F W.~.K.T.eXdXS.Q._._.D V.T.B $ M ..| 9. .e.y / =X  %XHXJXJXJXJXJXJXJXJXJX",
"JXJXJXJXJXJXCX) K DXDX:XHXHXJXJXJXDXOX  O.k.a.s.d.j.O.H ).~ K.R.R.dXK.J `._.Q.B Y.A.# b 6...f 0.6.  5X#X+ -XJXJXJXJXJXJXJXJXJXJX",
"JXJXJXJXJXJXxX4 :XJX+X` JXZXMXJXJXJXFXoX4 +.,.&.u.c S [./.~ I.dXR.dXK.J /._./.G Q Q % f 6.| 9.5.f u SX/ 7 lXJXJXGXJXJXJXJXJXJXJX",
"JXJXJXJXJXJX:X  CXmX6 xXDX( &XJXHXJXJXxX~ S S S S W.[.{./.Q.A.9XR.9XB !.`._.`.~.1 . d 9.| |  .5.8 5XnX  ^ VXJXJXJXJXJXJXJXJXJXJX",
"JXJXJXJXJXHX;X  ZXZX:XFXkXk nXJXHXJXJXmX}.~.[.[.).].'.(././.J / A.I H _.]._.`.(.J $ f 9.5.| 5.f N BX/ o OXJXJXJXJXJXJXJXJXJXJXJX",
"JXJXJXJXJXJX>X  vXJXJXJXnXlXJXJXDXVXGXmX/ H !.)._.].'.`.(.`./.E.E.^.`.].].`.`.).3 0 b 5.....9.8 =X*X  I nXJXJXJXJXJXJXJXJXJXJXJX",
"JXJXJXJXJXJXnXL  XFXJXJXJXJXJXFX>X&XMX:XL $ 1 D !._.].'._./.'.'.{.`.'.`.`.'._.D X d 5.5. .q.r W 5X4 4 -XJXJXJXJXJXJXJXJXJXJXJXJX",
"JXJXJXJXJXJXHX+X  ;XDXJXJXJXJXMX X|..XL p f y . C Q./.'.`.[.(.'.`._.(.(._.{.Q.3 & d 6.5.9.5.9 *XS.  |.FXJXJXJXJXJXJXJXJXJXJXJXJX",
"JXJXJXJXJXJXJXCX X4 +XMXHXJXJXZX;X^ $ b 6.8.M u > 1 J {.`././.(._.(.'.`._.~.C . . d M  .M p b.5XI   nXJXJXJXJXJXJXJXJXJXJXJXJXJX",
"JXJXJXJXJXJXJXJXZX+XK I $XkXxX>XoXU f 0.7.6.y M M & S {.].'.`.(.(.`.`.`.Q.C . I L . i z y w @XS.o / GXJXJXJXJXJXJXJXJXJXJXJXJXJX",
"JXJXJXJXJXJXJXJXJXAXxX+XK 7 I ^ T z 5.6.8.q.d N M & D {.].'.'.'.{._.!.D V   S.nX5XA         L 6   cXJXJXJXJXJXJXJXJXJXJXJXJXJXJX",
"JXJXJXJXJXJXJXJXJXJXJXFXnXL n XXb.p w.7.q.q.d 0.M . Z Q.).).).Q.Q.C 1     &XAXJXFXnX%XoXOXS.4   &XHXJXJXJXJXJXJXJXJXJXJXJXJXJXJX",
"JXJXJXJXJXJXJXJXJXJXJXJXCX@ / *Xz.| 7.7.w.9.f q.N     O O 1 1 O     7 @XmXHXJXJXJXJXHXFXFXDXMXmXFXJXJXJXJXJXJXJXJXJXJXJXJXJXJXJX",
"JXJXJXJXJXJXJXJXJXJXJXJX7X  XX*Xp 7.7.7.6.0.f w.N + R  X( ! ( |.%XcXZXFXGXJXJXJXJXGXGXJXJXGXJXHXHXJXJXJXJXJXJXJXJXJXJXJXJXJXJXJX",
"JXJXJXJXJXJXJXJXJXJXJXHX%X@ *X*Xe w.6.6.q.0.6.w.t 6 :XJXHXFXFXHXJXJXGXJXJXHXJXJXJXJXJXJXJXJXJXJXJXJXJXJXJXJXJXJXJXJXJXJXJXJXJXJX",
"JXJXJXJXJXJXJXJXJXJXJXGXOX6 *X@Xe w.6.q.0.w.8.M & K bXJXJXJXJXJXJXJXHXJXJXJXGXGXJXJXJXJXJXJXJXJXJXJXJXJXJXJXJXJXJXJXJXJXJXJXJXJX",
"JXJXJXJXJXJXJXJXJXJXJXHX Xn =XXXe w.7.q.q.7.b # @  XFXJXJXJXJXJXJXJXJXJXJXJXJXJXJXJXJXJXJXJXJXJXJXJXJXJXJXJXJXJXJXJXJXJXJXJXJXJX",
"JXJXJXJXJXJXJXJXJXJXJXHXOX6 %XXXr w.7.7.8.8.0.& P ZXJXJXJXJXJXJXJXJXJXJXJXJXJXJXJXJXJXJXJXJXJXJXJXJXJXJXJXJXJXJXJXJXJXJXJXJXJXJX",
"JXJXJXJXJXJXJXJXJXJXHXJX;X  XXS.p w.7.7.7.w.M X ) JXJXJXJXJXJXJXJXJXJXJXJXJXJXJXJXJXJXJXJXJXJXJXJXJXJXJXJXJXJXJXJXJXJXJXJXJXJXJX",
"JXJXJXJXJXJXJXJXJXJXJXJXnX7 6 n y 0.w.q.q.M u   %XJXGXJXJXJXJXJXJXJXJXJXJXJXJXJXJXJXJXJXJXJXJXJXJXJXJXJXJXJXJXJXJXJXJXJXJXJXJXJX",
"JXJXJXJXJXJXJXJXJXJXJXJXHXlX XP   t v x M *   ` AXJXHXJXJXJXJXJXJXJXJXJXJXJXJXJXJXJXJXJXJXJXJXJXJXJXJXJXJXJXJXJXJXJXJXJXJXJXJXJX",
"JXJXJXJXJXJXJXJXJXJXJXJXJXHXAXxX` o   .   P +XCXJXJXJXJXJXJXJXJXJXJXJXJXJXJXJXJXJXJXJXJXJXJXJXJXJXJXJXJXJXJXJXJXJXJXJXJXJXJXJXJX",
"JXJXJXJXJXJXJXJXJXJXJXJXGXJXJXJXCX>X+X+X%XxXDXJXHXJXJXJXJXJXJXJXJXJXJXJXJXJXJXJXJXJXJXJXJXJXJXJXJXJXJXJXJXJXJXJXJXJXJXJXJXJXJXJX",
"JXJXJXJXJXJXJXJXJXJXJXJXJXJXJXJXJXHXFXDXHXJXJXJXJXJXJXJXJXJXJXJXJXJXJXJXJXJXJXJXJXJXJXJXJXJXJXJXJXJXJXJXJXJXJXJXJXJXJXJXJXJXJXJX"
};
