/* XPM */
static char *de0528ed50654b339a00843757aa652dg0zo0Y7INfOjnXo3[] = {
/* columns rows colors chars-per-pixel */
"64 64 215 2 ",
"   c #1F1F1F",
".  c #1E2320",
"X  c #262626",
"o  c #2B2727",
"O  c #292927",
"+  c #292728",
"@  c #272829",
"#  c #292929",
"$  c #342626",
"%  c #3B2525",
"&  c #3A2629",
"*  c #342829",
"=  c #333333",
"-  c #3C3B3B",
";  c #4D231F",
":  c #452525",
">  c #4A2626",
",  c #552626",
"<  c #4B3837",
"1  c #642424",
"2  c #6C2223",
"3  c #612628",
"4  c #752222",
"5  c #7A2223",
"6  c #434342",
"7  c #474849",
"8  c #4C4C4C",
"9  c #505050",
"0  c #545454",
"q  c #5C5C5C",
"w  c #694C4B",
"e  c #645E5E",
"r  c #636363",
"t  c #656868",
"y  c #6B6B6B",
"u  c #706F70",
"i  c #747474",
"p  c #7D7474",
"a  c #777779",
"s  c #7B7B7B",
"d  c #801F1F",
"f  c #8C1D1D",
"g  c #97171B",
"h  c #931C1C",
"j  c #9A1B1B",
"k  c #BD1109",
"l  c #BB0E11",
"z  c #A81817",
"x  c #B31414",
"c  c #BB1413",
"v  c #B31818",
"b  c #8F211E",
"n  c #882121",
"m  c #942121",
"M  c #B92528",
"N  c #C20F0D",
"B  c #CA0D0E",
"V  c #DC0304",
"C  c #DD0905",
"Z  c #DC070A",
"A  c #D40808",
"S  c #DB090A",
"D  c #C9110E",
"F  c #D90D13",
"G  c #C11413",
"H  c #C61817",
"J  c #D71717",
"K  c #DC1C1C",
"L  c #E30404",
"P  c #EB0303",
"I  c #E30708",
"U  c #EC0409",
"Y  c #E7090A",
"T  c #F40404",
"R  c #FA0303",
"E  c #F40708",
"W  c #F10808",
"Q  c #E51B1A",
"!  c #E31D1D",
"~  c #D92927",
"^  c #D43332",
"/  c #E62B2A",
"(  c #E5302F",
")  c #E43335",
"_  c #E53E3B",
"`  c #D8403C",
"'  c #E5413E",
"]  c #895151",
"[  c #BC4A49",
"{  c #A35958",
"}  c #8B6A69",
"|  c #966866",
" . c #827373",
".. c #827E7D",
"X. c #A16363",
"o. c #D84342",
"O. c #DC5957",
"+. c #E74443",
"@. c #E24E4B",
"#. c #E6504C",
"$. c #E85755",
"%. c #E35C5A",
"&. c #D9615C",
"*. c #E5635D",
"=. c #DA6965",
"-. c #CB706F",
";. c #DB726D",
":. c #DD7573",
">. c #D97978",
",. c #E46969",
"<. c #E2716C",
"1. c #E37272",
"2. c #7F807F",
"3. c #80807E",
"4. c #D5827C",
"5. c #E2827C",
"6. c #827F81",
"7. c #D27D80",
"8. c #828282",
"9. c #8A8787",
"0. c #8C8C8C",
"q. c #908F8F",
"w. c #9F8C8B",
"e. c #939393",
"r. c #9C9796",
"t. c #9B9B9B",
"y. c #A68383",
"u. c #A09E9F",
"i. c #A4A4A4",
"p. c #A6A8A7",
"a. c #ABABAB",
"s. c #B2ADAC",
"d. c #B3B3B3",
"f. c #BCBCBC",
"g. c #CB8282",
"h. c #D78785",
"j. c #DA8C8C",
"k. c #CF908B",
"l. c #D6938F",
"z. c #CC9999",
"x. c #D69794",
"c. c #DC9493",
"v. c #D39C9C",
"b. c #D99C9A",
"n. c #E18686",
"m. c #E19697",
"M. c #CCA29F",
"N. c #D7A09F",
"B. c #C8A4A4",
"V. c #CDACAC",
"C. c #D1A4A3",
"Z. c #DAA4A3",
"A. c #D5A9A4",
"S. c #D2ACAB",
"D. c #D8AAAB",
"F. c #CEB1AD",
"G. c #D1B0AE",
"H. c #DCB1AF",
"J. c #D5ADB0",
"K. c #CDB3B2",
"L. c #C8B6B6",
"P. c #C5BEBD",
"I. c #CDBDBC",
"U. c #D1B3B3",
"Y. c #D8B6B5",
"T. c #D4BBBB",
"R. c #E2A9A9",
"E. c #EABBBA",
"W. c #CBC0BD",
"Q. c #C6BFC0",
"!. c #D0BFC0",
"~. c #C4C4C4",
"^. c #CBC4C3",
"/. c #CAC7CA",
"(. c #CCCCCC",
"). c #D3C5C4",
"_. c #D1C6C8",
"`. c #D3CBCB",
"'. c #D7CBC9",
"]. c #DAD2CE",
"[. c #D4CDD0",
"{. c #CED0D1",
"}. c #D3D3D3",
"|. c #D9D4D4",
" X c #D9D7D8",
".X c #DBDBDB",
"XX c #DDDDDD",
"oX c #DEDEDE",
"OX c #E6CDCC",
"+X c #E6D7D6",
"@X c #E1DEDE",
"#X c #E2E1DE",
"$X c #D9DDE0",
"%X c #E0DFE0",
"&X c #E2E1E2",
"*X c #E4E3E4",
"=X c #E6E5E6",
"-X c #E9E5E6",
";X c #E8E6E7",
":X c #E9E9E7",
">X c #E9E7E8",
",X c #EAE8E9",
"<X c #EAE9EA",
"1X c #ECEBEB",
"2X c #EEEDEE",
"3X c #F0EEEF",
"4X c #F0EFF0",
"5X c #F2F1F2",
"6X c #F4F3F3",
"7X c #F8F6F7",
"8X c #F8F7F8",
"9X c #F7F8F8",
"0X c #FCFBFB",
"qX c #FDFBFC",
"wX c #FEFCFD",
/* pixels */
"6X.X&X4X=Xr.# = # # @ + X X @ + @ O @ i.~.}.t # = {.W.f.@ = 2.{.~.(.(.{.~.(.{.{.~.~.}.(.(.{.oX#XoX- O @ # X X X # ~.=X2X&X.X-X1X",
",X=X,X,X6Xp.t 0X6.@ # X X # X + @ O O t.f.oXi q..X~.~.(.@ ~.(.(.{.(.W.#X~.~.oX~.(.{.(.}.(.(.}.}.#X9X2.6 # X # # # # 0.oX5XoX%X0X",
"wXoX=X0X-X=X>X}.y @ # @ X # # O @ O i d.{. X(.}.}.}.f.p.# f.(..X(.}.}.}.(.{.}.}.(.^..X{.(..X(..X5X5X:X{.8.# # X # X # X =X&X4X2X",
"5X=X1X2X6X}.d.# @ # # @ # # # # O O }.}.~.oX(.{..X{.0.- 9.~.(.}.(.}.(..X~.{.#X}.{.(.}.{.}.}.{..X:X9X&X#XwX  # X # # # X 6X&X-XwX",
"wX.X=X0X&Xr.@ @ # # @ # X # # + # O ~.{.(.(.(.}.{.{.a.t.oX(.~..XW.{.{.{.(.{.{.}.(.~..X(.(.}.~..X5X:X-X*X,X@ @ X # X # # a.[.5X,X",
">X=X>X=X6Xi.@ # X X # X X 7 t.0 q t..X{.f..X~.(.oX~.W.{.{.}.~.(.{.{.~.#X~.W.#X~.(.{.(.{.{.(.}.}.&XwXoXoXwXp.a @ # X # # # s a.wX",
"wXoX-X0X0.e @ # # O # O X r .Xy 2.XX(.}.(.}.(.}.{.}.(.(..X}.~..X(.{.{.}.(.{.}.}.(.W.oX}.}.}.(..X5X2X:X*X5X3Xp.@ # @ # # X # q 2X",
"6X-X}.8.@ @ @ # X # # X # - a 6 2.}. X{.(.#X(.}..X{.(.{. X}.}.}.{.}.{.#X~.{.#X}.{.{.}.}.}.}.}.{..XwX=X&XwX=Xt.# # # # # # t.}.wX",
"wXs - @ X X @ # @ # X X e.d.# d.~..X~.{.(.(.(.}.{.{.~.~. X(.I..X~.{.{.(.(.(.(.}.(.f..X(.(.}.~.(.}.(.=X&X,X4X=X/.# X # # @ d.2X,X",
"X # 9.,XO X X # X X X ~.~.~.# d.f.{.(.~.f.}.~.(.{.(.W.~.{.{.~./.~.(.W.}.~.~.}.~.~.~.(.(.~.(.~.~./.}..X.X4X&X&X}.# X X # # X q 2X",
"q .X2X,X# # X # # # X (.0.= 0 ~.{. X X{.~.#X(.}..X(.{.}.{. X{.{.}.}.{.#X~.(.XX{.{.{.}.}.}.}.}.{.{.oXoX%XwX=X1X=Xq - # # # # q wX",
"0X/.i.# X O X # X 8 y }.i.8.oX/.~.oXW.{.}.(.(.{.(. X~.~..X{./. X~.{.{.{.(.{.{..X(.f.#X(.(..XW.(. X(.[.}.,X5X>X XwXa O # X X 0 (.",
"(.q @ @ # X X # . 0..XW.(.}.(.{.(.{.{.{.~.$XW.(..Xa.f.{.(.}./.(.{.{.W..X~.~.#X~.(.(.f.{.}.W.{.~./.oX(.{.wXoX,X>X,Xa # X # X X # ",
"# e.0.# O # X # @ 9.}.{.(.{.oX(.~..X(.}.(.}.{.}.}.2.e.d.oX}.(.|.(.}.}.}.{.{.}.}.f.i.2.f.{..X(.{.}. X:X*X4X6X1X@X0Xd.9.# X # 7 a.",
"f.&X(.# # @ @ # @ 0.|.(.(.}.}.}.(..X{..X}..X(.}.oXf.e.2.a.{.(.}.{.}.(.#X(.(.oXp.0.2.d.{.}.}.{.}.oX.X|..XwX=X1X>X2X,X/.# # X r 0X",
"wXt.y # X @ # @ @ 0.oX{././..X X{..X.X:X:X&X}.{.(.5X{.~.8.0.p. X~.(.{.(.(.f.t.2.t.a..X~.(.}.}.:X2X(.{.{.,X5X=X X0XoXf.# X X - 9.",
"3.6 # X # X X # d.|.9X~./..X=X,X&X*X5X-X.XwX.X.XoX(..X4X}.e.t.(.}.{.~.#X~.a.3.f./.(.{.}. XoX2X=X#X.X X XwXoX,X:X:X:X(.@ @ X X # ",
"# ~.f.# # X 0 :X5X,X1X}..X>XwX&X&XwX=X2X>X2X,X3X1X}.}.-XwXt.t.oX/.}.}.}.(.f.s .X{.~.#X&X-X7X*X>X5X2X1X#X X5X&X(.wX&X~.# @ @ # # ",
"5X.Xf.# X X 0 ,X=X&X-X&XoX*X2XoXf.= oXt.q ,XoX=X-X=X.X%X5Xe.i a ~.(./.{.9.a a (.~.~.2X&X&X,X.Xt.t 1Xu s {.i a.W.}. X*X,X# X # @ ",
"=Xt X X # X 0 0X=X=X5X.X&X2X=Xy X X @ % % @ P.=X6X@X@X3X,X2X/.s a p.f.s i t.oX~..X=X,X2X,X&XX % : O X X @ u s s /.&X,X=X# X X # ",
"# X # # # X 8 .X2X=XoXa a.~.# @ # o 2 c V 2 & 0.}.6X*X:X0X1X&X0Xe.0.3.i.~.}..X6X*X&XqX.Xa.# 2 x S 2 & O # # 0 y s }.2X0X# # O # ",
"# @ # # # X O # d.a.s a 0 # # # > 5 U A l R h 1 O /.}.5X2X3X=X1X4Xf.0.qX}..X0X-X=X=X`.t > n U B c R h 1 # X # = s  X=X/.# # # # ",
"# # X # O X @ # # 8 i a q @ # @ f T z 2 : z C c # # 8.d.0X&X#X9X.Xd.q.:X=X-X,X6X~.i.# X h T z 4 : v S G # # # = 9.f.d.# X @ # X ",
"# # O @ # X X # 9.0...i 0 @ # # n Z $ @ @ = N x # X X 8 f.:X&X:X2Xf.0.qX.X=XqXd.a X # # n Z $ + # # N v # X # - a ~.~.t.# X X # ",
"# X # # # @ @ # P.(.f.a y r # # f T c 4 > c V G # # # - 2.i.f.0Xi.e.3.d.oXoXs.s 0 X # # m T c 5 > G C G # # 0 r 8.f.}.oX@ @ # # ",
"# # # # # @ + # f.(.|.f.t.a y - : 5 U B N T b 3 # # X - s s 9.u.a a p 3.e.0.8.a 0 X # # > 4 U B G R b 1 # t i 2.~./.}.{.# X X # ",
"# X X # + X @ # W.`./.{.~.f.6.6 @ * : x V : o @ X o 0 i 2.a u 2.u a s a i a a s i t # o # # : x S > o O # s p 2..X~.(..XX X # # ",
"# X X # @ @ @ # v 4.|.J b.^.a 6 X @ # * $ # X X @ i i a a a i a a i i s y i s i i i a 6 O O O $ $ # X @ # i p ..{.^.A.K % + X # ",
"# X # # # X @ # ^ ~ T ^ ! ~  .s t = s q = @ = 0 2.s s s a s s 8.s i a 8.s 8.s s d./.8.s t = s q 6 3.7 0 8. .[ ` '.O.! ) Y g X O ",
"# X # # X @ $ 4 P.U.&.].b.O.T { } s 9.8.i 6 u 8.0.}.t.i 8.0.d.0X8.9.s t.oX}.t.s i.d.oXt.8...9.8.3.q.s  .| L C V R O.x.@XO.] + X ",
"# @ # # # @ ; R z.I. XB.P.`.1.( ^ | `.d.0.s 0.a.oX/.t.2.i.*X*X:X}.a.0.wXoX*X0Xt.8.8.{.}.~.e.}.a.u..Xy.[ T L L ! <.W.`.S.}.e.X O ",
"# # # # # @ < m.+.*.Z.P :.D.oX=.Z W `. X/.a.(.}.}.}.i.0.0X1X&X0X(.a.0.5X=X2X5X5Xd.s XX}.{. X(.(.|.}.,.C I T ,.l.XXC.7.T N.} # # ",
"# X # # # @ 8 oXA.>.T V L #.}.%.C Y ].{.~.oX/.{..X(.t.0.2X5X;X:X{.a.0.wXoX=XwX=Xa.2.}.}.}.{.(.(.{.#X=.C E l.T.(.b._ %.x.P c j # ",
"= X X # X + < :.).).Z.L L O..XV.4.T ;.K.(.(.(.}.(.}.~.(.0X&X$XwXI.i.0.:X=X,X,X6X}.~.oX/.(. X~.(.`.:.) &.D.}.A.=.R k.T.oXC.=.V # ",
"X X # X # b k R &.v.+XV.;./ <.).V.I T b.~.oX~.{..X/. X2X,X5X:X,X{.p.0.wX.X=XwX*X*X:X}.}.{.{.}./.I.R C >.@X=.o.) Y./.T.=. XI.B.# ",
"# X # # # v ) '.%./ @.].`.U.R U.M.W L A.{.}.{.}.}. X.X=XwX,X%XwX/.p.e.4X;X2X5X6X*X#XoX{.{..X/.{.].P Z >.|.P m.P.#X:.' U @.Z.(.# ",
"# X X # @ r.P.[./.B.V F z.I.P F.W.`.L S o.{.~.(.{./.{.&X1X=X.X,X~.i.0.,X.XoX1X=X.XoX(.(.(.(.~.~.I.P V.P.].V v.L.Q V >.`.V A H @ ",
"- X # - # r.K.P V.).+XV v.).P V ;.{.L I o. X~.(.}.~.}.2X,X,X*X,X(.p.0.9X X=X9X&X&X*X(.{./.(.(.^.U.T K.B.P L v.).L U.[._.].h.D $ ",
"wXa e.wX# x ! <.( 1.[.P v.).R L >.#XL L +..X{. X X X.X:XwX,X&X0X(.p.e.4X,X,X5X5X;X#X#X{.}.oX(.j.Y U T.S.I T b.T.T U.D.U T.^.(.# ",
"1Xy 0.1X# h [ oX,.h..XV v.`.P L >.`.P I ^ oX/.{. X/. X4X,X5X=X,X[.a.0.wXoX=X0X=X&X=X}.}.}.{.[.j.I R U.C.T L Z.^.U K.Y.;.P g.p.# ",
"wXi e.0XX X 8 {.*.>.`.P l.I.R V >.oXV I _ (./.}.(.}.f.~.wX=X$XwX~.i.e.=X=X>X,X5X(.f.oX/.(.|.~.h.U I T.U.j.P x.L.R g.U..XS f # # ",
"2Xu 0.2X# X 8 oXN.S. XV v.).P L :.}.L V o.oX/.{..Xi.0.8.P.:X=X1X{.p.0.wXoX=X0Xf.e.s a.(.}.(.}.F.h.R 4.B.+XV Z.(.m.' %.x.T j @ # ",
"qX~.(.wX@ # - 0.~.T.5.P b.T.R x.K.%XV V ) i.~.~.i.s p.P.s .X&X9X/.p.e.4X-X1X4Xs a.f.8.e.d.oX/.{.`.U L >.|.P ,.4.oXV.j.T f , O # ",
"2X&X,X,X# t.d.# -.%.P A.^.`.P T.K.<.P o.| 3.0.0.6.i P.2X X,X*X,X[.a.0.0X.X-X0X(.oX=Xs s 9.e.{.s.y.R V >..XS.:.! 1.W._.G.# X X # ",
"wXoX=XwX# f.=X# D 1.I.}.x.o.U V.B.W }  . .~ } s a s d.*XqX=XoX0X~.i.0.1X=X1X1X6X&X}...a i ..8.s s } ^ / @.|.).V.Y _ j..Xo @ 0 $X",
"2X@X=X2X# s.}.# % 0.|.~ K @.`.{.C.Y  .0 , U J [ s J R.2X,X1X#X1X/.p.0.6X.X=X6X-X*X+XK | X.J  .0 6 s a { U ^ C.W.> B M 6 o @ e 7X",
",X=X=X,X3X&X}.# = = o ~ H.:X{.O.C ! 3Xi.$ # N Z P Z V @.,X1X*X:X{.a.9.0X.X*X7X@Xc.V C C I S * o e oX0.i ..K f X @ @ @ X 3Xu.q 0X",
"wX.X=X0X&X=X&X# |.(.u 3X.X~.= z -.#X#Xm.C 1 $ 5 B * j c # f.|.wX~.i.q.,X=X*X+Xo j l # x z # 3 c @.{.].d.0.}.r.@ # @ @ # &Xr.q ,X",
"|.oX=X[.0X}.f.# f.oX9X~.0.# # # s {.5XE.;.T 2 o O 4 > & 4 & s OX`.s.y.qX`.R.T 4 > * 5 & > 5 L %.n..X(./.XXd.s @ @ @ # X 5Xd.e.wX",
"# p.t.# f.8.= 0 i r.~.X @ @ # @ s oX,X1X=Xn.w , h U k j R z v T b.<.+.E.#.L L P c j R 4 h T c.OX5X}.{.(.}.X @ @ # @ @ @ f.}.2X~.",
"# @ # # # 6 0 8.r 8 # X @ # # # s {.5X:X XoXy b T L L P L P C L U I V R C L R C I / l.w } h.2X&X&X.X/.~.#X  # X # # - q # 8.i.# ",
"# X @ # r u a 0 = # # # O # # X s oX&X,X=X{.t } A.T V C R C V R V L P L P L P U >.z..Xi 0.}.oX=X2X&X}.d.9.X X X # X 0 8.X X X @ ",
"# X 6 y s r 6 # X # # X @ # # # 2.}.5X1XoXoXy 0..XF.;.' J.$.=.Y.P m.H.R x.j.T S.^.{.}.i 9.{.2X,X,XwX{.a.# X # O # # 9 a # # O # ",
"# r i 8.- = + # X # # X X # # O 3.#X*X2X=X}.y 8.{.|.W.W..X).W..X].>X3X+X(.(.). X(.~.oXi 0.oX#X,X5X2X}.a.# # # X # O 0 2.y 8 # # ",
"# y r = # X X # X X # X X X # @ # - :X&X}. Xy 8.}.~.I.(.(.(.{.;X&X*X@X6X X X X~.~.~.(.y 8.(.=XoX&X5Xa = # X X X # X # = a 0 X # ",
"# y r # # X X @ X X # X X # # # X @ {.oX.X Xt 9..X/.~.{.{.1X%X1Xi W.@X7X.X%X7X(.(./.}.y 8./.,X*X:X9Xi @ # X @ X # X O X a 0 # # ",
"# r u 8.- = # # # # # # X # # @ X # (.=X:X}.y 8.{. X/.{.wX,X~.s a s q.3X:X2X3X|.{./.qXs 0.oX*X,X5X&Xy O # # # X # @ # # y a a X ",
"# X 6 u s q 6 # X # # X X # # # X O {.oX}.oXy 0..X~./.{.,X2X(.a a a 0.0X.X&X9X(.oX-X,Xa 8./.2X&X}.# X X # X O O # X # # # q y # ",
"# @ # # e u a 0 - # # # X # # X @ # i..X:X{.t 8.{.}.~.(.0X:X~.s i s q.1X*X:X1X}..XoXqX8.0.}. X*X=XO # o @ # O X # X # # X e a 0 ",
"# # @ # @ 8 q 3.q 8 # O X # # # @ @ X s.}.#Xy 0..X{./. X2X3X(.s a a q.0X#X,XqX{.oX>X2Xs 9.}.{.f.p.# # # # j 1 O # # # # # 7 r 3.",
"# X # # X X = a s r X # X # # O X # O p.(.}.t 2.{. X~.{.wX:X~.s i s 0.2X=X,X2X X.XoX0Xs 0. X9.r > x , 1 x U j X # X # # X X = 0 ",
"# @ X # O 9 r 8.q 6 # X @ # @ # O @ @ r s oXu 0. XW.~.{.:X3X.X(.a a 0.wX.X*X0X/..X=X=Xa 8./.X f G R N N T L h O # X # O # X X # ",
"# X # # y a i 6 # # @ # X # # # @ @ O O = t - 2.{.}.(.{.wX,X#X0Xi a e.2X&X=X}. X.XoXwX2.0..X  x P L P L L T j X # r q # X X # # ",
"# X 8 s a q = # # # # X X # # O O @ @ O @ # @ 0.}.{.W.{.}.,X&X5Xi a 0.9X#X.X.X(.oX=X2Xa - 9 o z Z T C Z P L m X # y a a X q y # "
};
