/* XPM */
static char *_5859c68a74f4668a33ee74aa2bf3c71KF5oZoTHQ14qpsKe[] = {
/* columns rows colors chars-per-pixel */
"64 64 184 2 ",
"   c #18191A",
".  c #262626",
"X  c #2A2626",
"o  c #272826",
"O  c #2A2926",
"+  c #292729",
"@  c #26282B",
"#  c #2A292A",
"$  c #342A25",
"%  c #3C2C25",
"&  c #352B28",
"*  c #3D2E29",
"=  c #262A32",
"-  c #392B32",
";  c #343434",
":  c #3D3D3D",
">  c #4F2F1F",
",  c #512F1F",
"<  c #4E301F",
"1  c #53321E",
"2  c #5B341E",
"3  c #7C3C0F",
"4  c #6E3916",
"5  c #64361B",
"6  c #68371A",
"7  c #66391C",
"8  c #6B3A1C",
"9  c #733B15",
"0  c #7B3E14",
"q  c #743D1A",
"w  c #7A3F19",
"e  c #432E24",
"r  c #4E2F22",
"t  c #402E28",
"y  c #522F20",
"u  c #463024",
"i  c #4E3223",
"p  c #453229",
"a  c #543322",
"s  c #5A3522",
"d  c #5C3825",
"f  c #4C333A",
"g  c #633720",
"h  c #643A21",
"j  c #6B3C22",
"k  c #693B34",
"l  c #764017",
"z  c #7E4016",
"x  c #76401A",
"c  c #7D4119",
"v  c #4F4033",
"b  c #5F413E",
"n  c #333949",
"m  c #323D53",
"M  c #4F2E41",
"N  c #4F3040",
"B  c #533343",
"V  c #62394C",
"C  c #6C3A53",
"Z  c #36435C",
"A  c #3C455C",
"S  c #374764",
"D  c #3D4D6C",
"F  c #355363",
"G  c #3F5071",
"H  c #3D537E",
"J  c gray26",
"K  c #4B4B4B",
"L  c #42485F",
"P  c #5A4653",
"I  c #555555",
"U  c #595A5A",
"Y  c #69524E",
"T  c #61615F",
"R  c #424B68",
"E  c #41516F",
"W  c #415272",
"Q  c #495275",
"!  c #53577B",
"~  c #656565",
"^  c #6D6D6D",
"/  c #706E6E",
"(  c #6F6F70",
")  c #747474",
"_  c #7B7B7B",
"`  c #823E0F",
"'  c #813F12",
"]  c #82400F",
"[  c #834215",
"{  c #894515",
"}  c #834419",
"|  c #884619",
" . c #86481D",
".. c #804259",
"X. c #8F486A",
"o. c #9D4972",
"O. c #A54D78",
"+. c #847B78",
"@. c #27827B",
"#. c #3E5681",
"$. c #415683",
"%. c #415985",
"&. c #495B87",
"*. c #445D8B",
"=. c #545C80",
"-. c #445F91",
";. c #4A618D",
":. c #50608C",
">. c #456194",
",. c #496394",
"<. c #4C659B",
"1. c #4F699B",
"2. c #4C6BA4",
"3. c #4B6BA8",
"4. c #526CA4",
"5. c #516EAC",
"6. c #4E71AC",
"7. c #5372AD",
"8. c #5375B4",
"9. c #5779B7",
"0. c #5579BD",
"q. c #557DC4",
"w. c #597EC2",
"e. c #567ECA",
"r. c #BB578A",
"t. c #C3598D",
"y. c #CB5C96",
"u. c #D15E97",
"i. c #D1619C",
"p. c #E35FA4",
"a. c #DD61A1",
"s. c #E363A4",
"d. c #EB66A9",
"f. c #EC64AA",
"g. c #F268AD",
"h. c #FA6AB2",
"j. c #279E9B",
"k. c #5B81C5",
"l. c #5681CD",
"z. c #5B84CB",
"x. c #5A83CD",
"c. c #5782D1",
"v. c #5B85D3",
"b. c #5D89D5",
"n. c #5B87D9",
"m. c #5E8ADB",
"M. c #6088CB",
"N. c #618AD6",
"B. c #658BD8",
"V. c #618CDC",
"C. c #6390DE",
"Z. c #5F8EE1",
"A. c #5F90E3",
"S. c #628EE1",
"D. c #628FE5",
"F. c #6291E2",
"G. c #6391E3",
"H. c #6491E2",
"J. c #6291E5",
"K. c #6591E5",
"L. c #6A95E5",
"P. c #6594EB",
"I. c #6794EA",
"U. c #6695EE",
"Y. c #6895EC",
"T. c #6895EE",
"R. c #868686",
"E. c #908E8D",
"W. c #8E9297",
"Q. c #9C9C9B",
"!. c #A29D9C",
"~. c #A4A4A3",
"^. c #ACABAB",
"/. c #B5B5B5",
"(. c #BCBCBC",
"). c #CAC9C9",
"_. c gray83",
"`. c #DCDCDC",
"'. c #E0DFE0",
"]. c #E4E3E4",
"[. c #ECEBEC",
"{. c #F0EFEF",
"}. c #F4F2F3",
"|. c #FCFBFC",
/* pixels */
"T.V.S.T.J.V.m.T.J.S.I.Z.S.I.U.S.m.T.D.K.m.T.S.S.I.K.Z.S.U.W a | o # % | [ 8 @ J.V.S.U.S.S.I.Z.V.S.U.S.V.I.D.H.m.T.S.H.U.F.m.D.U.",
"m.l.v.m.v.v.l.m.v.v.n.v.e.n.V.l.l.m.v.v.e.S.v.b.n.v.e.v.m.k.<.e 4 q 9 [ 0 5 @ b.l.e.m.v.v.n.v.z.v.Z.v.e.m.v.v.l.V.c.v.m.v.l.v.V.",
"S.v.v.S.b.v.v.A.N.N.V.v.v.b.V.v.v.V.b.V.v.S.v.v.V.n.v.n.V.9.&.1 w z z [ 8 P *.N.v.v.V.b.N.m.v.b.x.0.7.8.V.m.b.v.V.v.b.V.m.e.v.S.",
"T.m.S.T.K.S.m.U.H.C.I.Z.S.K.U.S.m.I.D.K.m.T.Z.S.I.S.Z.S.U.G s { [ } [  .e &.I.J.V.S.U.K.H.K.V.V.N.& # %.L.D.J.S.T.S.H.I.D.V.S.U.",
"S.v.n.K.m.b.v.A.V.b.A.m.N.V.S.b.v.C.m.m.v.F.n.N.V.V.v.b.F.D y [ 0 z 0 O . . = N.v.v.J.V.V.V.@ + % [ w h @ V.N.v.F.b.V.H.m.v.m.F.",
"S.v.v.S.b.v.c.Z.b.b.m.v.v.N.V.v.v.m.v.m.x.F.v.b.V.n.v.l.<.n % s a d a 8 $ O # N.v.v.S.v.0.-.s g 6 [ 0 6 O v.b.v.V.<.6.V.n.l.v.V.",
"m.e.v.m.v.x.z.m.v.v.n.l.x.v.n.x.l.m.v.v.l.m.c.v.v.v.e.9.# & X O $ $ e [ e $ + k.w.q.m.v.7.O 0 0 w l 0 6 & w.v.e.v.L Q z.v.e.v.m.",
"T.m.Z.U.F.Z.m.U.C.C.I.Z.S.J.U.S.m.U.A.I.m.U.Z.F.P.D.,.# # w 8 # [ { ` { [ 8 # o + m I.S.0.# { ' c # w ' | # 7.x.# 9 8 # J.m.Z.U.",
"V.v.b.F.b.b.v.F.b.B.V.b.v.V.C.b.v.C.m.N.v.C.v.N.C.D n # q c 0 q 0 h i } w 8 # . 2 j W R A O 0 w q o % s } 9 P R c z 8 o V.M.m.V.",
"K.b.b.F.N.b.v.F.N.B.A.m.b.b.C.b.x.F.b.V.v.H.v.V.C.# S ! 8 j 4 [ 8 +.E.j 9 8 = + g q a a u X w w q @ X...8 z 7 2 } 6 P *.V.z.V.D.",
"I.m.m.U.A.m.n.I.V.C.A.m.m.V.I.m.n.I.Z.H.b.U.n.C.L.o 3.v.. . a } . (.`.o q 6 # + h ] | c q X } ' c O u.r.# [ 0 c  .* *.I.Z.v.V.K.",
"Z.c.v.A.b.v.c.Z.b.b.Z.v.v.m.V.b.c.C.n.b.v.Z.v.n.V.n.;.U [.].(.o ].].].{./ 1 } X 6 0 [ e y w ' 2 V f.C r } X X . o 9.b.m.n.c.n.Z.",
"S.v.v.S.b.v.x.S.b.v.m.v.v.v.S.2.>.,.>.>.>.<.q.N.V.,.W./.[.].)./.`.].`.[.( r } X 5 0 [ 8 6 ' 0 1 f O.k a d 2.2.2.7.q.b.V.m.l.v.V.",
"K.v.b.S.m.b.v.K.N.V.S.z.z.z.v.A o # * * % t 8.z.z.# /.[.[.[.`.].].[.[.}.R.T c % 5 0 } ' w c q s % * q 7 o V.V.v.F.v.V.C.m.v.m.D.",
"T.m.S.U.F.m.m.I.V.C.H.o O # # # o # [ [ z { p # # @ /.[.|.}.).o [.}.{.|.[.).& [ c ' { } j # # 7 { { [ 8 # S.V.m.U.V.H.I.S.V.S.I.",
"S.v.v.V.b.b.x.F.b.9.D . I ^ ( : . o u 8 3 [ 4 q q # ^.`.) _./.. ].].'.[.`.(.X } w w [ w w q 4 q 0 [ < Q k.m.b.v.C.v.N.m.v.v.v.V.",
"V.e.v.m.v.v.e.m.8.-.O K T ) ) I K K + i 6 8 9 l c 1 E./.o ^.^.E.`.].`.[.(.!.i z 0 0 ] w 0 0 0 4 8 8 Q ,.b.v.v.l.m.l.v.m.v.e.v.m.",
"T.m.V.T.S.V.m.I.E # # _ ) _ +._ ) R.o o o # q } { [ 2 # # # W.|.[.}.}.|.) 1  .[ z [ { } { [ [ s # @ z.m.I.A.C.m.I.C.C.I.F.V.S.I.",
"D.v.n.S.m.v.v.Z.D # o ) ) ) _ ) ) ) ) I . # O 1 [ ] w z [ } 6   ].[.].}.) , { z 0 0 [ [ z [ 0 2 Z D.m.v.C.m.m.v.F.v.b.C.m.v.n.Z.",
"S.N.V.S.V.V.v.J.D o # I ~ _ _ _ ) _ _ ^ U # + * d z w z } h 2 7 Q.!.!.~.Y 8 } z ' w } c z [ [ 6 k <.z.v.H.m.V.v.K.b.V.S.V.v.V.S.",
"m.l.v.m.v.v.l.m.D o o o I ( ( ) ^ _ ( ) ~ o . . o 9 0 0 z u < z & & % & 9 9 [ z 0 3 0 0 0 [ 0 0 q @ 0.l.b.v.v.l.m.z.v.m.v.e.v.m.",
"T.m.S.U.J.V.m.I.G # # o # # # ^ ) _ _ U o # # # # # 5 [ { p a { { c [ { [ [ { [ [ [ { [ [ { [ [ c = z.m.I.A.F.Z.U.V.F.I.D.m.S.U.",
"S.v.v.m.v.v.k.D k 2 o . . o # : J J J ; . # . . o + 2 0 z 9 5 u 0 l 0 [ 3 0 [ 0 0 9 [ z w ' 0 0 9 @ 0.l.m.n.v.c.S.v.b.m.v.e.v.Z.",
"F.v.b.F.V.w.3.i x j a o . # # . o # . + . # . o # a 8 z { [ 8 a 8 x [ [ 0 w } [ z 0 j c z [ ' z c a 4.0.H.m.B.v.K.v.V.C.m.v.n.S.",
"I.m.V.K.V.>.& { [ [ | # . # # # # # # # + # + # # } z [ { [ [ } O h [ } z z } { [ q # q } } ' z [ { u $.J.A.V.m.I.N.V.H.C.b.C.I.",
"F.v.m.D.m.>.$ { z z [ o O # # + . # + o . + + a c ' 0 [ [ z 0 ] ' ' [ [ 0 [ [ z 0 0 { u a [ ' 0 [ [ % H A.m.m.n.J.v.V.S.m.v.n.S.",
"V.c.l.V.v.>.$ z z l z 5 e O + . . o . . . . 1 8 ' 0 0 0 z z 0 3 0 0 0 [ 0 0 z 0 0 0 [ e 1 ' 0 0 x [ % H m.v.v.l.m.l.v.m.v.e.v.m.",
"S.v.v.S.v.;.$ { z z ] z 2 & # o . o + & % * 9 } } 0 0 0 [ z z [ 0 z 0 [ 0 w [ [ 0 0 [ i a w 0 0 z [ u H C.m.m.v.S.v.N.V.n.v.b.Z.",
"U.m.V.I.S.,.$ { { [ { [ ' l # # + # o h ' { [ [ { [ [ [ { } z { [ } [ { 0 [ | { [ 0 { [ 6 # } z { { u %.L.A.V.m.I.V.F.K.Z.b.F.I.",
"S.v.V.S.V.z.9.p x c } z w } q % o # q c [ } c [ } [ z [ { } 0 { [ c z { z z } [ z 0 { c 8 + c h i } 9 P G b.V.b.F.b.N.C.m.b.m.F.",
"S.l.x.V.v.v.k.*.P q ' 6 9 w [ % & a 0 0 3 z 0 l z 3 0 0 7 w w ' z z 3 [ 0 0 z z 0 0 [ 0 6 # 0 a % [ 3 6 @ b.b.v.V.x.b.m.v.l.v.V.",
"I.m.V.I.V.m.n.A.R 1 [ O 5 [ { < a } [ [ 0 { ' [ } [ w w # q [ [ ] z [ [ z [ { [ [ ' { [ 8 + [ 2 % [ [ 4 # m.V.n.I.m.V.U.Z.m.m.K.",
"Z.x.v.S.b.v.c.A.N.6.o x 0 [ ] w 6 X w w 0 [ t < [ ` 0 0 [ z 0 [ 3 a o o 9 0 [ ' 0 0 [ 0 6 O w s % [ 0 5 o b.b.v.m.v.b.V.n.v.v.m.",
"H.v.N.F.b.b.v.F.N.k.7.1 8 z { c 8 # [ } 0 } 7 q } [ l z [ } l c s * # # q w } z z z [ } 8 o a 2 8 { c 5 o m.m.b.C.N.N.C.m.b.N.F.",
"S.v.v.A.m.v.v.A.N.b.m.Z k x [ w 8 % q l 3 [ 3 c [ ' 0 w c z 0 c o o o o 6 l { z 0 0 [ c 8 X % 5 w { w 6 @ b.m.v.V.v.m.V.n.v.m.Z.",
"U.m.C.U.F.C.m.U.S.S.I.Z.<.* { [ [ | # 8 [ { [ [ { [ } c # x 4 # # # # # o a | [ [ [ { [ 8 O } } [ { [ 4 # C.F.m.T.V.H.L.J.m.S.I.",
"m.c.v.m.v.v.l.m.v.x.m.v.q.8.e 9 0 [ 4 2 e [ 0 w z 0 0 0 q w 6 . . o . # . 1 [ 3 0 0 0 0 5 O 0 0 w [ 0 5 o v.c.l.m.l.b.m.n.l.v.m.",
"S.x.v.V.b.v.x.V.N.N.m.v.z.k.# q 0 w w s & 8 6 8 c ' w w [ 8 1 # . . o # . % 8 z 0 z [ 0 5 O w w w { 0 5 o v.b.v.V.z.b.m.v.l.v.m.",
"T.m.V.I.F.V.m.I.C.H.J.A.S.b.& q } } ` g # # # a | [ [ [ | p # # # # # # o # # } [ [ { } 8 # c c [ { [ 8 # F.H.V.Y.V.H.L.F.V.S.U.",
"K.b.m.K.m.m.b.F.V.N.A.m.,.% [ w w } ' d m H.N.8.X + X O # + + # + o # # . # o [ z 9 [ z 8 # c 0 [ [ [ 6 @ m.m.v.F.m.V.S.m.v.m.J.",
"S.l.v.V.v.v.v.Z.b.b.m.v.8.1.s 9 0 ' 2 =.3.V.v.8.+ 5 e . O . . o . O . + . . . w 0 0 [ w 5 + 0 0 z [ 0 6 . m.v.v.V.v.N.V.b.c.v.S.",
"m.l.v.S.v.v.e.m.v.v.m.c.v.k.m j 9 w n 4.c.x.q.3.# w a O + X - N N - # B M f . 9 0 0 ' 9 5 % w 0 l ` 9 5 . v.v.c.m.z.v.m.v.e.v.m.",
"U.m.S.U.J.V.m.I.C.C.I.A.m.K.I.D O # S.F.v.# o # # } s + + # X.h.f.o.V h.f.t.# } [ [ { i a { ] [ { { [ 8 # F.F.m.U.V.F.I.S.m.Z.U.",
"K.v.b.S.m.n.v.Z.V.b.V.v.n.V.S.w.8.e.m.4.L q q q q e $ . # r.y.g.C r.y.g.a.r.& c 0 0 } u i [ [ w z [ i Q k.m.N.v.H.v.V.V.m.v.n.S.",
"F.v.b.C.b.b.b.C.N.N.C.v.b.V.V.V.x.S.8.! a q 6 8 8 # O O o u.a.f.X.y.a.f.a.r.O } c 0 } i a z 0 0 [ } e #.C.m.N.v.C.b.N.C.m.x.N.C.",
"P.n.b.P.V.m.v.P.V.C.A.m.m.S.J.V.b.K.@ 7 0 # O + O O O O O i.s.g.s.d.f.h.f.r.O c z 0 } p a [ [ z [ [ t %.J.Z.m.m.I.n.C.K.m.m.m.J.",
"F.c.v.Z.n.v.v.Z.b.b.Z.v.v.m.m.v.5.# z z 0 } 0 w c w 0 w } p . O a.s.s.f.C r } ` 0 9 X 4 z [ 3 0 0 [ e #.C.n.n.v.Z.v.N.m.m.v.n.D.",
"V.l.v.C.v.v.c.m.b.x.m.v.x.v.V.x.q.5.a 8 3 [ 0 w [ 0 0 w z 8 2 7 o.o.o.O.k 5 c w 0 9 o q z [ 0 0 z [ % H m.v.b.x.m.z.b.m.v.l.v.m.",
"Y.v.m.D.m.b.v.J.m.b.J.m.n.V.S.b.v.C.Z b 9 c q q c w 9 q c c x } % % % t q ' } z w 4 e q [ [ w w z [ u #.V.m.V.v.K.b.V.V.V.v.m.S.",
"P.m.S.I.P.V.m.P.F.F.A.A.S.J.I.F.m.I.A.<.# # # # # @ o # # @ a [ [ { [ { ' [ { [ d % { ] [ { ` ' [ { u %.I.J.F.m.U.m.C.I.J.m.S.U.",
"S.x.v.S.b.v.v.Z.b.N.V.v.v.b.S.v.c.S.n.z.8.# 7 q q 4 4 4 9 9 2 u e 6 w [ 0 w [ [ a $ [ w z [ 0 0 z [ % H C.m.m.v.F.v.N.V.m.l.n.V.",
"m.x.v.m.v.l.z.m.v.z.m.x.x.b.m.x.e.N.8.7.<.o 4 w z 0 4 j z z 8 i , 8 0 ' 0 0 w 6 a > [ w w 0 0 0 0 [ e H b.v.v.l.m.l.v.V.v.l.v.m.",
"I.V.V.I.F.V.V.I.C.C.I.m.V.H.I.m.m.L.+ o + # q  .}  .2 % { } z { [ } [ | [ c  .$ 7 ' { } [ { } [ [  .p %.L.S.C.m.I.V.C.I.F.m.C.I.",
"J.v.n.D.m.m.n.A.m.m.A.m.n.m.J.m.6.@ m.N.q.+ . a [ 0 0 w | e 1 [ 0 z [ [ 0 5 # c ' w [ [ [ [ 0 0 c # 0.v.S.m.m.n.F.v.m.Z.m.c.n.S.",
"J.v.v.F.b.b.v.A.N.N.m.n.v.V.F.b.q.7.B.8.>.8.m % d s 4 c } j 8 [ z z l d 2 2 j z 0 0 { z [ [ 0 0 9 # k.v.S.m.b.v.F.v.V.C.m.v.b.F.",
"Z.e.v.Z.v.v.l.m.v.v.n.v.v.n.m.v.e.m.z.-.S x.A & O % 2 9 0 9 0 9 9 9 4 % & y [ 0 0 0 [ 0 0 0 0 0 q # 0.l.m.n.v.c.m.x.v.m.n.e.v.m.",
"T.m.V.U.F.C.V.U.C.C.I.V.V.I.I.C.m.L.= 7.v.# w j # [ s # # @ # # # # % | [ [ { [ 0 [ { } [ { [ [ c # k.m.I.J.H.m.U.C.F.L.J.m.D.P.",
"V.l.v.V.b.v.l.m.b.z.m.v.c.v.m.v.l.m.q.;.L x 9 8 o 0 9 9 x 4 9 9 4 9 4 [ z 0 z z 0 0 [ 0 w z 0 9 q + w.z.m.v.v.l.V.l.v.V.v.l.v.m.",
"K.b.b.K.b.b.v.J.V.B.S.m.b.V.C.b.v.C.8.! a { 0 8 a 8 q c } } l [ z c z | l z } z z c [ z [ } w q k ;.z.v.C.V.V.b.K.b.V.V.V.v.V.S.",
"I.m.V.I.A.C.m.U.V.H.K.m.V.F.I.V.m.L.@ h z { [ } } # 5 [ } } [ { [ z [  .[ z  .[ [ [ [ } [ { [ s Z I.V.b.I.F.A.m.P.V.C.L.V.m.V.I.",
"J.v.n.J.m.n.v.Z.m.m.Z.v.v.V.D.b.v.S.+ h 3 { 0 [ { [ 0 [ [ [ 0 ] ` z [ [ z z { z 0 0 [ z [ [ z 2 Z Z.n.v.S.m.m.v.J.b.m.S.m.v.n.F.",
"V.e.v.m.v.x.l.m.v.v.n.c.l.v.m.z.8.,.2 q 0 ' 0 w c 0 9 0 [ z 0 0 0 0 0 [ 3 0 z 0 3 z [ 0 z z z 1 Z n.v.l.b.v.v.l.V.l.v.b.v.l.v.n.",
"D.v.v.J.n.v.v.Z.b.b.m.n.v.m.Z.z.4.% w z 3 [ 0 [ } ' 0 z [ z z [ 0 z z [ 0 z [ z l 3 [ z z [ 0 f F b.v.c.S.m.m.v.S.v.m.V.n.v.n.S.",
"U.m.m.U.S.V.m.U.C.C.U.Z.S.S.I.D a { [ [ ' { [ [ } ' z [ [ { z [ [ [ [ { z [ { [ [ [ { [ [ } # @.j.# z.m.K.D.S.m.U.m.S.I.Z.m.S.P."
};
