/* XPM */
static char *_af8d552d42b4818d77f27ad840a32bfqohimJbej7Z9lSxZ[] = {
/* columns rows colors chars-per-pixel */
"64 64 197 2 ",
"   c #171715",
".  c #181712",
"X  c #171814",
"o  c #191916",
"O  c #1B1B19",
"+  c #1F201F",
"@  c #3B3B18",
"#  c #1F2221",
"$  c #232523",
"%  c #262826",
"&  c #282927",
"*  c #2B2C2B",
"=  c #2C2F30",
"-  c #2F3132",
";  c #323434",
":  c #353837",
">  c #343738",
",  c #363A3A",
"<  c #3A3D3C",
"1  c #6D131B",
"2  c #74131D",
"3  c #7D101F",
"4  c #423F1C",
"5  c #77373C",
"6  c #3A403E",
"7  c #46441C",
"8  c #4A4A32",
"9  c #79782B",
"0  c #6A6D31",
"q  c #747436",
"w  c #3C3F41",
"e  c #743C42",
"r  c #3D4242",
"t  c #424544",
"y  c #424648",
"u  c #464B4C",
"i  c #4A4D4D",
"p  c #5C4B4D",
"a  c #4D504F",
"s  c #494F51",
"d  c #4C5254",
"f  c #4F5758",
"g  c #525454",
"h  c #585856",
"j  c #525659",
"k  c #545A5C",
"l  c #5A5C5B",
"z  c #63484D",
"x  c #7D494E",
"c  c #684D52",
"v  c #575E60",
"b  c #595E61",
"n  c #5B6265",
"m  c #636464",
"M  c #676C6E",
"N  c #6A6F70",
"B  c #757777",
"V  c #7B7D7D",
"C  c #AC0A1E",
"Z  c #AB0B21",
"A  c #BD0723",
"S  c #B40922",
"D  c #BA0923",
"F  c #992425",
"G  c #AD3523",
"H  c #B63622",
"J  c #BD3922",
"K  c #A63535",
"L  c #C40523",
"P  c #CD0425",
"I  c #CC0629",
"U  c #D00326",
"Y  c #996C26",
"T  c #817F27",
"R  c #C66A31",
"E  c #834048",
"W  c #7F807C",
"Q  c #828129",
"!  c #99942E",
"~  c #9B9A29",
"^  c #BC882D",
"/  c #AD9136",
"(  c #AAA82C",
")  c #B9B629",
"_  c #A6A436",
"`  c #AEAC33",
"'  c #CD9228",
"]  c #C9972B",
"[  c #C9B229",
"{  c #C4BE36",
"}  c #BEC032",
"|  c #C9C41D",
" . c #D3CE1D",
".. c #DAD614",
"X. c #D9D617",
"o. c #DBD61B",
"O. c #DCD91B",
"+. c #E2DE17",
"@. c #EFEB0C",
"#. c #F0EB0E",
"$. c #E6E317",
"%. c #EEEB13",
"&. c #E5E21C",
"*. c #EEEA1A",
"=. c #F0EB17",
"-. c #C6C323",
";. c #CBC926",
":. c #C6C42C",
">. c #CAC62A",
",. c #D2CE25",
"<. c #D3CE2B",
"1. c #D3D025",
"2. c #DAD623",
"3. c #DDD924",
"4. c #D4D12C",
"5. c #DAD62B",
"6. c #DDD92B",
"7. c #C3C234",
"8. c #CCC935",
"9. c #C3C33C",
"0. c #D1CE35",
"q. c #D6D333",
"w. c #DAD633",
"e. c #DEDA33",
"r. c #D5D33A",
"t. c #DED63A",
"y. c #E4CB2E",
"u. c #E5DF27",
"i. c #E1DB34",
"p. c #E6E223",
"a. c #EEEB22",
"s. c #E8E42B",
"d. c #F1EA21",
"f. c #F0E92C",
"g. c #E8E431",
"h. c #BDBC40",
"j. c #81817E",
"k. c #7B7E81",
"l. c #7E8485",
"z. c #838483",
"x. c #878987",
"c. c #838789",
"v. c #858A8C",
"b. c #8C8C8B",
"n. c #90908F",
"m. c #8A8F91",
"M. c #8D9193",
"N. c #969695",
"B. c #929699",
"V. c #959A9C",
"C. c #9B9D9D",
"Z. c #A1A19F",
"A. c #9A9EA1",
"S. c #9DA3A5",
"D. c #9FA5A8",
"F. c #A3A5A5",
"G. c #A8A9A6",
"H. c #A2A6A9",
"J. c #A5AAAC",
"K. c #ACADAC",
"L. c #B1B1AE",
"P. c #A6ACB1",
"I. c #AAAEB1",
"U. c #ACB1B4",
"Y. c #AEB4B8",
"T. c #B3B3B2",
"R. c #B7B9B7",
"E. c #B6BABB",
"W. c #BCBDBD",
"Q. c #BDC0BE",
"!. c #C1C2BF",
"~. c #BCBEC0",
"^. c #BDC1C2",
"/. c #C3C4C3",
"(. c #C7C8C6",
"). c #C9C9C6",
"_. c #C7C8C9",
"`. c #CBCCCB",
"'. c #CED0CE",
"]. c #CFD2D1",
"[. c #D4D4D4",
"{. c #D7D9D8",
"}. c #DBDCDB",
"|. c #DFE1DE",
" X c #E0E0DF",
".X c #E4E4E3",
"XX c #E6E9E6",
"oX c #E9EAE6",
"OX c #EAEAEA",
"+X c #EBEBEA",
"@X c #EEF0EC",
"#X c #F0F0EF",
"$X c #EFF1F1",
"%X c #F3F4F3",
"&X c #F8F8F6",
"*X c #FEFEFD",
"=X c #FEFEFE",
/* pixels */
":.5.0.<.5.G A C A ^ 2.8.5.-.5.8.O o X X   O     g C.m.F.A.[..X]..X]..X[..X^.S.B.S.S.B.S.M.A.N j < O O $ + k k a f & O r k 5 D Z ",
"O.*.p.&.d.J P A P ' #.6.#.X.*.s.O O O O   O O O l I.S.U.J.$X*XOX*X.X*XOX*X}.U.A.U.U.H.U.S.U.B n r O O O + n b k n * O u n E I D ",
">.5.4.,.6.G A C A ^ 3.8.3.:.9 9 o o o O       O g F.B.}.].U.E.[.XX[.XX[.XX[.}./.D.S.V.D.B.D.M.M.N a 6 O O : ; j k & O t v p x e ",
"O.%.p.$.=.J P A P ' @.6.%.2.O O O O o O O O O O l U.H.*X%XH.I..X*XOX*XOX*X+X*XXXU.U.H.U.S.U.S.U.l.n a + O O O k n * O u n k n c ",
":.w.r.0.t.G A C D ^ e.9.w.{ o o o o o o X X d V V D.B._.~.~._.[.XX[.XX[.XX[..X[.)./.V.S.B.S.B.S.v.l.M X X X O d k t y < t t k z ",
"X.*.&.&.d.J P A U ' #.6.%.,.O O o O o O o O B U.S.I.A.Y.P.$X*XOX*XOX*XOX*XOX*XOX*X&XH.Y.D.U.D.Y.S.Y.v.+ X + + k n k n < + 6 n c ",
">.6.q.4.e.G A C A ^ 6.9.) _ o o o o X o u m V S.B.D.A.H.A..XOX~._.].OX}.OX[.[._.{.].U.Q.V.D.B.S.B.D.x.: - X X f k g l ; O < k z ",
"O.*.p.$.d.J U A U ' @.) O O O o O O o O c.U.S.U.A.U.A.Y.P.$X*Xm O !.*X+X*X}.I.S.U.I.oX&XI.U.S.U.S.U.B.n k + + k n k n < O 6 n c ",
">.w.q.q.e.H A Z A ^ 6.` O X O o o O X O l.F.V.D.C.I.S.U.G.[..Xl O T.OX{..X_.I.A.I.J.}.oXJ.U.V.D.V.D.v.v j O o j v s k ; o < k z ",
"2.a.s.p.f.J I D I ] a.[ + O O O O O o O v.U.S.Y.E.*XoX*X%XO O O O !.*X`.I.E.*XOX*X&X+X*XOX*X^.U.S.U.B.n j O O k n * O o O r n c ",
",.u.3.2.s.H L S L ' i.` O o O o o O X X l.H.C.J.U.%X}.%XOXO O o O R.$X/.F.T.%X}.%X+X.X%X|.$XE.D.A.D.m.b j o O f b * o o O < n z ",
" .+.6.O.s.H L S L 3 O o O o O O O O B.P.`.%X.X%X/..   o o o O   O W.%X.X&X X&X}.o . .X%X X&XE.P.A.P.v.o O v v j b * o o O < n z ",
"6.f.s.i.f.J P D I 3 O O O O O O O $ V.Y.[.*XoX*X).O O O O O O O O /.*X+X*XOX*X.XO O $X*XXX*X^.Y.S.U.M.O O n m v n * O O O w n c ",
">.i.4.q.y.H L ] y.! o X O o O o N.C.`.oXb.g a g t O . O     O o O T.#X}.+X/.g i O O |.$X}.+XY.D.B.D.c.O O b v j v * o   O , k z ",
"o.*.p.&.=.J U [ #.~ O O O O O O G.U.|.*Xb.o o O O O O O O O O O O !.*XOX*X`.O o O O +X*XOX*X^.P.S.U.M.O O n n k n * O o   r n c ",
":.6.q.4.u.[ [ { 6.! O X O % v.c.`.{.b.j.i o   o o o . O O   O L.`.`.OX{.+XW.O o O . E V.`.OXU.D.M.H.l.O O k k ; > O   > s z K F ",
"o.=.u.$.%.X.#.3.@.~ o + . ; Y.J.%X*Xh O o O O O O O o O O O O }.*XOX*XOX*X`.O O O O O O {.*X~.Y.S.U.M.O O n n O O O O u n E U D ",
"8.e.r.q.e.8.i._ _ 0 o . . - H.Z.|.oXg o o o o O X O   O O F.L.[.OX}.OX}.OX~.O   O O O O `.OXY.F.v.V m O O v v   O , r s v e D Z ",
"o.=.u.$.%.o.%.T O O O o O - L.J.$X*Xl O O O o O o O o O O #X*XOX*XOX*XOX*X`.O   O O O O {.*XW.I.V O O O # n n X o d n k n E I A ",
";.2.<.,.3.| 2.9 o o o o . - F.A.|.OXb.b.i o o o y b.V b.z.`.[.[.OX[.OX[.OXW.O   O O     (.OXW.E.l.O X X o i i X o s k u s 5 A Z ",
"o.=.p.&.*.o.%.Q O o O o O ; I.P.$X*XOX*Xb.O O O W *XXX*X%XH.U..X*XOX*XOX*X`.O   O O O O }.*XXX*XL.+ O O X O O O O d n < O 2 U A ",
">.6.4.w.6.>.6.9 o o O o o * A.B.}..X[.%XN.m l m b..X[.XX}.G.U.[.#X}.$X}.#X/.O   O O   O !..X{.#XF.o X O . O o X O i k : O 2 A Z ",
"O.*.p.&.*.o.*.Q O o O O O O O O J.I..X*XOX*XOX*X[.U.S.U.J.%X*XOX*XOX*XOX*X`.O O O O O O O O ~.*XL.+ . O O O O o O d n < O 2 P D ",
" .p.5.o.&. .$.9 O o O o O o O O A.J.[.%X}.%X.X@X[.J.V.J.S.XX%X.X%X}.%X.X#X/.O   O O O O O O R.%XG.. . O o O O O O d n : O 1 L S ",
",.&.6.O.p. .&.9 + o o o O o o O H.P.A.J.A.J.A.P.A.P.A.%XOXO O o O R.&X X&X).O o O O O O   O W.%X X&X(.o X O O X O i n , o 1 L C ",
"6.d.s.p.d.2.a.Q + . O O O o O O J.U.F.U.H.I.F.I.S.Y.J.*X%XO O o O ~.*XOX*X`.O o O O O O O O !.*XoX*X'.+ O O O X O f n 6 + 2 P D ",
"-.O.1. .2.| o.9 O X O X O o o o - ; m.S.B.D.B.A.G..X`.y t o O o O ; t F.oX{..X`.O O X O   O L.OX].oXQ.k d X + . X u k ; O 1 L C ",
"O.*.p.&.*.o.%.T O O O O O o O o O # B.I.D.U.H.I.E.*X.X+ O O O o O O O G.*XoX*X.XO O O O O O ~.*XoX*X'.n f + + X + i n , O 2 P S ",
">.5.q.<.q.9 9 7 O X o * s y o o o O a l x.S.B.D.J.oX[.`./.W.`.W.).B o C.OX{.OX[.`.(.W.`.W.`.`.OX[.OX^.l d X O u i ; : + O 1 A Z ",
"o.%.&.&.a.7 O O O o O > n j O O O O o O c.U.H.U.E.*XOX*X%X%X*XOX*Xn.O G.*XOX*XoX*X&X+X*XoX*X+X*XXX*X].n d + O k n * O O O 2 P D ",
";.6.4.<.e.7 o X o o o ; k d o o   O   o k.H.J.`.^.oX[.OX.X XOX}.oXT.L.Q.OX[._.W.+XoX}.OX{.+X{.+XQ.K.M.k a O O d l % o 9 ( Y A K ",
"o.%.p.$.a.7 o o O o O > n f O O O O O O c.I._.*XOX*XOX*X&X$X*XOX*XOX*XOX*X}.I.F.*X&X+X*XOX*X+X*XL.O ; n k O + k n * + ( @.' U R ",
">.5.4.4.e.4 O o o o o - v d   O o O g n c.S.~.OX[.(.R._./..XOX}.+X}.%X}.OX].W.T.{.[.`.{._.}.!.).b.O - k d O O j v % O _ 2.] R / ",
"X.*.a.&.f.7 O o O O O , n f O O O O A.U.S.I._.*X).O O O o #X*XOX*XoX*X+X*XOX*X.XU.I.H.U.S.I.m O o O ; n k O O j n * + ` #.o.#.t.",
"| o.1. .2.@ o + % O O - f s O   o o v.A.B.J.T.}.K.O X O . `.}.[..X[..X[..X[..X].J.H.S.H.m.B.k o . O = k s O O d j % o ~ X.-.O.7.",
"o.*.p.p.f.7 o i n r O , n f O O O O A.I.[.*XK.O o O O O O O O }.*XOX*X+X*XOX*XOX*X&XOX*Xm + o O O O ; n k O O k n * O ` %.2.%.r.",
";.3.6.5.g.4 o u n r o > n d O O o O M.J._.%XG.O   O   O O   O [.$X}.$X X%X.X+X.X%XOX.X%Xm O   O . O - n d O X f l * O _ +.,.+.8.",
" .a.u.o O o O i b r O ; n f O O o O B.I.`.%XK.O O O   O O O O   O ~.&X.X&X.X&X.X&X#X. o . O O O < n k n f O O O O o O _ $.4.&.r.",
"2.a.s.O O o O s n r O > n f O O O O A.I.[.*XT.O O O O O O O O o O !.*XOX*XOX*XOX*X&XO O O O o O 6 n k n k O O O O O # ` =.5.*.r.",
"-.O.4.. o i j d v w o - f s O   o o v.A.m w = o   o   O     O   o T.OX[.OX[.OX[.oX X. o     . O , k j k s O O   o   O ! o.-.o.7.",
"o.=.s.O O j n k n r O > n j O O O O B.U.m O o O O O o O O O O O O !.*XOX*XOX*XOX*X&XO O O O O O w b v n j # # o O O + ` @.O.%.q.",
":.9 q i d d l < > % O ; v d O O   O W.}.V O o O   O   O o o O o O T.OX}.OX}.OX[.z.j.O O   o < s s v f v d o     O ~ ) h.3.>.3.9.",
",.O O b n k n ; o O O > b j O O O O }.*Xb.O O O O O O O O o O O O !.*XOX*X+X*X.XO O O O O O i b k n k b j O # o + -.@.r.@.2.@.r.",
"Q y t j k s k ; o o O - f d O O   O /..Xk.o o o   O   O o o O N.L.(..X{..X/.Z.N.O o o O < t i k d k d k d O o   O ) o.} o.-.O.7.",
"$ n b v n b n , O o O > n f + O + X |.*Xb.O O O   O O O O O O }.*XOX*XOX*X`.O o O O O O g n k n k b v b f # o o O -.@.q.#.2.#.q.",
", k j k k r s * o X O ; k d o X X + ^.XXj.O   O   O   O o O O _.OX[.OX(./.C.O   O O o O i k d b f v d v d o o o O ) 5.9.5.:.6.9.",
"k n n k n + O o O o O : n f O O O + XX*Xb.O O O O O O O O O O  X*XOX*XT.O O O o O O o O g n v b k n v b f # O O O -.@.q.@.3.%.q.",
"s j a d f + o X o X o - f d X X X X ^.&XE O       O   X O i g _..X`.[.N.O X O   O O o o i j s d s f d f i X O X X ) ..:...-.X.) ",
"j O O O O O O O O O O > b j O O o + }.&Xn.O o + o O o + o #X*XOX*Xn.O O O o O o + O o + f n 6 O w n v n k O O o # :.%.r.=.2.*.r.",
"d O O O O   O   O   O ; b j O O . + `.@Xj.o o O . O o o o .X#X X#Xv.O o O o o o . O . O a k ; + w k f v f O o o O ) +.8.$.;.O.8.",
"o O O O O O O O O   O ; b j O O . o [.&Xb.O o O o O o O o +X&Xm     O O O o O o O O k b j n : O w v k v j O O O O ) &.r.$.4.$.0.",
"o O O O O   O O O O O > n j O O + . |.*Xb.O O O o O o + o #X*Xm O o O O O O O o + O l n k n : + w n v n f O O X + :.a.r.%.2.%.r.",
"X o o o o           O - v s O   X O ).XXE O   o o o ;  X{.< 8 + o   o   o X o O g g g f * + O . w f f f s O O   X @ @ _ O.-.O.7.",
"O O O O +   O O O O O > b j # o X + |.&XA.O o O o O 8 *X%XO O O O O O O O O O # n n b n * O . + w n v n f # # O O X O _ %.3.@.r.",
"  O o O     o   o O O - k d O   X X ).XXl.#   O o o : oX Xo o . o   O o X X X + k k f l % O . O w k r > =     r a # O _ 2.:.3.9.",
"o O O O O O O O o O O > n f O O O X |.*Xm.#   O o O < &X%Xo O o O o O O O O + + n v v n * O O O w v f # O O # k n * O ` @.2.@.q.",
"  O   O O       O   O ; k d o O F.L.N.G.l O   O h K.F.G.Z.O O   o   O   O   O O k k < 6 + O ; t u k u o   O   w r 6 r q ~ ( X.} ",
"O O O O O O O O O   O > n j o O %X*Xl O O O O O E *X.XO O   O O O o O O O   O # n n O # O O u n k n s o o O O   O d n 6 O ! #.q.",
"  O   O O   O   o   o - f s O   }..Xp O   O   o l.#X`.O     O   O   O   O   O O i u O o o o t k d k s > - O   ; : r u , : q ) _ ",
"  O O O O   O O O O O > n j O O $X*Xh O O O O O l.*X.XO O O O O O o O O O O O   O O O O o O u n k n v v v O O v n * + y n r + 0 ",
"    O   O           O - v s O   }.OXa   . O < g l.{./.O         O   O   O           O o # # r k d k d f s O O f k % o r k r O 0 ",
"O O O O O O O O + o O > n j O o #X*Xl O   O G.*X_.+ X + O O O O O O O O O O O O # O o O k n v n k n v n k O O k n * # s n r O o ",
"  O O O O o O o O   # - v d O o .X#Xg       F.OXQ.O X O O O O O O   O   O O O   O o o o s b d k f v f v f O O j v % o r v < O   ",
"  O O O O   O   O   o - n d # o OX&X X%X X%XXX%X/.O X + O   O   O   O   O   O   O O o # d b w O w v s O   O O j v * o   O r n d "
};
