/* XPM */
static char * uchiwa_xpm[] = {
"64 64 365 2",
"  	c #222D5B",
". 	c #192143",
"+ 	c #030303",
"@ 	c #11162E",
"# 	c #212B56",
"$ 	c #080A17",
"% 	c #1D254A",
"& 	c #030304",
"* 	c #030302",
"= 	c #222D5C",
"- 	c #161B39",
"; 	c #222C59",
"> 	c #0C0F20",
", 	c #1F2850",
"' 	c #04050B",
") 	c #040303",
"! 	c #0B0202",
"~ 	c #120303",
"{ 	c #110303",
"] 	c #070303",
"^ 	c #192041",
"/ 	c #040304",
"( 	c #370708",
"_ 	c #7E1315",
": 	c #A8181B",
"< 	c #C01B1E",
"[ 	c #D11D20",
"} 	c #DA1E21",
"| 	c #DC1F22",
"1 	c #DC1F23",
"2 	c #D81D21",
"3 	c #CB1D1F",
"4 	c #B7191C",
"5 	c #981718",
"6 	c #630F0F",
"7 	c #222D5A",
"8 	c #10152B",
"9 	c #130303",
"0 	c #7C1314",
"a 	c #BE1B1E",
"b 	c #DF1F22",
"c 	c #E51D20",
"d 	c #E61D20",
"e 	c #E51D21",
"f 	c #E41D21",
"g 	c #E61D21",
"h 	c #E41D20",
"i 	c #D41E21",
"j 	c #A5181A",
"k 	c #4E0B0D",
"l 	c #222A55",
"m 	c #070814",
"n 	c #0A0303",
"o 	c #7F1417",
"p 	c #CD1D20",
"q 	c #E11D21",
"r 	c #B21A1E",
"s 	c #4C0B0D",
"t 	c #1C2448",
"u 	c #030305",
"v 	c #4F0A0C",
"w 	c #C11B1F",
"x 	c #DE1E21",
"y 	c #96161A",
"z 	c #141A36",
"A 	c #7E1214",
"B 	c #DC1D22",
"C 	c #3E090A",
"D 	c #222B58",
"E 	c #0A0E1E",
"F 	c #050304",
"G 	c #971519",
"H 	c #E21E21",
"I 	c #D11D21",
"J 	c #520B0C",
"K 	c #1B2145",
"L 	c #050303",
"M 	c #991619",
"N 	c #D61D20",
"O 	c #540B0E",
"P 	c #202B54",
"Q 	c #090A16",
"R 	c #8A1415",
"S 	c #E61C20",
"T 	c #D11C21",
"U 	c #3C0809",
"V 	c #10152E",
"W 	c #630E0F",
"X 	c #DF1E22",
"Y 	c #BF1B1F",
"Z 	c #120404",
"` 	c #1B2347",
" .	c #240505",
"..	c #CF1D20",
"+.	c #961518",
"@.	c #0A0D1C",
"#.	c #9E181B",
"$.	c #DC1E21",
"%.	c #460A0C",
"&.	c #232C5C",
"*.	c #1A2244",
"=.	c #3F0A0A",
"-.	c #DD1E22",
";.	c #B0181C",
">.	c #222C5B",
",.	c #0D1022",
"'.	c #A2181A",
").	c #E01E22",
"!.	c #46090B",
"~.	c #1C0305",
"{.	c #D81F21",
"].	c #E51C20",
"^.	c #9F171B",
"/.	c #181E3D",
"(.	c #791214",
"_.	c #D01D20",
":.	c #0C0404",
"<.	c #0F1326",
"[.	c #AD181C",
"}.	c #E31E21",
"|.	c #550E0F",
"1.	c #07050B",
"2.	c #CE1D20",
"3.	c #8F1518",
"4.	c #202852",
"5.	c #2A0506",
"6.	c #E01E23",
"7.	c #B0191B",
"8.	c #1D264C",
"9.	c #5A1213",
"0.	c #C21A1E",
"a.	c #1B2447",
"b.	c #791012",
"c.	c #CE1D21",
"d.	c #841114",
"e.	c #D41F22",
"f.	c #070203",
"g.	c #841213",
"h.	c #E41E21",
"i.	c #DB1F22",
"j.	c #C81C1E",
"k.	c #BB191C",
"l.	c #AF1A1C",
"m.	c #AA1A1C",
"n.	c #AC1A1D",
"o.	c #B6191C",
"p.	c #C21B1E",
"q.	c #D31E21",
"r.	c #E11E22",
"s.	c #D42022",
"t.	c #080203",
"u.	c #1C254A",
"v.	c #7C1012",
"w.	c #E61C21",
"x.	c #941517",
"y.	c #5A0D0E",
"z.	c #1B0F0F",
"A.	c #545455",
"B.	c #848483",
"C.	c #9B9B9B",
"D.	c #A0A0A0",
"E.	c #9F9F9F",
"F.	c #959696",
"G.	c #777777",
"H.	c #3B3A3A",
"I.	c #3B0606",
"J.	c #AF191C",
"K.	c #D61F21",
"L.	c #E51C21",
"M.	c #D01C20",
"N.	c #060203",
"O.	c #1E274F",
"P.	c #5F1113",
"Q.	c #D91E21",
"R.	c #A11719",
"S.	c #480C0C",
"T.	c #454545",
"U.	c #A4A4A4",
"V.	c #D5D4D5",
"W.	c #F3F3F3",
"X.	c #FEFEFE",
"Y.	c #FFFFFF",
"Z.	c #FDFDFD",
"`.	c #E9E9E9",
" +	c #C6C6C6",
".+	c #898989",
"++	c #2B1C1D",
"@+	c #7F1416",
"#+	c #C61B1F",
"$+	c #C41B1E",
"%+	c #212C58",
"&+	c #30070A",
"*+	c #E21E22",
"=+	c #330708",
"-+	c #6C6C6C",
";+	c #CCCCCC",
">+	c #FAFAFA",
",+	c #EFEFEF",
"'+	c #B1B1B1",
")+	c #3A3A3B",
"!+	c #741214",
"~+	c #CC1D20",
"{+	c #B2191C",
"]+	c #0F0F1E",
"^+	c #D11E21",
"/+	c #C61C20",
"(+	c #570C0E",
"_+	c #4A4A4A",
":+	c #C8C9C9",
"<+	c #FCFCFC",
"[+	c #FEFFFE",
"}+	c #F3F3F2",
"|+	c #231111",
"1+	c #9E181A",
"2+	c #E11E21",
"3+	c #941519",
"4+	c #151B37",
"5+	c #A6181A",
"6+	c #1B0405",
"7+	c #8E8E8F",
"8+	c #DCDCDC",
"9+	c #575757",
"0+	c #6C1012",
"a+	c #D71D21",
"b+	c #5E0E10",
"c+	c #1D254C",
"d+	c #811315",
"e+	c #8E1416",
"f+	c #0B0809",
"g+	c #B5B5B5",
"h+	c #FDFDFC",
"i+	c #F2F2F2",
"j+	c #7D7D7D",
"k+	c #4C0B0C",
"l+	c #CF1C20",
"m+	c #D31D21",
"n+	c #110304",
"o+	c #222C5A",
"p+	c #2A0B18",
"q+	c #DB1E22",
"r+	c #E31D20",
"s+	c #881316",
"t+	c #0E0C0E",
"u+	c #C3C3C3",
"v+	c #F8F8F8",
"w+	c #89898A",
"x+	c #41090A",
"y+	c #A6171A",
"z+	c #171D3B",
"A+	c #A9181A",
"B+	c #941518",
"C+	c #040404",
"D+	c #BDBDBD",
"E+	c #FDFDFE",
"F+	c #F8F8F7",
"G+	c #7E7E7E",
"H+	c #4B0A0D",
"I+	c #D61D21",
"J+	c #E31E22",
"K+	c #520C0C",
"L+	c #202A55",
"M+	c #4C0E12",
"N+	c #AA1B1E",
"O+	c #080405",
"P+	c #A2A2A2",
"Q+	c #575857",
"R+	c #6A0F11",
"S+	c #B11A1F",
"T+	c #171E3D",
"U+	c #0A0404",
"V+	c #868686",
"W+	c #FBFBFA",
"X+	c #DDDDDC",
"Y+	c #121213",
"Z+	c #170506",
"`+	c #090D1C",
" @	c #414141",
".@	c #1D264D",
"+@	c #141416",
"@@	c #DBDBDB",
"#@	c #F5F5F5",
"$@	c #6D6D6D",
"%@	c #181F40",
"&@	c #4E4E4E",
"*@	c #EBEBEB",
"=@	c #787878",
"-@	c #232D5A",
";@	c #151A36",
">@	c #5A5A5A",
",@	c #E8E8E8",
"'@	c #F1F1F1",
")@	c #707070",
"!@	c #424242",
"~@	c #D3D3D3",
"{@	c #E5E5E5",
"]@	c #5B5B5B",
"^@	c #171E3A",
"/@	c #090A0B",
"(@	c #C5C5C5",
"_@	c #2F2F2F",
":@	c #1C2449",
"<@	c #070915",
"[@	c #BABABA",
"}@	c #F7F7F7",
"|@	c #EAEAEA",
"1@	c #878787",
"2@	c #202B55",
"3@	c #141933",
"4@	c #040405",
"5@	c #3F3F3F",
"6@	c #ADADAD",
"7@	c #FEFEFD",
"8@	c #1D1D1D",
"9@	c #232D5C",
"0@	c #1F274F",
"a@	c #12172E",
"b@	c #040407",
"c@	c #070708",
"d@	c #6E6E6E",
"e@	c #DADADA",
"f@	c #D6D6D6",
"g@	c #A9A9A9",
"h@	c #696A6A",
"i@	c #060606",
"j@	c #212953",
"k@	c #171D3C",
"l@	c #C1C1C1",
"m@	c #818282",
"n@	c #06070F",
"o@	c #131831",
"p@	c #171D3A",
"q@	c #FFFFFE",
"r@	c #181E3F",
"s@	c #131934",
"t@	c #7C7B7B",
"u@	c #0A0D1D",
"v@	c #767676",
"w@	c #1E274E",
"x@	c #040406",
"y@	c #171E3C",
"z@	c #0E1226",
"A@	c #656565",
"B@	c #060710",
"C@	c #636363",
"D@	c #1B2246",
"E@	c #606060",
"F@	c #232D5B",
"G@	c #222B57",
"H@	c #090C1A",
"I@	c #ADADAC",
"J@	c #E5E5E4",
"K@	c #E4E5E4",
"L@	c #4F4F4F",
"M@	c #030406",
"N@	c #040305",
"O@	c #181E3E",
"P@	c #161D3B",
"Q@	c #1F284F",
"R@	c #1E2850",
"S@	c #1E284F",
"T@	c #0E1124",
"U@	c #202952",
"V@	c #06060D",
"W@	c #1B2242",
"X@	c #12162F",
"            . + + + + + + + + + + + + + + + + + + + + + + + + + + + + + + + + + + + + + + + + + + + + + + + + + + + + + + + + + ",
"              @ + + + + + + + + + + + + + + + + + + + + + + + + + + + + + + + + + + + + + + + + + + + + + + + + + + + + + + + + ",
"              # $ + + + + + + + + + + + + + + + + + + + + + + + + + + + + + + + + + + + + + + + + + + + + + + + + + + + + + + + ",
"                % & * + + + + + + + + + + + + + + + + + + + + + + + + + + + + + + + + + + + + + + + + + + + + + + + + + + + + + ",
"              = = - + + + + + + + + + + + + + + + + + + + + + + + + + + + + + + + + + + + + + + + + + + + + + + + + + + + + + + ",
"                  ; > + + + + + + + + + + + + + + + + + + + + + + + + + + + + + + + + + + + + + + + + + + + + + + + + + + + + + ",
"                    , ' + + + + + + + + + + + + + + + + + & ) ! ~ { ] ) + + + + & + + + + + + + + + + + + + + + + + + + + + + + ",
"                      ^ / + + + + + + + + + + + * ) ( _ : < [ } | 1 2 3 4 5 6 { ) + + + + + + + + + + + + + + + + + + + + + + + ",
"                      7 8 + + + + + + + + + + 9 0 a b c c c c d e c c f g c h i j k ) + + + + + + + + + + + + + + + + + + + + + ",
"                        l m + + + + + * ) n o p c c c c c c c c c c c c c c c c c q r s ) + + + + + + + + + + + + + + + + + + + ",
"                      =   t u + + + + & v w c c c c c c c c c c c c c c c c c c c c c x y ~ + * + + + + + + + + + + + + + + + + ",
"                          7 z & + + / A B c c c c c c c c c c c c c c c c c c c c c c c c < C ) + + + + + + + + + + + + + + + + ",
"                            D E & F G H c c c c c c c c c c c c c c c c c c c c c c c c c c I J ) + + + + + + + + + + + + + + + ",
"                              K L M f c c c c c c c c c c c c c c c c c c c c c c c c c c c c N O + + + + + + + + + + + + + + + ",
"                          = P Q R f S c c c c c c c c c c c c c c c c c c c c c c c c c c c c c T U + + + + + + + + + + + + + + ",
"                          7 V W X c c c c c c c c c c c c c c c c c c c c c c c c c c c c c c c c Y Z + + + + + + + + + + + + + ",
"                          `  ...c c c c c c c c c c c c c c c c c c c c c c c c c c c c c c c c c c +.+ + + + + + + + + + + + + ",
"                        ; @.#.c c c c c c c c c c c c c c c c c c c c c c c c c c c c c c c c c c c $.%.+ + + + + + + + + + + + ",
"                      &.*.=.-.c c c c c c c c c c c c c c c c c c c c c c c c c c c c c c c c c c e c ;.+ + + + + + + + + + + + ",
"                      >.,.'.c c c c c c c c c c c c c c c c c c c c c c c c c c c c c c c c c c c c c ).!.+ + + + + + + + + + + ",
"                      , ~.{.e c c c c c c c c c c c c c c c c c c c c c c c c c c c c c c c c c c c c ].^.+ + + + + + + + + + + ",
"                      /.(.c c c c c c c c c c c c c c c c c c c c c c c c c c c c c c c c c c c c c c h _.:.* + + + + + + + + + ",
"                      <.[.c c c c c c c c c c c c c c c c c c c c c c c c c c c c c c c c c c c c c c c }.|.+ + + + + + + + + + ",
"                    ; 1.2.c c c c c c c c c c c c c c c c c c c c c c c c c c c c c c c c c c c c c c c e 3.+ + + + + + + + + + ",
"                    4.5.6.c c c c c c c c c c c c c c c c c c c c c c c c c c c c c c c c c c c c c c c c 7.& + + + + + + + + + ",
"                    8.9.c c c c c c c c c c c c c c c c c c c c c c c c c c c c c c c c c c c c c c c c c 0.+ + + + + + + + + + ",
"                  = a.b.e c c c c c c c c c c c c c c c c c d c c c c c c c c c c c c c c c c c c c c c d c.F + + + + + + + + + ",
"                  = ` d.d c c c c c c c c c c c c c c c c S h c c e e c c c c c c c c c c c c c c c c c c e.f.+ + + + + + + + + ",
"                  = ` g.c c c c c c c c c c c c c e c h.i.j.k.l.m.n.o.p.q.r.c c c c e c c c c c c c c c c s.t.+ + + + + + + + + ",
"                    u.v.c c c c c c c c c c c w.r.p.x.y.z.A.B.C.D.E.F.G.H.I.A J.K.L.S c c c c c c c c c c M.N.+ + + + + + + + + ",
"                  7 O.P.f c c c c c c c c e Q.R.S.T.U.V.W.X.X.Y.Y.Y.X.X.Z.`. +.+++@+#+f L.c c c c c c c d $++ + + + + + + + + + ",
"                    %+&+*+c c c c c c c X R.=+-+;+>+X.Y.Y.Y.Y.Y.Y.Y.Y.Y.Y.Y.Y.X.,+'+)+!+~+e c c c c c c c {++ + + + + + + + + + ",
"                  = 7 ]+^+c c c c c e /+(+_+:+<+Y.Y.Y.Y.Y.Y.Y.Y.Y.Y.Y.Y.Y.Y.Y.Y.Y.[+}+U.|+1+2+c d c c c c 3++ + + + + + + + + + ",
"                      4+{+c c c c f 5+6+7+W.X.Y.Y.Y.Y.Y.Y.Y.Y.Y.Y.Y.Y.Y.Y.Y.Y.Y.Y.Y.Y.X.8+9+0+a+e c c c h b++ + + + + + + + + + ",
"                      c+d+e c c H e+f+g+h+Y.Y.Y.Y.Y.Y.Y.Y.Y.Y.Y.Y.Y.Y.Y.Y.Y.Y.Y.Y.Y.Y.Y.[+i+j+k+l+c c c m+n++ + + + + + + + + + ",
"                      o+p+q+c r+s+t+u+X.Y.Y.Y.Y.Y.Y.Y.Y.Y.Y.Y.Y.Y.Y.Y.Y.Y.Y.Y.Y.Y.Y.Y.Y.Y.Y.v+w+x+..L.c y++ + + + + + + + + + + ",
"                      = z+A+e B+C+D+E+Y.Y.Y.Y.Y.Y.Y.Y.Y.Y.Y.Y.Y.Y.Y.Y.Y.Y.Y.Y.Y.Y.Y.Y.Y.Y.Y.Y.F+G+H+I+J+K++ + + + + + + + + + + ",
"                        L+M+N+O+P+Z.Y.Y.Y.Y.Y.Y.Y.Y.Y.Y.Y.Y.Y.Y.Y.Y.Y.Y.Y.Y.Y.Y.Y.Y.Y.Y.Y.Y.Y.Y.i+Q+R+S+L + + + + + + + + + + + ",
"                          T+U+V+W+Y.Y.Y.Y.Y.Y.Y.Y.Y.Y.Y.Y.Y.Y.Y.Y.Y.Y.Y.Y.Y.Y.Y.Y.Y.Y.Y.Y.Y.Y.Y.Y.X+Y+Z++ + + + + + + + + + + + ",
"                          D `+U.X.Y.Y.Y.Y.Y.Y.Y.Y.Y.Y.Y.Y.Y.Y.Y.Y.Y.Y.Y.Y.Y.Y.Y.Y.Y.Y.Y.Y.Y.Y.Y.Y.,+ @+ + + + + + + + + + + + + ",
"                            .@+@@@X.Y.Y.Y.Y.Y.Y.Y.Y.Y.Y.Y.Y.Y.Y.Y.Y.Y.Y.Y.Y.Y.Y.Y.Y.Y.Y.Y.Y.Y.Y.#@$@+ + + + + + + + + + + + + + ",
"                              %@&@*@X.Y.Y.Y.Y.Y.Y.Y.Y.Y.Y.Y.Y.Y.Y.Y.Y.Y.Y.Y.Y.Y.Y.Y.Y.Y.Y.Y.Y.#@=@+ + + + + + + + + + + + + + + ",
"                              -@;@>@,@X.Y.Y.Y.Y.Y.Y.Y.Y.Y.Y.Y.Y.Y.Y.Y.Y.Y.Y.Y.Y.Y.Y.Y.Y.Y.Y.'@)@+ + + + + + + + + + + + + + + + ",
"                              = 7 z !@~@X.Y.Y.Y.Y.Y.Y.Y.Y.Y.Y.Y.Y.Y.Y.Y.Y.Y.Y.Y.Y.Y.Y.Y.X.{@]@+ + + + + + + + + + + + + + + + + ",
"                                    ^@/@E.W.X.Y.Y.Y.Y.Y.Y.Y.Y.Y.Y.Y.Y.Y.Y.Y.Y.Y.Y.Y.Y.X.(@_@+ + + + + + + + + + + + + + + + + + ",
"                                    = :@<@ @[@}@X.Y.Y.Y.Y.Y.Y.Y.Y.Y.Y.Y.Y.Y.Y.Y.Y.X.|@1@+ + + + + + + + + + + + + + + + + + + + ",
"                                        2@3@4@5@6@,@7@X.Y.Y.Y.Y.Y.Y.Y.Y.Y.Y.X.X.{@D.8@+ + + + + + + + + + + + + + + + + + + + + ",
"                                          9@0@a@b@c@d@e@Y.Y.Y.Y.Y.Y.Y.Y.Y.f@g@h@i@+ + + + + + + + + + + + + + + + + + + + + + + ",
"                                            =   j@k@+ l@Y.Y.Y.Y.Y.Y.Y.Y.Y.m@n@o@p@& + + + + + + + + + + + + + + + + + + + + + + ",
"                                                  L+/ l@Y.Y.Y.Y.Y.Y.Y.Y.q@G+r@>.-@s@& + + + + + + + + + + + + + + + + + + + + + ",
"                                                  L+) l@Y.Y.Y.Y.Y.Y.Y.Y.Y.t@r@  9@D u@+ + + + + + + + + + + + + + + + + + + + + ",
"                                                  L+) l@Y.Y.Y.Y.Y.Y.Y.Y.Y.v@r@      w@x@+ + + + + + + + + + + + + + + + + + + + ",
"                                                  L+) l@Y.Y.Y.Y.Y.Y.Y.Y.Y.)@r@        y@& + + + + + + + + + + + + + + + + + + + ",
"                                                  L+) l@Y.Y.Y.Y.Y.Y.Y.Y.Y.$@r@        7 z@+ + + + + + + + + + + + + + + + + + + ",
"                                                  L+) l@Y.Y.Y.Y.Y.Y.Y.Y.Y.A@r@          j@B@+ + + + + + + + + + + + + + + + + + ",
"                                                  L+) l@Y.Y.Y.Y.Y.Y.Y.Y.Y.C@r@            D@& + + + + + + + + + + + + + + + + + ",
"                                                  L+) l@Y.Y.Y.Y.Y.Y.Y.Y.Y.E@r@              o@+ + + + + + + + + + + + + + + + + ",
"                                                  L+) l@Y.Y.Y.Y.Y.Y.Y.Y.Y.]@r@            F@G@H@+ + + + + + + + + + + + + + + + ",
"                                                  L+C+I@J@J@J@J@J@J@J@J@K@L@r@                8.M@+ + + + + + + + + + + + + + + ",
"                                                  L+N@& & & & & & & & & & & O@                  P@& + + + + + + + + + + + + + + ",
"                                                  o+Q@R@R@R@R@R@R@R@R@R@S@S@L+                  ; T@+ + + + + + + + + + + + + + ",
"                                                                                                  U@V@+ + + + + + + + + + + + + ",
"                                                                                                  = W@+ & + + + + + + + + + + + ",
"                                                                                                      X@+ + + + + + + + + + + + "};
