/* XPM */
static char * uzumaki_xpm[] = {
"64 64 449 2",
"  	c #000000",
". 	c #010101",
"+ 	c #B5380D",
"@ 	c #E94A12",
"# 	c #010001",
"$ 	c #842708",
"% 	c #E84A12",
"& 	c #4C1204",
"* 	c #DF4611",
"= 	c #0F0302",
"- 	c #C73E0F",
"; 	c #010102",
"> 	c #9D2F0B",
", 	c #000001",
"' 	c #661C05",
") 	c #E54912",
"! 	c #260702",
"~ 	c #D34311",
"{ 	c #000101",
"] 	c #B2360D",
"^ 	c #0B0101",
"/ 	c #520304",
"( 	c #82050A",
"_ 	c #99080C",
": 	c #A8090F",
"< 	c #B00A0F",
"[ 	c #B10B0F",
"} 	c #AF0A0F",
"| 	c #A5090E",
"1 	c #95080B",
"2 	c #780508",
"3 	c #410203",
"4 	c #010100",
"5 	c #7F2507",
"6 	c #E84912",
"7 	c #150101",
"8 	c #750509",
"9 	c #AC0A10",
"0 	c #CC0E13",
"a 	c #D80F15",
"b 	c #D80F16",
"c 	c #D70F15",
"d 	c #C60D13",
"e 	c #A1090F",
"f 	c #5E0406",
"g 	c #050101",
"h 	c #451104",
"i 	c #DD4611",
"j 	c #290203",
"k 	c #92090C",
"l 	c #CA0E14",
"m 	c #D90F16",
"n 	c #BF0D12",
"o 	c #7D0608",
"p 	c #080102",
"q 	c #0A0101",
"r 	c #C33D0E",
"s 	c #090102",
"t 	c #85070A",
"u 	c #CC0E14",
"v 	c #C00C12",
"w 	c #660407",
"x 	c #020101",
"y 	c #972D0A",
"z 	c #430304",
"A 	c #B70C11",
"B 	c #A00A0F",
"C 	c #1C0102",
"D 	c #601A05",
"E 	c #E44811",
"F 	c #690407",
"G 	c #CD0E14",
"H 	c #BE0C12",
"I 	c #420304",
"J 	c #020102",
"K 	c #B9390E",
"L 	c #780609",
"M 	c #D40F16",
"N 	c #510406",
"O 	c #3D0E03",
"P 	c #D2420F",
"Q 	c #760509",
"R 	c #D60F15",
"S 	c #D81015",
"T 	c #D40F15",
"U 	c #C10D12",
"V 	c #B30B10",
"W 	c #AC0B0F",
"X 	c #AD0B0F",
"Y 	c #B40C11",
"Z 	c #C30D13",
"` 	c #D50F15",
" .	c #CB0E14",
"..	c #4C0305",
"+.	c #4D1405",
"@.	c #DB4611",
"#.	c #010000",
"$.	c #5F0407",
"%.	c #D20F15",
"&.	c #A80A0F",
"*.	c #6D0607",
"=.	c #1C0303",
"-.	c #3B0304",
";.	c #650508",
">.	c #760609",
",.	c #670507",
"'.	c #400305",
").	c #250304",
"!.	c #770609",
"~.	c #AF0B10",
"{.	c #D50F14",
"].	c #C40D13",
"^.	c #310204",
"/.	c #732007",
"(.	c #E74911",
"_.	c #320203",
":.	c #C80E14",
"<.	c #D20F14",
"[.	c #99090F",
"}.	c #330304",
"|.	c #A70A0F",
"1.	c #C90E13",
"2.	c #D90F15",
"3.	c #A80B0F",
"4.	c #650507",
"5.	c #4E0406",
"6.	c #B30B11",
"7.	c #B00B10",
"8.	c #040102",
"9.	c #A6330B",
"0.	c #E94A13",
"a.	c #AA0A0F",
"b.	c #B70C12",
"c.	c #470405",
"d.	c #690508",
"e.	c #BC0C12",
"f.	c #B60C11",
"g.	c #4E0405",
"h.	c #8A080C",
"i.	c #83060A",
"j.	c #230603",
"k.	c #D64310",
"l.	c #6B0408",
"m.	c #98090D",
"n.	c #2D0303",
"o.	c #A80A10",
"p.	c #D10F15",
"q.	c #74060A",
"r.	c #7A060A",
"s.	c #CE0E14",
"t.	c #320204",
"u.	c #832607",
"v.	c #050102",
"w.	c #D81016",
"x.	c #8C070C",
"y.	c #480406",
"z.	c #720609",
"A.	c #8F080C",
"B.	c #9D090E",
"C.	c #0C0202",
"D.	c #CF4110",
"E.	c #6E0507",
"F.	c #9B090D",
"G.	c #440405",
"H.	c #C80E13",
"I.	c #D00E14",
"J.	c #4B0405",
"K.	c #B90C12",
"L.	c #D10E14",
"M.	c #300203",
"N.	c #8E2A09",
"O.	c #B20B10",
"P.	c #BB0C12",
"Q.	c #230303",
"R.	c #5B0507",
"S.	c #8D070B",
"T.	c #270702",
"U.	c #E04711",
"V.	c #570406",
"W.	c #9A090D",
"X.	c #D70F16",
"Y.	c #B40B10",
"Z.	c #030102",
"`.	c #BA390C",
" +	c #81060A",
".+	c #AB0B0F",
"++	c #450405",
"@+	c #AE0B10",
"#+	c #78060A",
"$+	c #3E0204",
"%+	c #8C2A08",
"&+	c #A8090E",
"*+	c #5F0506",
"=+	c #9F090E",
"-+	c #2E0304",
";+	c #800609",
">+	c #4A1303",
",+	c #0E0203",
"'+	c #A00A0E",
")+	c #BC0D12",
"!+	c #5B0407",
"~+	c #A0090D",
"{+	c #080202",
"]+	c #130001",
"^+	c #D00F14",
"/+	c #A40A0E",
"(+	c #610506",
"_+	c #CF0E14",
":+	c #91080E",
"<+	c #7A0609",
"[+	c #B50B10",
"}+	c #000102",
"|+	c #CD410F",
"1+	c #2E0102",
"2+	c #840709",
"3+	c #8E080B",
"4+	c #84070A",
"5+	c #C03C0E",
"6+	c #400203",
"7+	c #DA1015",
"8+	c #640506",
"9+	c #C00D12",
"0+	c #A10A0E",
"a+	c #7D0709",
"b+	c #B60B10",
"c+	c #C80D13",
"d+	c #B9390C",
"e+	c #460203",
"f+	c #DA0F16",
"g+	c #490405",
"h+	c #93080C",
"i+	c #C70D13",
"j+	c #620407",
"k+	c #C20D12",
"l+	c #CA0D14",
"m+	c #B5380C",
"n+	c #3A0202",
"o+	c #750609",
"p+	c #D30F15",
"q+	c #360304",
"r+	c #C50D13",
"s+	c #BA3A0D",
"t+	c #250101",
"u+	c #DA0F15",
"v+	c #530406",
"w+	c #A90A0F",
"x+	c #6B0607",
"y+	c #BD0D12",
"z+	c #C43D0E",
"A+	c #050001",
"B+	c #CB0E13",
"C+	c #740609",
"D+	c #96080C",
"E+	c #85070B",
"F+	c #BD0C12",
"G+	c #6E0608",
"H+	c #B50C11",
"I+	c #AF0A10",
"J+	c #D34210",
"K+	c #96080D",
"L+	c #700608",
"M+	c #B90C11",
"N+	c #79060A",
"O+	c #6C0609",
"P+	c #200502",
"Q+	c #E34812",
"R+	c #9C090E",
"S+	c #BA0C11",
"T+	c #1B0303",
"U+	c #7D070B",
"V+	c #A70A10",
"W+	c #4B0406",
"X+	c #C90E14",
"Y+	c #6D0507",
"Z+	c #651C04",
"`+	c #6A0507",
" @	c #D60F14",
".@	c #410405",
"+@	c #D20E15",
"@@	c #680608",
"#@	c #A40A0F",
"$@	c #4F0406",
"%@	c #1B0103",
"&@	c #9E300A",
"*@	c #0D0102",
"=@	c #97090D",
"-@	c #590407",
";@	c #89080B",
">@	c #B20C11",
",@	c #D30F14",
"'@	c #CA0E13",
")@	c #A60A0F",
"!@	c #82070B",
"~@	c #CA3F0F",
"{@	c #9E090D",
"]@	c #240204",
"^@	c #C20D13",
"/@	c #89080C",
"(@	c #570506",
"_@	c #4A0405",
":@	c #5C0506",
"<@	c #720508",
"[@	c #4F1504",
"}@	c #E74A12",
"|@	c #480304",
"1@	c #95090D",
"2@	c #4C0406",
"3@	c #D30E15",
"4@	c #D20E14",
"5@	c #0A0102",
"6@	c #AA340B",
"7@	c #4A0406",
"8@	c #8D080C",
"9@	c #7C060B",
"0@	c #330C03",
"a@	c #DF4612",
"b@	c #BA0C12",
"c@	c #140203",
"d@	c #AF0B11",
"e@	c #0A0202",
"f@	c #A8330C",
"g@	c #E84A11",
"h@	c #86060A",
"i@	c #9E090F",
"j@	c #250303",
"k@	c #BB0C11",
"l@	c #460405",
"m@	c #571705",
"n@	c #E44812",
"o@	c #030101",
"p@	c #AE0A11",
"q@	c #8E080C",
"r@	c #290304",
"s@	c #B60C12",
"t@	c #C90D14",
"u@	c #540407",
"v@	c #110403",
"w@	c #C93F0F",
"x@	c #D70F14",
"y@	c #180304",
"z@	c #B00B11",
"A@	c #380304",
"B@	c #030203",
"C@	c #A5320C",
"D@	c #3E0203",
"E@	c #C40D12",
"F@	c #6F0608",
"G@	c #C60E13",
"H@	c #020202",
"I@	c #872808",
"J@	c #180303",
"K@	c #89070C",
"L@	c #D30E14",
"M@	c #090203",
"N@	c #7B2407",
"O@	c #280202",
"P@	c #590507",
"Q@	c #0C0303",
"R@	c #A1090E",
"S@	c #7D060A",
"T@	c #2C0304",
"U@	c #0F0203",
"V@	c #832708",
"W@	c #E54811",
"X@	c #CF0E15",
"Y@	c #88070B",
"Z@	c #3F0305",
"`@	c #040203",
" #	c #180203",
".#	c #650506",
"+#	c #6D0508",
"@#	c #520405",
"##	c #1F0304",
"$#	c #020203",
"%#	c #6F0507",
"&#	c #B20B11",
"*#	c #630408",
"=#	c #070202",
"-#	c #9F300A",
";#	c #E74912",
">#	c #3B0204",
",#	c #A60A0E",
"'#	c #B10B11",
")#	c #9F090D",
"!#	c #92080B",
"~#	c #8C080B",
"{#	c #8F080B",
"]#	c #D40E15",
"^#	c #491204",
"/#	c #C33D0F",
"(#	c #450304",
"_#	c #C30D12",
":#	c #2A0203",
"<#	c #1C0502",
"[#	c #992F0B",
"}#	c #1D0502",
"|#	c #782307",
"1#	c #0B0202",
"2#	c #140202",
"3#	c #710507",
"4#	c #A1090D",
"5#	c #97080C",
"6#	c #5B0406",
"7#	c #280803",
"8#	c #962D09",
"9#	c #D74410",
"0#	c #A7330B",
"a#	c #651C05",
"b#	c #170101",
"c#	c #440304",
"d#	c #680406",
"e#	c #750508",
"f#	c #790509",
"g#	c #730508",
"h#	c #630406",
"i#	c #360203",
"j#	c #0F0102",
"k#	c #230602",
"l#	c #792307",
"m#	c #E04712",
"n#	c #752107",
"o#	c #A9340A",
"p#	c #932C08",
"q#	c #7E2506",
"r#	c #732006",
"s#	c #6D1F05",
"t#	c #752105",
"u#	c #832707",
"v#	c #992E0A",
"w#	c #B0360C",
"x#	c #CA3F0E",
"y#	c #E34811",
"z#	c #E94A11",
"A#	c #3B0D02",
"B#	c #D94510",
"C#	c #BC3B0E",
"D#	c #8F2A09",
"E#	c #551705",
"F#	c #E24711",
"G#	c #170301",
"H#	c #CC4010",
"I#	c #A5320B",
"J#	c #711F06",
"K#	c #E64912",
"L#	c #330B03",
"M#	c #D84411",
"N#	c #000100",
"O#	c #B8390C",
"P#	c #892808",
"                                                                                                                . + @ @ @ @ @ @ ",
"                                                                                                              # $ % @ @ @ @ @ @ ",
"                                                                                                            # & * @ @ @ @ @ @ @ ",
"                                                                                                            = - @ @ @ @ @ @ @ @ ",
"                                                                                                          ; > @ @ @ @ @ @ @ @ @ ",
"                                                                                                        , ' ) @ @ @ @ @ @ @ @ @ ",
"                                                                                                      , ! ~ @ @ @ @ @ @ @ @ @ @ ",
"                                                                                                      { ] % @ @ @ @ @ @ @ @ @ @ ",
"                                              . . ^ / ( _ : < [ } | 1 2 3 { . 4                     . 5 6 @ @ @ @ @ @ @ @ @ @ @ ",
"                                        , # 7 8 9 0 a a a a b a a a a a c d e f g , ,               h i @ @ @ @ @ @ @ @ @ @ @ @ ",
"                                        j k l m a a a a a a a a a a a a a a a a n o p             q r @ @ @ @ @ @ @ @ @ @ @ @ @ ",
"                                  . s t u a a a a a a a a a a a a a a a a a a a a a v w x 4     . y @ @ @ @ @ @ @ @ @ @ @ @ @ @ ",
"                                . z A a a a a a a a a a a a a a a a a a a a a a a a a c B C # . D E @ @ @ @ @ @ @ @ @ @ @ @ @ @ ",
"                              , F G a a a a a a a a a a a a a a a a a a a a a a a a a a a H I J K @ @ @ @ @ @ @ @ @ @ @ @ @ @ @ ",
"                            . L M a a a a a a a a a a a a a a a a a a a a a a a a a a a a a l N O P @ @ @ @ @ @ @ @ @ @ @ @ @ @ ",
"                          . Q R a a a a a a a a a a S b T U V W X Y Z ` a a a a a a a a a a a  ...+.@.@ @ @ @ @ @ @ @ @ @ @ @ @ ",
"                        #.$.%.a a a a a a a a a a %.&.*.=.-.;.>.>.,.'.).!.~.{.a a a a a a a a a ].^./.(.@ @ @ @ @ @ @ @ @ @ @ @ ",
"                      # _.:.a a a a a a a a a <.[.}.;.|.1.a 2.a a a b  .3.4.5.6.a a a a a a a a a 7.8.9.0.@ @ @ @ @ @ @ @ @ @ @ ",
"                      . a.a a a a a a a a a b.c.d.e.a a a a a a a a a a a a f.g.h.` 2.a a a a a a a i.j.k.@ @ @ @ @ @ @ @ @ @ @ ",
"                    # l.c a a a a a a a a m.n.o.c a a a a a a a a a a a a a a p.q.r.` a a a a a a a s.t.u.@ @ @ @ @ @ @ @ @ @ @ ",
"                    v.H w.a a a a a a w.x.y.].b a a a a a a a a a a a a a a a a ` z.A.a a a a a a a a B.C.D.@ @ @ @ @ @ @ @ @ @ ",
"                    E.a a a a a a a a F.G.H.a a a a a a a a a a a a a a a a a a a I.J.K.a a a a a a a L.M.N.@ @ @ @ @ @ @ @ @ @ ",
"                  . O.a a a a a a a P.Q.n a a a a a a a a a a a a a a a a a a a a a Y R.R a a a a a a a S.T.U.@ @ @ @ @ @ @ @ @ ",
"                  _.T a a a a a a R V.W.a a a a a a a a a a a a a a a a a a a a a a X.;.Y.a a a a a a a H Z.`.@ @ @ @ @ @ @ @ @ ",
"                   +a a a a a a a .+++T a a a a a a a a a a a a a a a a a a a a a a a @+#+a a a a a a a c $+%+@ @ @ @ @ @ @ @ @ ",
"                  &+a a a a a a a *+=+a a a a a a a a a a a a G ` a a a a a a a a a a p.-+T a a a a a a a ;+>+@ @ @ @ @ @ @ @ @ ",
"                  U a a a a a a d ,+u a a a a a a a a a a I.'+)+a a a a a a a a a a a 2.!+Z a a a a a a a ~+{+i @ @ @ @ @ @ @ @ ",
"                ]+^+a a a a a a /+(+a a a a a a a a a a _+:+` a a a a a a a a a a a a a <+f.a a a a a a a [+}+|+@ @ @ @ @ @ @ @ ",
"                1+c a a a a a a 2+3+a a a a a a a a a a h.p.a a a a a a a a a a a a a a 4+O.a a a a a a a U { 5+@ @ @ @ @ @ @ @ ",
"                6+7+a a a a a 2.8+/+m a a a a a a a a 9+0+a a a a a a a a a a a a a a a a+b+a a a a a a a c+, d+@ @ @ @ @ @ @ @ ",
"                e+f+a a a a a f+g+@+a a a a a a a a a h+i+a a a a a a a a a a a a a a S j+k+a a a a a a a l+, m+@ @ @ @ @ @ @ @ ",
"                n+2.a a a a a 2.z 7.a a a a a a a a a o+T a a a a a a a a a a a a a a p+q+T a a a a a a a r+{ s+@ @ @ @ @ @ @ @ ",
"                t+` a a a a a u+v+w+a a a a a a a a 2.x+p+a a a a a a a a a a a a a a Y !.2.a a a a a a a y+. z+@ @ @ @ @ @ @ @ ",
"                A+B+a a a a a a C+D+a a a a a a a a a E+F+a a a a a a a a a a a a a a G+H+a a a a a a a a I+{ J+@ @ @ @ @ @ @ @ ",
"                  K.a a a a a a K+L+a a a a a a a a a M+N+a a a a a a a a a a a a a @+O+c a a a a a a a a D+P+Q+@ @ @ @ @ @ @ @ ",
"                  R+a a a a a a S+T+I.a a a a a a a a a U+V+2.a a a a a a a a a b F+W+X+a a a a a a a a a Y+Z+@ @ @ @ @ @ @ @ @ ",
"                  `+a a a a a a  @.@|.a a a a a a a a a +@@@B c a a a a a a a R #@$@k+a a a a a a a a a L.%@&@@ @ @ @ @ @ @ @ @ ",
"                  *@u a a a a a a =@-@c a a a a a a a a a p+;@4.>@,@u+2.a '@)@-@!@s.S a a a a a a a a a ~.; ~@@ @ @ @ @ @ @ @ @ ",
"                    {@a a a a a a G ]@7.a a a a a a a a a a a ^@/@J.(@4._@:@K+d a a a a a a a a a a a a <@[@}@@ @ @ @ @ @ @ @ @ ",
"                    |@` a a a a a a 1@2@3@a a a a a a a a a a a a a _+B+4@2.a a a a a a a a a a a a a Z 5@6@@ @ @ @ @ @ @ @ @ @ ",
"                    . )@a a a a a a <.7@8@a a a a a a a a a a a a a a a a a a a a a a a a a a a a a a 9@0@a@@ @ @ @ @ @ @ @ @ @ ",
"                    # $+I.a a a a a a b@c@d@S a a a a a a a a a a a a a a a a a a a a a a a a a a a K.e@f@g@@ @ @ @ @ @ @ @ @ @ ",
"                      . h@b a a a a a a i@j@k@a a a a a a a a a a a a a a a a a a a a a a a a a a  .l@m@n@@ @ @ @ @ @ @ @ @ @ @ ",
"                        o@p@a a a a a a a q@r@s@a a a a a a a a a a a a a a a a a a a a a a a a t@u@v@w@@ @ @ @ @ @ @ @ @ @ @ @ ",
"                          j v a a a a a a x@k y@e c a a a a a a a a a a a a a a a a a a a a c z@A@B@C@@ @ @ @ @ @ @ @ @ @ @ @ @ ",
"                            D@E@a a a a a a a &.).F@G@a a a a a a a a a a a a a a a a a a 9+C+H@H@I@}@@ @ @ @ @ @ @ @ @ @ @ @ @ ",
"                              D@n a a a a a a a r+@@J@K@r+a a a a a a a a a a a a a L@7.G+M@H@H@N@n@@ @ @ @ @ @ @ @ @ @ @ @ @ @ ",
"                                O@W S a a a a a b c 7.P@Q@,.R@U T a a a a a  @r+w+S@T@U@;.A@  V@W@% @ @ @ @ @ @ @ @ @ @ @ @ @ @ ",
"                                  J i.X@a a a a a a a X.S+Y@Z@`@ #$@.#+#,.@###$#=.%#0+&#*#=#-#;#@ @ @ @ @ @ @ @ @ @ @ @ @ @ @ @ ",
"                                    # >#,#` a a a a a a a a c G@'#)#!#~#{#W.w+H ]#s.A. #^#/#@ @ @ @ @ @ @ @ @ @ @ @ @ @ @ @ @ @ ",
"                                      . J (#=+G a a a a a a a a a a b a a a b _#S.:#<#[#U.@ @ @ @ @ @ @ @ @ @ @ @ @ @ @ @ @ @ @ ",
"                                        }#|#1#2#3#4#n 3@2.a a a a 2.2.s.K.5#6#; 7#8#9#@ @ @ @ @ @ @ @ @ @ @ @ @ @ @ @ @ @ @ @ @ ",
"                                    # J 6@@ 9#0#a#C.x b#c#d#e#f#g#h#i#j#. k#l#m+m#@ @ @ @ @ @ @ @ @ @ @ @ @ @ @ @ @ @ @ @ @ @ @ ",
"                                    , n#6 @ @ @ @ i r o#p#q#r#s#t#u#v#w#x#y#@ z#@ @ @ @ @ @ @ @ @ @ @ @ @ @ @ @ @ @ @ @ @ @ @ @ ",
"                                    A#B#@ @ @ @ @ @ % @ @ % @ @ @ % @ @ @ @ @ @ @ @ @ @ @ @ @ @ @ @ @ @ @ @ @ @ @ @ @ @ @ @ @ @ ",
"                                  Z.C#@ @ @ @ @ @ @ @ @ @ @ @ @ @ @ @ @ @ @ @ @ @ @ @ @ @ @ @ @ @ @ @ @ @ @ @ @ @ @ @ @ @ @ @ @ ",
"                                . D#@ @ @ @ @ @ @ @ @ @ @ @ @ @ @ @ @ @ @ @ @ @ @ @ @ @ @ @ @ @ @ @ @ @ @ @ @ @ @ @ @ @ @ @ @ @ ",
"                                E#F#0.@ @ @ @ @ @ @ @ @ @ @ @ @ @ @ @ @ @ @ @ @ @ @ @ @ @ @ @ @ @ @ @ @ @ @ @ @ @ @ @ @ @ @ @ @ ",
"                              G#H#@ @ @ @ @ @ @ @ @ @ @ @ @ @ @ @ @ @ @ @ @ @ @ @ @ @ @ @ @ @ @ @ @ @ @ @ @ @ @ @ @ @ @ @ @ @ @ ",
"                            . I#@ @ @ @ @ @ @ @ @ @ @ @ @ @ @ @ @ @ @ @ @ @ @ @ @ @ @ @ @ @ @ @ @ @ @ @ @ @ @ @ @ @ @ @ @ @ @ @ ",
"                          . J#K#@ @ @ @ @ @ @ @ @ @ @ @ @ @ @ @ @ @ @ @ @ @ @ @ @ @ @ @ @ @ @ @ @ @ @ @ @ @ @ @ @ @ @ @ @ @ @ @ ",
"                          L#M#@ @ @ @ @ @ @ @ @ @ @ @ @ @ @ @ @ @ @ @ @ @ @ @ @ @ @ @ @ @ @ @ @ @ @ @ @ @ @ @ @ @ @ @ @ @ @ @ @ ",
"                      N#J O#% @ @ @ @ @ @ @ @ @ @ @ @ @ @ @ @ @ @ @ @ @ @ @ @ @ @ @ @ @ @ @ @ @ @ @ @ @ @ @ @ @ @ @ @ @ @ @ @ @ ",
"                      4 P#@ @ @ @ @ @ @ @ @ @ @ @ @ @ @ @ @ @ @ @ @ @ @ @ @ @ @ @ @ @ @ @ @ @ @ @ @ @ @ @ @ @ @ @ @ @ @ @ @ @ @ "};
